<svg width="160" height="160" viewBox="0 0 160 160" fill="none" xmlns="http://www.w3.org/2000/svg">
<rect x="88" y="16" width="136" height="24" transform="rotate(90 88 16)" fill="#933800"/>
<rect x="80" y="16" width="128" height="7.99999" transform="rotate(90 80 16)" fill="#B75002"/>
<rect width="8" height="8" transform="matrix(4.37114e-08 -1 -1 -4.37114e-08 80 16)" fill="#933800"/>
<rect x="40" y="24" width="80" height="40" fill="#FFCC9A"/>
<rect x="40" y="24" width="80" height="8" fill="#B75002"/>
<path d="M40 32H32V56H40V32Z" fill="#933800"/>
<rect x="120" y="32" width="8" height="8" fill="#FFCC9A"/>
<rect x="120" y="40" width="8" height="8" fill="#FFCC9A"/>
<rect x="120" y="48" width="8" height="8" fill="#FFCC9A"/>
<rect x="128" y="40" width="8" height="8" fill="#FFCC9A"/>
<rect x="120" y="24" width="8" height="8" fill="#B75002"/>
<rect x="128" y="32" width="8" height="8" fill="#B75002"/>
<rect x="136" y="40" width="8" height="8" fill="#B75002"/>
<rect x="128" y="48" width="8" height="8" fill="#B75002"/>
<rect x="120" y="56" width="8" height="8" fill="#933800"/>
<rect x="40" y="56" width="80" height="8" fill="#933800"/>
<rect width="80" height="40" transform="matrix(-1 0 0 1 112 64)" fill="#FFCC9A"/>
<rect width="80" height="8" transform="matrix(-1 0 0 1 112 64)" fill="#B75002"/>
<rect width="36" height="8" transform="matrix(-1 0 0 1 112 80)" fill="#B75002"/>
<rect width="36" height="8" transform="matrix(-1 0 0 1 76 40)" fill="#B75002"/>
<rect width="16" height="8" transform="matrix(-1 0 0 1 48 80)" fill="#B75002"/>
<rect width="16" height="8" transform="matrix(-1 0 0 1 104 40)" fill="#B75002"/>
<path d="M112 72H120V96H112V72Z" fill="#933800"/>
<rect width="8" height="8" transform="matrix(-1 0 0 1 32 72)" fill="#FFCC9A"/>
<rect width="8" height="8" transform="matrix(-1 0 0 1 32 80)" fill="#FFCC9A"/>
<rect width="8" height="8" transform="matrix(-1 0 0 1 32 88)" fill="#FFCC9A"/>
<rect width="8" height="8" transform="matrix(-1 0 0 1 24 80)" fill="#FFCC9A"/>
<rect width="8" height="8" transform="matrix(-1 0 0 1 32 64)" fill="#B75002"/>
<rect width="8" height="8" transform="matrix(-1 0 0 1 24 72)" fill="#B75002"/>
<rect width="8" height="8" transform="matrix(-1 0 0 1 16 80)" fill="#B75002"/>
<rect width="8" height="8" transform="matrix(-1 0 0 1 24 88)" fill="#B75002"/>
<rect width="8" height="8" transform="matrix(-1 0 0 1 32 96)" fill="#933800"/>
<rect width="80" height="8" transform="matrix(-1 0 0 1 112 96)" fill="#933800"/>
<path d="M133 143.999V112H125.003V119.997H117V127.999H109.003V119.997H101V112H92.9969V143.999H85V152.001H109.003V143.999H101V136.002H109.003V143.999H117V136.002H125.003V143.999H117V152.001H141.003V143.999H133Z" fill="#44BA82"/>
<rect x="48" y="144" width="8" height="8" fill="#44BA82"/>
<rect x="32" y="144" width="8" height="8" fill="#44BA82"/>
<rect x="64" y="144" width="8" height="8" fill="#44BA82"/>
<rect x="56" y="136" width="8" height="16" fill="#44BA82"/>
</svg>
