<svg width="64" height="64" viewBox="0 0 64 64" fill="none" xmlns="http://www.w3.org/2000/svg">
<rect x="16" y="12.7998" width="35.2" height="9.6" fill="#B9DAFF"/>
<rect x="12.8" y="22.4004" width="38.4" height="25.6" fill="#151524"/>
<rect x="18" y="16" width="3.2" height="3.2" fill="#E61300"/>
<rect x="24" y="16" width="3.2" height="3.2" fill="#FF8204"/>
<rect x="30.4" y="16" width="3.2" height="3.2" fill="#44BA82"/>
<rect x="51.2001" y="12.7998" width="3.2" height="38.4" fill="#044298"/>
<rect x="16" y="12.7998" width="3.2" height="3.2" fill="#B9DAFF"/>
<rect x="48" y="12.7998" width="3.2" height="3.2" fill="#B9DAFF"/>
<rect x="12.8" y="16" width="3.2" height="3.2" fill="#B9DAFF"/>
<rect x="12.8" y="12.7998" width="3.2" height="3.2" fill="#B9DAFF"/>
<rect x="9.59998" y="12.7998" width="3.2" height="38.4" fill="#044298"/>
<rect x="51.2" y="51.2002" width="3.2" height="38.4" transform="rotate(90 51.2 51.2002)" fill="#044298"/>
<rect x="12.8" y="9.59961" width="38.4" height="3.2" fill="#044298"/>
<rect x="12.8" y="19.2002" width="3.2" height="3.2" fill="#B9DAFF"/>
<rect x="12.8" y="48" width="38.4" height="3.2" fill="#151524"/>
<path d="M39.6577 38.5333L39.6577 29.2529L37.3134 29.2529L37.3134 31.5745L34.9711 31.5745L34.9711 33.8941L32.6288 33.8941L32.6288 31.5745L30.2866 31.5745L30.2866 29.2529L27.9443 29.2529L27.9443 38.5333L25.6 38.5333L25.6 40.8529L32.6288 40.8529L32.6288 38.5333L30.2866 38.5333L30.2866 36.2137L32.6288 36.2137L32.6288 38.5333L34.9711 38.5333L34.9711 36.2137L37.3134 36.2137L37.3134 38.5333L34.9711 38.5333L34.9711 40.8529L42 40.8529L42 38.5333L39.6577 38.5333Z" fill="#F5F4EF"/>
<rect x="17.6" y="28.7998" width="2.4" height="2.4" fill="#F5F4EF"/>
<rect x="20" y="31.2002" width="2.4" height="2.4" fill="#F5F4EF"/>
<rect x="22.4" y="33.5996" width="2.4" height="2.4" fill="#F5F4EF"/>
<rect x="20" y="36" width="2.4" height="2.4" fill="#F5F4EF"/>
<rect x="17.6" y="38.4004" width="2.4" height="2.4" fill="#F5F4EF"/>
</svg>
