 <svg
          width="20"
          height="20"
          viewBox="0 0 20 20"
          fill="none"
          xmlns="http://www.w3.org/2000/svg"
        >
          <g filter="url(#filter0_di_17045_4702)">
            <path
              d="M3.75 3.33335C3.75 2.41288 4.49619 1.66669 5.41666 1.66669H11.7486C11.9634 1.66669 12.1699 1.74966 12.3251 1.8983L15.9932 5.41287C16.1572 5.57005 16.25 5.78739 16.25 6.01458V16.6667C16.25 17.5871 15.5038 18.3333 14.5833 18.3333H5.41666C4.49619 18.3333 3.75 17.5871 3.75 16.6667V3.33335Z"
              fill="#9465E7"
            />
            <path
              d="M5.41699 1.91669H11.749C11.8992 1.9168 12.0438 1.97484 12.1523 2.0788L15.8203 5.59344C15.935 5.70345 15.9999 5.85549 16 6.01434V16.6667C16 17.449 15.3654 18.0837 14.583 18.0837H5.41699C4.6346 18.0837 4.00001 17.449 4 16.6667V3.33368C4 2.55128 4.63459 1.91669 5.41699 1.91669Z"
              stroke="#27272A"
              strokeOpacity="0.15"
              strokeWidth="0.5"
            />
          </g>
          <path
            d="M12.0835 2.5L15.4168 5.83333H12.0835V2.5Z"
            fill="white"
            fill-opacity="0.5"
          />
          <path
            fill-rule="evenodd"
            clip-rule="evenodd"
            d="M11.7362 11.1688C11.8466 11.1688 11.9362 11.0793 11.9362 10.9688V10.6475C11.9362 10.537 11.8466 10.4475 11.7362 10.4475H10.6947C10.5802 10.4475 10.4803 10.5253 10.4523 10.6363L9.9999 12.4278C9.92403 12.373 9.84071 12.3298 9.75003 12.2981C9.65934 12.2665 9.56128 12.2507 9.45584 12.2507C9.20696 12.2507 8.99503 12.3382 8.81996 12.5133C8.6449 12.6883 8.5574 12.9003 8.5574 13.1491C8.5574 13.3979 8.6449 13.6099 8.81996 13.7849C8.99503 13.96 9.20696 14.0475 9.45584 14.0475C9.70465 14.0475 9.89971 13.9713 10.0948 13.7849C10.2925 13.5962 10.3872 13.1491 10.3872 13.1491L10.8514 11.2071C10.8568 11.1846 10.8769 11.1688 10.9 11.1688H11.7362ZM9.9999 8.6507C10.4934 8.6507 10.9595 8.74451 11.3982 8.93226C11.8368 9.11995 12.2186 9.37726 12.5433 9.70407C12.8682 10.031 13.1254 10.4128 13.3152 10.8493C13.505 11.2858 13.5999 11.7529 13.5999 12.2507C13.5999 12.7442 13.505 13.2103 13.3152 13.6489C13.1254 14.0876 12.8682 14.4693 12.5433 14.7941C12.2186 15.1189 11.8368 15.3761 11.3982 15.566C10.9595 15.7558 10.4934 15.8507 9.9999 15.8507C9.50221 15.8507 9.03509 15.7558 8.59853 15.566C8.16196 15.3761 7.78028 15.1189 7.45334 14.7941C7.12646 14.4693 6.86915 14.0876 6.68146 13.6489C6.49378 13.2103 6.3999 12.7442 6.3999 12.2507C6.3999 11.7529 6.49378 11.2858 6.68146 10.8493C6.86915 10.4128 7.12646 10.031 7.45334 9.70407C7.78028 9.37726 8.16196 9.11995 8.59853 8.93226C9.03509 8.74451 9.50221 8.6507 9.9999 8.6507Z"
            fill="white"
          />
          <defs>
            <filter
              id="filter0_di_17045_4702"
              x="2.75"
              y="1.16669"
              width="14.5"
              height="18.6666"
              filterUnits="userSpaceOnUse"
              color-interpolation-filters="sRGB"
            >
              <feFlood flood-opacity="0" result="BackgroundImageFix" />
              <feColorMatrix
                in="SourceAlpha"
                type="matrix"
                values="0 0 0 0 0 0 0 0 0 0 0 0 0 0 0 0 0 0 127 0"
                result="hardAlpha"
              />
              <feOffset dy="0.5" />
              <feGaussianBlur stdDeviation="0.5" />
              <feComposite in2="hardAlpha" operator="out" />
              <feColorMatrix
                type="matrix"
                values="0 0 0 0 0 0 0 0 0 0 0 0 0 0 0 0 0 0 0.06 0"
              />
              <feBlend
                mode="normal"
                in2="BackgroundImageFix"
                result="effect1_dropShadow_17045_4702"
              />
              <feBlend
                mode="normal"
                in="SourceGraphic"
                in2="effect1_dropShadow_17045_4702"
                result="shape"
              />
              <feColorMatrix
                in="SourceAlpha"
                type="matrix"
                values="0 0 0 0 0 0 0 0 0 0 0 0 0 0 0 0 0 0 127 0"
                result="hardAlpha"
              />
              <feOffset dy="-0.5" />
              <feComposite
                in2="hardAlpha"
                operator="arithmetic"
                k2="-1"
                k3="1"
              />
              <feColorMatrix
                type="matrix"
                values="0 0 0 0 0 0 0 0 0 0 0 0 0 0 0 0 0 0 0.1 0"
              />
              <feBlend
                mode="normal"
                in2="shape"
                result="effect2_innerShadow_17045_4702"
              />
            </filter>
          </defs>
        </svg>
