<svg width="48" height="48" viewBox="0 0 48 48" fill="none" xmlns="http://www.w3.org/2000/svg">
<rect x="14.4" y="12" width="7.2" height="12" fill="#FF8204"/>
<rect x="36" y="26.4004" width="7.2" height="12" fill="#0082E6"/>
<rect x="4.80005" y="7.2002" width="14.4" height="7.2" fill="#FEC63A"/>
<rect x="26.4" y="21.5996" width="14.4" height="7.2" fill="#55B3FB"/>
<rect x="4.80005" y="14.4004" width="9.6" height="12" fill="#FFAF01"/>
<rect x="26.4" y="28.7998" width="9.6" height="12" fill="#55B3FB"/>
<rect width="2.4" height="2.4" transform="matrix(-1 0 0 1 14.4 4.7998)" fill="#B75002"/>
<rect width="2.4" height="2.4" transform="matrix(-1 0 0 1 36 19.2002)" fill="#044298"/>
<rect width="2.4" height="2.4" transform="matrix(-1 0 0 1 24 9.59961)" fill="#B75002"/>
<rect width="2.4" height="2.4" transform="matrix(-1 0 0 1 45.6 24)" fill="#044298"/>
<rect width="2.4" height="2.4" transform="matrix(-1 0 0 1 16.8 7.2002)" fill="#B75002"/>
<rect width="2.4" height="2.4" transform="matrix(-1 0 0 1 38.4 21.5996)" fill="#044298"/>
<rect width="2.4" height="2.4" transform="matrix(-1 0 0 1 7.19995 12)" fill="#B75002"/>
<rect width="2.4" height="2.4" transform="matrix(-1 0 0 1 28.8 26.4004)" fill="#044298"/>
<rect width="2.4" height="2.4" transform="matrix(-1 0 0 1 7.19995 24)" fill="#B75002"/>
<rect width="2.4" height="2.4" transform="matrix(-1 0 0 1 28.8 38.4004)" fill="#044298"/>
<rect width="2.4" height="2.4" transform="matrix(-1 0 0 1 21.6 9.59961)" fill="#B75002"/>
<rect width="2.4" height="2.4" transform="matrix(-1 0 0 1 43.2 24)" fill="#044298"/>
<rect width="2.4" height="2.4" transform="matrix(-1 0 0 1 12 14.4004)" fill="#B75002"/>
<rect width="2.4" height="2.4" transform="matrix(-1 0 0 1 33.6 28.7998)" fill="#044298"/>
<rect width="2.4" height="2.4" transform="matrix(-1 0 0 1 12 26.4004)" fill="#B75002"/>
<rect width="2.4" height="2.4" transform="matrix(-1 0 0 1 33.6 40.7998)" fill="#044298"/>
<rect width="2.4" height="2.4" transform="matrix(-1 0 0 1 19.2 7.2002)" fill="#B75002"/>
<rect width="2.4" height="2.4" transform="matrix(-1 0 0 1 40.8 21.5996)" fill="#044298"/>
<rect width="2.4" height="2.4" transform="matrix(-1 0 0 1 9.59998 12)" fill="#B75002"/>
<rect width="2.4" height="2.4" transform="matrix(-1 0 0 1 31.2 26.4004)" fill="#044298"/>
<rect width="2.4" height="2.4" transform="matrix(-1 0 0 1 9.59998 24)" fill="#B75002"/>
<rect width="2.4" height="2.4" transform="matrix(-1 0 0 1 31.2 38.4004)" fill="#044298"/>
<rect width="2.4" height="2.4" transform="matrix(-1 0 0 1 24 9.59961)" fill="#B75002"/>
<rect width="2.4" height="2.4" transform="matrix(-1 0 0 1 45.6 24)" fill="#044298"/>
<rect width="2.4" height="2.4" transform="matrix(-1 0 0 1 14.4 14.4004)" fill="#B75002"/>
<rect width="2.4" height="2.4" transform="matrix(-1 0 0 1 36 28.7998)" fill="#044298"/>
<rect width="2.4" height="2.4" transform="matrix(-1 0 0 1 14.4 26.4004)" fill="#B75002"/>
<rect width="2.4" height="2.4" transform="matrix(-1 0 0 1 36 40.7998)" fill="#044298"/>
<rect width="2.4" height="2.4" transform="matrix(-1 0 0 1 9.59998 7.2002)" fill="#B75002"/>
<rect width="2.4" height="2.4" transform="matrix(-1 0 0 1 31.2 21.5996)" fill="#044298"/>
<rect width="2.4" height="2.4" transform="matrix(-1 0 0 1 19.2 12)" fill="#B75002"/>
<rect width="2.4" height="2.4" transform="matrix(-1 0 0 1 40.8 26.4004)" fill="#044298"/>
<rect width="2.4" height="2.4" transform="matrix(-1 0 0 1 21.6 24)" fill="#B75002"/>
<rect width="2.4" height="2.4" transform="matrix(-1 0 0 1 43.2 38.4004)" fill="#044298"/>
<rect width="2.4" height="2.4" transform="matrix(-1 0 0 1 4.80005 9.59961)" fill="#B75002"/>
<rect width="2.4" height="2.4" transform="matrix(-1 0 0 1 26.4 24)" fill="#044298"/>
<rect width="2.4" height="2.4" transform="matrix(-1 0 0 1 12 4.7998)" fill="#B75002"/>
<rect width="2.4" height="2.4" transform="matrix(-1 0 0 1 33.6 19.2002)" fill="#044298"/>
<rect width="2.4" height="2.4" transform="matrix(-1 0 0 1 21.6 9.59961)" fill="#B75002"/>
<rect width="2.4" height="2.4" transform="matrix(-1 0 0 1 43.2 24)" fill="#044298"/>
<rect width="2.4" height="2.4" transform="matrix(-1 0 0 1 7.19995 7.2002)" fill="#B75002"/>
<rect width="2.4" height="2.4" transform="matrix(-1 0 0 1 28.8 21.5996)" fill="#044298"/>
<rect width="2.4" height="2.4" transform="matrix(-1 0 0 1 16.8 12)" fill="#B75002"/>
<rect width="2.4" height="2.4" transform="matrix(-1 0 0 1 38.4 26.4004)" fill="#044298"/>
<rect width="2.4" height="2.4" transform="matrix(-1 0 0 1 19.2 24)" fill="#B75002"/>
<rect width="2.4" height="2.4" transform="matrix(-1 0 0 1 40.8 38.4004)" fill="#044298"/>
<rect width="2.4" height="12" transform="matrix(-1 0 0 1 4.80005 12)" fill="#B75002"/>
<rect width="2.4" height="12" transform="matrix(-1 0 0 1 26.4 26.4004)" fill="#044298"/>
<rect width="2.4" height="14.4" transform="matrix(-1 0 0 1 16.8 14.4004)" fill="#B75002"/>
<rect width="2.4" height="14.4" transform="matrix(-1 0 0 1 38.4 28.7998)" fill="#044298"/>
<rect width="2.4" height="12" transform="matrix(-1 0 0 1 24 12)" fill="#B75002"/>
<rect width="2.4" height="12" transform="matrix(-1 0 0 1 45.6 26.4004)" fill="#044298"/>
<rect x="31.2" y="9.59961" width="4.8" height="4.8" fill="#FA500F"/>
<rect x="12" y="33.5996" width="4.8" height="4.8" fill="#FA500F"/>
</svg>
