<svg width="48" height="48" viewBox="0 0 48 48" fill="none" xmlns="http://www.w3.org/2000/svg">
<rect x="9.6" y="9.60059" width="24" height="28.8" fill="#B9DAFF"/>
<rect x="12" y="38.4004" width="2.4" height="4.8" transform="rotate(180 12 38.4004)" fill="#0082E6"/>
<rect x="12" y="33.6006" width="2.4" height="19.2" transform="rotate(180 12 33.6006)" fill="#0082E6"/>
<rect x="12" y="12" width="2.4" height="2.4" transform="rotate(180 12 12)" fill="#0082E6"/>
<rect x="19.2" y="14.4004" width="9.6" height="2.4" transform="rotate(180 19.2 14.4004)" fill="#0082E6"/>
<rect x="14.4" y="9.60059" width="2.4" height="2.4" transform="rotate(180 14.4 9.60059)" fill="#B9DAFF"/>
<rect x="16.8044" y="7.2002" width="2.4" height="2.4" transform="rotate(180 16.8044 7.2002)" fill="#B9DAFF"/>
<rect x="33.6044" y="9.60059" width="19.2" height="2.4" transform="rotate(180 33.6044 9.60059)" fill="#B9DAFF"/>
<rect x="33.6" y="7.2002" width="16.8" height="2.4" transform="rotate(180 33.6 7.2002)" fill="#B9DAFF"/>
<rect x="14.4044" y="9.60059" width="2.4" height="2.4" transform="rotate(180 14.4044 9.60059)" fill="#0082E6"/>
<rect x="14.4" y="12" width="2.4" height="2.4" transform="rotate(180 14.4 12)" fill="#B9DAFF"/>
<rect x="16.8" y="9.60059" width="2.4" height="2.4" transform="rotate(180 16.8 9.60059)" fill="#B9DAFF"/>
<rect x="16.8" y="12" width="2.4" height="2.4" transform="rotate(180 16.8 12)" fill="#B9DAFF"/>
<rect x="16.8044" y="7.2002" width="2.4" height="2.4" transform="rotate(180 16.8044 7.2002)" fill="#0082E6"/>
<rect x="19.2044" y="12" width="2.4" height="7.2" transform="rotate(180 19.2044 12)" fill="#0082E6"/>
<rect x="35.9748" y="38.4004" width="2.4" height="33.6" transform="rotate(180 35.9748 38.4004)" fill="#044298"/>
<rect x="33.5748" y="7.2002" width="14.3704" height="2.4" transform="rotate(180 33.5748 7.2002)" fill="#0082E6"/>
<rect x="33.6044" y="40.7998" width="24.0044" height="2.4" transform="rotate(180 33.6044 40.7998)" fill="#044298"/>
<rect x="31.2" y="36" width="16.7956" height="2.4" transform="rotate(180 31.2 36)" fill="#0082E6"/>
<rect x="31.2" y="31.2002" width="16.7956" height="2.4" transform="rotate(180 31.2 31.2002)" fill="#0082E6"/>
<rect x="31.2" y="26.4004" width="16.7956" height="2.4" transform="rotate(180 31.2 26.4004)" fill="#0082E6"/>
<rect x="31.2" y="21.6006" width="16.7956" height="2.4" transform="rotate(180 31.2 21.6006)" fill="#0082E6"/>
<rect x="31.2" y="16.7998" width="9.6" height="2.4" transform="rotate(180 31.2 16.7998)" fill="#0082E6"/>
<rect x="31.2" y="12" width="9.6" height="2.4" transform="rotate(180 31.2 12)" fill="#0082E6"/>
<rect x="26.283" y="16.7998" width="14.4" height="14.4" fill="#F5F4EF"/>
<g clip-path="url(#clip0_15981_6880)">
<path d="M35.9793 18.0566H34.3154V19.7205H35.9793V18.0566Z" fill="#FA500F"/>
<path d="M37.643 23.0483H34.3154V19.7207H32.6515V21.3846H30.9876V23.0483H29.3235V24.7123H32.6515V28.0402H30.9876V29.7041H32.6515V28.0402H34.3154V26.3765H35.9793V24.7123H37.643V23.0483Z" fill="#FA500F"/>
</g>
<rect x="40.8044" y="33.6006" width="14.4" height="2.4" transform="rotate(180 40.8044 33.6006)" fill="#FA500F"/>
<rect x="40.8044" y="31.2002" width="14.4" height="2.4" transform="rotate(-90 40.8044 31.2002)" fill="#FA500F"/>
<rect x="24.0044" y="31.2002" width="14.4" height="2.4" transform="rotate(-90 24.0044 31.2002)" fill="#FA500F"/>
<rect x="40.8044" y="16.7998" width="14.4" height="2.4" transform="rotate(180 40.8044 16.7998)" fill="#FA500F"/>
<defs>
<clipPath id="clip0_15981_6880">
<rect width="8.31953" height="11.6473" fill="white" transform="translate(29.3238 18.0566)"/>
</clipPath>
</defs>
</svg>
