<svg width="48" height="48" viewBox="0 0 48 48" fill="none" xmlns="http://www.w3.org/2000/svg">
<rect x="4.79999" y="43.2002" width="2.4" height="2.4" fill="#343446"/>
<rect x="2.40002" y="40.7998" width="2.4" height="2.4" fill="#343446"/>
<rect x="2.40002" y="38.3999" width="2.4" height="2.4" fill="#343446"/>
<rect x="4.79999" y="36" width="2.4" height="2.4" fill="#343446"/>
<rect x="7.20001" y="33.6001" width="2.4" height="2.4" fill="#343446"/>
<rect x="9.59998" y="31.2002" width="2.4" height="2.4" fill="#343446"/>
<rect x="12" y="28.7998" width="2.4" height="2.4" fill="#343446"/>
<rect x="14.4" y="26.3999" width="2.4" height="2.4" fill="#343446"/>
<rect x="16.8" y="24" width="2.4" height="2.4" fill="#343446"/>
<rect x="19.2" y="21.6001" width="2.4" height="2.4" fill="#343446"/>
<rect x="21.6" y="19.2002" width="2.4" height="2.4" fill="#343446"/>
<rect x="24" y="16.7998" width="2.4" height="2.4" fill="#343446"/>
<rect x="24" y="14.3999" width="2.4" height="2.4" fill="#343446"/>
<rect x="21.6" y="14.3999" width="2.4" height="2.4" fill="#343446"/>
<rect x="21.6" y="12" width="2.4" height="2.4" fill="#343446"/>
<rect x="24" y="9.6001" width="2.4" height="2.4" fill="#343446"/>
<rect x="21.6" y="7.2002" width="2.4" height="2.4" fill="#343446"/>
<rect x="19.2" y="7.2002" width="2.4" height="2.4" fill="#343446"/>
<rect x="16.8" y="4.7998" width="2.4" height="2.4" fill="#343446"/>
<rect x="19.2" y="4.7998" width="2.4" height="2.4" fill="#343446"/>
<rect x="21.6" y="2.3999" width="2.4" height="2.4" fill="#343446"/>
<rect x="21.6" y="4.7998" width="2.4" height="2.4" fill="#F5F4EF"/>
<rect x="24" y="4.7998" width="2.4" height="2.4" fill="#DCDCE8"/>
<rect x="24" y="7.2002" width="2.4" height="2.4" fill="#B8B8CC"/>
<rect x="26.4" y="7.2002" width="2.4" height="2.4" fill="#DCDCE8"/>
<rect x="26.4" y="9.6001" width="2.4" height="2.4" fill="#F5F4EF"/>
<rect x="28.8" y="9.6001" width="2.4" height="2.4" fill="#DCDCE8"/>
<rect x="26.4" y="12" width="2.4" height="2.4" fill="#F5F4EF"/>
<rect x="24" y="12" width="2.4" height="2.4" fill="#DCDCE8"/>
<rect x="28.8" y="12" width="2.4" height="2.4" fill="#B8B8CC"/>
<rect x="31.2" y="12" width="2.4" height="2.4" fill="#B8B8CC"/>
<rect x="26.4" y="14.3999" width="2.4" height="2.4" fill="#B8B8CC"/>
<rect x="28.8" y="14.3999" width="2.4" height="2.4" fill="#B8B8CC"/>
<rect x="31.2" y="14.3999" width="2.4" height="2.4" fill="#B8B8CC"/>
<rect x="33.6" y="14.3999" width="2.4" height="2.4" fill="#B8B8CC"/>
<rect x="26.4" y="16.7998" width="2.4" height="2.4" fill="#B8B8CC"/>
<rect x="28.8" y="16.7998" width="2.4" height="2.4" fill="#B8B8CC"/>
<rect x="31.2" y="16.7998" width="2.4" height="2.4" fill="#B8B8CC"/>
<rect x="33.6" y="16.7998" width="2.4" height="2.4" fill="#B8B8CC"/>
<rect x="36" y="16.7998" width="2.4" height="2.4" fill="#B8B8CC"/>
<rect x="36" y="21.6001" width="2.4" height="2.4" fill="#6F6F84"/>
<rect x="38.4" y="19.2002" width="2.4" height="2.4" fill="#B8B8CC"/>
<rect x="40.8" y="19.2002" width="2.4" height="2.4" fill="#6F6F84"/>
<rect x="26.4" y="19.2002" width="2.4" height="2.4" fill="#B8B8CC"/>
<rect x="24" y="19.2002" width="2.4" height="2.4" fill="#DCDCE8"/>
<rect x="21.6" y="21.6001" width="2.4" height="2.4" fill="#DCDCE8"/>
<rect x="19.2" y="24" width="2.4" height="2.4" fill="#B8B8CC"/>
<rect x="16.8" y="26.3999" width="2.4" height="2.4" fill="#B8B8CC"/>
<rect x="14.4" y="28.7998" width="2.4" height="2.4" fill="#B8B8CC"/>
<rect x="12" y="31.2002" width="2.4" height="2.4" fill="#B8B8CC"/>
<rect x="9.59998" y="33.6001" width="2.4" height="2.4" fill="#B8B8CC"/>
<rect x="7.20001" y="36" width="2.4" height="2.4" fill="#B8B8CC"/>
<rect x="4.79999" y="38.3999" width="2.4" height="2.4" fill="#B8B8CC"/>
<rect x="28.8" y="19.2002" width="2.4" height="2.4" fill="#6F6F84"/>
<rect x="31.2" y="19.2002" width="2.4" height="2.4" fill="#6F6F84"/>
<rect x="33.6" y="19.2002" width="2.4" height="2.4" fill="#6F6F84"/>
<rect x="36" y="19.2002" width="2.4" height="2.4" fill="#B8B8CC"/>
<rect x="36" y="24" width="2.4" height="2.4" fill="#6F6F84"/>
<rect x="38.4" y="21.6001" width="2.4" height="2.4" fill="#6F6F84"/>
<rect x="26.4" y="21.6001" width="2.4" height="2.4" fill="#6F6F84"/>
<rect x="24" y="21.6001" width="2.4" height="2.4" fill="#B8B8CC"/>
<rect x="24" y="24" width="2.4" height="2.4" fill="#6F6F84"/>
<rect x="21.6" y="24" width="2.4" height="2.4" fill="#B8B8CC"/>
<rect x="21.6" y="26.3999" width="2.4" height="2.4" fill="#6F6F84"/>
<rect x="19.2" y="28.7998" width="2.4" height="2.4" fill="#6F6F84"/>
<rect x="16.8" y="31.2002" width="2.4" height="2.4" fill="#6F6F84"/>
<rect x="14.4" y="33.6001" width="2.4" height="2.4" fill="#6F6F84"/>
<rect x="12" y="36" width="2.4" height="2.4" fill="#4D4D61"/>
<rect x="9.59998" y="38.3999" width="2.4" height="2.4" fill="#4D4D61"/>
<rect x="7.20001" y="40.7998" width="2.4" height="2.4" fill="#4D4D61"/>
<rect x="19.2" y="26.3999" width="2.4" height="2.4" fill="#B8B8CC"/>
<rect x="16.8" y="28.7998" width="2.4" height="2.4" fill="#B8B8CC"/>
<rect x="14.4" y="31.2002" width="2.4" height="2.4" fill="#B8B8CC"/>
<rect x="12" y="33.6001" width="2.4" height="2.4" fill="#B8B8CC"/>
<rect x="9.59998" y="36" width="2.4" height="2.4" fill="#B8B8CC"/>
<rect x="7.20001" y="38.3999" width="2.4" height="2.4" fill="#B8B8CC"/>
<rect x="4.79999" y="40.7998" width="2.4" height="2.4" fill="#4D4D61"/>
<rect x="24" y="2.3999" width="2.4" height="2.4" fill="#343446"/>
<rect x="26.4" y="4.7998" width="2.4" height="2.4" fill="#343446"/>
<rect x="28.8" y="7.2002" width="2.4" height="2.4" fill="#343446"/>
<rect x="31.2" y="9.6001" width="2.4" height="2.4" fill="#343446"/>
<rect x="33.6" y="12" width="2.4" height="2.4" fill="#343446"/>
<rect x="36" y="14.3999" width="2.4" height="2.4" fill="#343446"/>
<rect x="38.4" y="16.7998" width="2.4" height="2.4" fill="#343446"/>
<rect x="40.8" y="16.7998" width="2.4" height="2.4" fill="#343446"/>
<rect x="43.2" y="16.7998" width="2.4" height="2.4" fill="#343446"/>
<rect x="43.2" y="19.2002" width="2.4" height="2.4" fill="#343446"/>
<rect x="40.8" y="21.6001" width="2.4" height="2.4" fill="#343446"/>
<rect x="38.4" y="24" width="2.4" height="2.4" fill="#343446"/>
<rect x="36" y="26.3999" width="2.4" height="2.4" fill="#343446"/>
<rect x="33.6" y="26.3999" width="2.4" height="2.4" fill="#343446"/>
<rect x="33.6" y="24" width="2.4" height="2.4" fill="#343446"/>
<rect x="33.6" y="21.6001" width="2.4" height="2.4" fill="#343446"/>
<rect x="31.2" y="21.6001" width="2.4" height="2.4" fill="#343446"/>
<rect x="14.4" y="7.2002" width="2.4" height="2.4" fill="#343446"/>
<rect x="7.20001" y="43.2002" width="2.4" height="2.4" fill="#343446"/>
<rect x="9.59998" y="40.7998" width="2.4" height="2.4" fill="#343446"/>
<rect x="12" y="38.3999" width="2.4" height="2.4" fill="#343446"/>
<rect x="14.4" y="36" width="2.4" height="2.4" fill="#343446"/>
<rect x="16.8" y="33.6001" width="2.4" height="2.4" fill="#343446"/>
<rect x="19.2" y="31.2002" width="2.4" height="2.4" fill="#343446"/>
<rect x="21.6" y="28.7998" width="2.4" height="2.4" fill="#343446"/>
<rect x="24" y="26.3999" width="2.4" height="2.4" fill="#343446"/>
<rect x="26.4" y="24" width="2.4" height="2.4" fill="#343446"/>
<rect x="28.8" y="21.6001" width="2.4" height="2.4" fill="#343446"/>
</svg>
