<svg width="28" height="28" viewBox="0 0 28 28" fill="none" xmlns="http://www.w3.org/2000/svg">
<rect x="7" y="2.79999" width="18.2" height="16.8" fill="#B9DAFF"/>
<rect x="8.40002" y="4.19998" width="14" height="14" fill="#151524"/>
<rect x="8.40002" y="4.19998" width="1.4" height="14" fill="#242433"/>
<rect width="14" height="1.4" transform="matrix(1 0 0 -1 8.40002 21)" fill="#55B3FB"/>
<rect x="8.40002" y="21" width="1.4" height="1.4" transform="rotate(180 8.40002 21)" fill="#0082E6"/>
<rect width="18.2" height="4.2" transform="matrix(1 0 0 -1 8.40002 25.2)" fill="#B9DAFF"/>
<rect width="5.6" height="1.4" transform="matrix(1 0 0 -1 9.80005 23.8)" fill="#55B3FB"/>
<rect width="1.4" height="1.4" transform="matrix(1 0 0 -1 22.4 23.8)" fill="#55B3FB"/>
<rect x="12.6" y="7.69998" width="1.4" height="1.4" fill="#94EACC"/>
<rect x="18.2" y="7.69998" width="1.4" height="1.4" fill="#94EACC"/>
<rect x="15.4" y="11.9" width="1.4" height="1.4" fill="#94EACC"/>
<rect x="12.6" y="11.9" width="1.4" height="1.4" fill="#94EACC"/>
<rect x="18.2" y="11.9" width="1.4" height="1.4" fill="#94EACC"/>
<rect x="12.6" y="9.09998" width="2.80001" height="1.4" fill="#94EACC"/>
<rect x="11.2" y="13.3" width="4.20001" height="1.4" fill="#94EACC"/>
<rect x="16.8" y="13.3" width="4.20001" height="1.4" fill="#94EACC"/>
<rect x="12.6" y="10.5" width="7.00002" height="1.4" fill="#94EACC"/>
<rect x="16.8" y="9.09998" width="2.80001" height="1.4" fill="#94EACC"/>
<rect x="5.60004" y="5.59998" width="1.4" height="14" fill="#66331A"/>
<rect x="5.60004" y="4.19998" width="1.4" height="15.4" fill="#55B3FB"/>
<rect x="2.80005" y="21" width="5.6" height="4.2" fill="#55B3FB"/>
<rect x="1.40002" y="21" width="1.4" height="4.2" fill="#0082E6"/>
<rect x="4.20001" y="5.59998" width="1.4" height="14" fill="#55B3FB"/>
<rect x="2.80005" y="7" width="1.4" height="11.2" fill="#0082E6"/>
<rect x="1.40002" y="9.79999" width="1.4" height="5.6" fill="#0082E6"/>
<rect x="22.4" y="4.19998" width="1.4" height="14" fill="#242433"/>
</svg>
