<svg width="48" height="48" viewBox="0 0 48 48" fill="none" xmlns="http://www.w3.org/2000/svg">
<rect x="6" y="9.59998" width="14.4" height="7.2" fill="#B9DAFF"/>
<rect x="15.6" y="14.4" width="14.4" height="7.2" fill="#B9DAFF"/>
<rect x="15.6" y="4.80005" width="14.4" height="7.2" fill="#B9DAFF"/>
<rect x="25.2" y="9.59998" width="14.4" height="7.2" fill="#B9DAFF"/>
<rect x="6" y="16.8" width="7.2" height="10.8" fill="#B9DAFF"/>
<rect x="25.2" y="19.2" width="7.2" height="13.2" fill="#55B3FB"/>
<rect x="15.6" y="21.6" width="7.2" height="10.8" fill="#B9DAFF"/>
<rect x="34.8" y="14.4" width="7.2" height="12" fill="#55B3FB"/>
<rect x="6" y="27.6" width="7.2" height="10.8" fill="#B9DAFF"/>
<rect x="25.2" y="32.4" width="7.2" height="10.8" fill="#55B3FB"/>
<rect x="15.6" y="32.4" width="7.2" height="10.8" fill="#B9DAFF"/>
<rect x="34.8" y="26.4" width="7.2" height="12" fill="#55B3FB"/>
<rect width="2.4" height="2.4" transform="matrix(-1 0 0 1 22.8 2.40002)" fill="#044298"/>
<rect width="2.4" height="2.4" transform="matrix(-1 0 0 1 42 12)" fill="#044298"/>
<rect width="2.4" height="2.4" transform="matrix(-1 0 0 1 32.4 7.19995)" fill="#044298"/>
<rect width="2.4" height="2.4" transform="matrix(-1 0 0 1 42 24)" fill="#044298"/>
<rect x="22.8" y="45.6" width="2.4" height="2.4" transform="rotate(180 22.8 45.6)" fill="#044298"/>
<rect width="2.4" height="2.4" transform="matrix(1 0 0 -1 25.2 45.6)" fill="#044298"/>
<rect width="2.4" height="2.4" transform="matrix(-1 0 0 1 25.2 2.40002)" fill="#044298"/>
<rect width="2.4" height="2.4" transform="matrix(-1 0 0 1 44.4 12)" fill="#044298"/>
<rect width="2.4" height="2.4" transform="matrix(-1 0 0 1 34.8 7.19995)" fill="#044298"/>
<rect width="2.4" height="2.4" transform="matrix(-1 0 0 1 44.4 24)" fill="#044298"/>
<rect x="25.2" y="45.6" width="2.4" height="2.4" transform="rotate(180 25.2 45.6)" fill="#044298"/>
<rect width="2.4" height="2.4" transform="matrix(-1 0 0 1 20.4 4.80005)" fill="#044298"/>
<rect width="2.4" height="2.4" transform="matrix(-1 0 0 1 39.6 14.4)" fill="#044298"/>
<rect width="2.4" height="2.4" transform="matrix(-1 0 0 1 30 9.59998)" fill="#044298"/>
<rect width="2.4" height="2.4" transform="matrix(-1 0 0 1 39.6 26.4)" fill="#044298"/>
<rect x="20.4" y="43.2" width="2.4" height="2.4" transform="rotate(180 20.4 43.2)" fill="#044298"/>
<rect width="2.4" height="2.4" transform="matrix(1 0 0 -1 27.6 43.2)" fill="#044298"/>
<rect width="2.4" height="2.4" transform="matrix(-1 0 0 1 15.6 7.19995)" fill="#044298"/>
<rect width="2.4" height="2.4" transform="matrix(-1 0 0 1 34.8 16.8)" fill="#044298"/>
<rect width="2.4" height="2.4" transform="matrix(-1 0 0 1 25.2 12)" fill="#044298"/>
<rect width="2.4" height="2.4" transform="matrix(-1 0 0 1 34.8 28.8)" fill="#044298"/>
<rect width="2.4" height="2.4" transform="matrix(-1 0 0 1 18 9.59998)" fill="#044298"/>
<rect width="2.4" height="2.4" transform="matrix(-1 0 0 1 27.6 14.4)" fill="#044298"/>
<rect width="2.4" height="2.4" transform="matrix(-1 0 0 1 8.40002 14.4)" fill="#044298"/>
<rect width="2.4" height="2.4" transform="matrix(-1 0 0 1 25.2 2.40002)" fill="#044298"/>
<rect width="2.4" height="2.4" transform="matrix(-1 0 0 1 8.40002 25.2)" fill="#044298"/>
<rect width="2.4" height="2.4" transform="matrix(-1 0 0 1 18 19.2)" fill="#044298"/>
<rect width="2.4" height="2.4" transform="matrix(-1 0 0 1 34.8 7.19995)" fill="#044298"/>
<rect width="2.4" height="2.4" transform="matrix(-1 0 0 1 18 30)" fill="#044298"/>
<rect width="2.4" height="2.4" transform="matrix(-1 0 0 1 22.8 12)" fill="#044298"/>
<rect width="2.4" height="2.4" transform="matrix(-1 0 0 1 13.2 16.8)" fill="#044298"/>
<rect width="2.4" height="2.4" transform="matrix(-1 0 0 1 30 4.80005)" fill="#044298"/>
<rect width="2.4" height="2.4" transform="matrix(-1 0 0 1 13.2 27.6)" fill="#044298"/>
<rect width="2.4" height="2.4" transform="matrix(-1 0 0 1 22.8 21.6)" fill="#044298"/>
<rect width="2.4" height="2.4" transform="matrix(-1 0 0 1 39.6 9.59998)" fill="#044298"/>
<rect width="2.4" height="2.4" transform="matrix(-1 0 0 1 22.8 32.4)" fill="#044298"/>
<rect width="2.4" height="2.4" transform="matrix(-1 0 0 1 20.4 9.59998)" fill="#044298"/>
<rect width="2.4" height="2.4" transform="matrix(-1 0 0 1 30 14.4)" fill="#044298"/>
<rect width="2.4" height="2.4" transform="matrix(-1 0 0 1 10.8 14.4)" fill="#044298"/>
<rect width="2.4" height="2.4" transform="matrix(-1 0 0 1 27.6 2.40002)" fill="#044298"/>
<rect width="2.4" height="2.4" transform="matrix(-1 0 0 1 10.8 25.2)" fill="#044298"/>
<rect width="2.4" height="2.4" transform="matrix(-1 0 0 1 20.4 19.2)" fill="#044298"/>
<rect width="2.4" height="2.4" transform="matrix(-1 0 0 1 37.2 7.19995)" fill="#044298"/>
<rect width="2.4" height="2.4" transform="matrix(-1 0 0 1 20.4 30)" fill="#044298"/>
<rect width="2.4" height="2.4" transform="matrix(-1 0 0 1 25.2 12)" fill="#044298"/>
<rect width="2.4" height="2.4" transform="matrix(-1 0 0 1 15.6 16.8)" fill="#044298"/>
<rect width="2.4" height="2.4" transform="matrix(-1 0 0 1 32.4 4.80005)" fill="#044298"/>
<rect width="2.4" height="2.4" transform="matrix(-1 0 0 1 15.6 27.6)" fill="#044298"/>
<rect width="2.4" height="2.4" transform="matrix(-1 0 0 1 25.2 21.6)" fill="#044298"/>
<rect width="2.4" height="2.4" transform="matrix(-1 0 0 1 42 9.59998)" fill="#044298"/>
<rect width="2.4" height="2.4" transform="matrix(-1 0 0 1 25.2 32.4)" fill="#044298"/>
<rect x="15.6" y="40.8" width="2.4" height="2.4" transform="rotate(180 15.6 40.8)" fill="#044298"/>
<rect width="2.4" height="2.4" transform="matrix(1 0 0 -1 32.4 40.8)" fill="#044298"/>
<rect width="2.4" height="2.4" transform="matrix(-1 0 0 1 10.8 9.59998)" fill="#044298"/>
<rect width="2.4" height="2.4" transform="matrix(-1 0 0 1 30 19.2)" fill="#044298"/>
<rect width="2.4" height="2.4" transform="matrix(-1 0 0 1 20.4 14.4)" fill="#044298"/>
<rect width="2.4" height="2.4" transform="matrix(-1 0 0 1 30 31.2)" fill="#044298"/>
<rect x="10.8" y="38.4" width="2.4" height="2.4" transform="rotate(180 10.8 38.4)" fill="#044298"/>
<rect width="2.4" height="2.4" transform="matrix(1 0 0 -1 37.2 38.4)" fill="#044298"/>
<rect width="2.4" height="2.4" transform="matrix(-1 0 0 1 6 12)" fill="#044298"/>
<rect x="6" y="36" width="2.4" height="2.4" transform="rotate(180 6 36)" fill="#044298"/>
<rect width="2.4" height="2.4" transform="matrix(1 0 0 -1 42 36)" fill="#044298"/>
<rect width="2.4" height="2.4" transform="matrix(-1 0 0 1 18 4.80005)" fill="#044298"/>
<rect width="2.4" height="2.4" transform="matrix(-1 0 0 1 37.2 14.4)" fill="#044298"/>
<rect width="2.4" height="2.4" transform="matrix(-1 0 0 1 27.6 9.59998)" fill="#044298"/>
<rect width="2.4" height="2.4" transform="matrix(-1 0 0 1 37.2 26.4)" fill="#044298"/>
<rect x="18" y="43.2" width="2.4" height="2.4" transform="rotate(180 18 43.2)" fill="#044298"/>
<rect width="2.4" height="2.4" transform="matrix(1 0 0 -1 30 43.2)" fill="#044298"/>
<rect width="2.4" height="2.4" transform="matrix(-1 0 0 1 13.2 7.19995)" fill="#044298"/>
<rect width="2.4" height="2.4" transform="matrix(-1 0 0 1 32.4 16.8)" fill="#044298"/>
<rect width="2.4" height="2.4" transform="matrix(-1 0 0 1 22.8 12)" fill="#044298"/>
<rect width="2.4" height="2.4" transform="matrix(-1 0 0 1 32.4 28.8)" fill="#044298"/>
<rect x="13.2" y="40.8" width="2.4" height="2.4" transform="rotate(180 13.2 40.8)" fill="#044298"/>
<rect width="2.4" height="2.4" transform="matrix(1 0 0 -1 34.8 40.8)" fill="#044298"/>
<rect width="2.4" height="2.4" transform="matrix(-1 0 0 1 8.40002 9.59998)" fill="#044298"/>
<rect width="2.4" height="2.4" transform="matrix(-1 0 0 1 27.6 19.2)" fill="#044298"/>
<rect width="2.4" height="2.4" transform="matrix(-1 0 0 1 18 14.4)" fill="#044298"/>
<rect width="2.4" height="2.4" transform="matrix(-1 0 0 1 27.6 31.2)" fill="#044298"/>
<rect x="8.40002" y="38.4" width="2.4" height="2.4" transform="rotate(180 8.40002 38.4)" fill="#044298"/>
<rect width="2.4" height="2.4" transform="matrix(1 0 0 -1 39.6 38.4)" fill="#044298"/>
<rect width="2.4" height="19.2" transform="matrix(-1 0 0 1 6 14.4)" fill="#044298"/>
<rect width="2.4" height="19.2" transform="matrix(-1 0 0 1 25.2 24)" fill="#044298"/>
<rect width="2.4" height="19.2" transform="matrix(-1 0 0 1 15.6 19.2)" fill="#044298"/>
<rect width="2.4" height="19.2" transform="matrix(-1 0 0 1 34.8 19.2)" fill="#044298"/>
<rect width="2.4" height="19.2" transform="matrix(-1 0 0 1 44.4 14.4)" fill="#044298"/>
<rect x="1.2" y="9.59998" width="4.8" height="4.8" fill="#FA500F"/>
<rect x="1.2" y="33.6" width="4.8" height="4.8" fill="#FA500F"/>
<rect x="42" y="9.59998" width="4.8" height="4.8" fill="#FA500F"/>
<rect x="42" y="33.6" width="4.8" height="4.8" fill="#FA500F"/>
<rect x="20.4" y="43.2" width="4.8" height="4.8" fill="#FA500F"/>
<rect x="20.4" width="4.8" height="4.8" fill="#FA500F"/>
<rect x="20.4" y="19.2" width="4.8" height="4.8" fill="#FA500F"/>
</svg>
