<svg width="64" height="64" viewBox="0 0 64 64" fill="none" xmlns="http://www.w3.org/2000/svg">
<rect x="12.7998" y="25.6001" width="38.4" height="3.2" fill="#FF8204"/>
<rect x="9.6001" y="28.7998" width="44.8" height="25.6" fill="#FFAF01"/>
<path d="M12.8001 28.7998H9.6001V54.3998H12.8001V28.7998Z" fill="#FF8204"/>
<path d="M54.4002 28.7998H51.2002V54.3998H54.4002V28.7998Z" fill="#B75002"/>
<path d="M51.2002 57.5999L51.2002 54.3999L12.8002 54.3999L12.8002 57.5999L51.2002 57.5999Z" fill="#B75002"/>
<path d="M41.6001 12.8001L41.6001 9.6001L22.4001 9.6001L22.4001 12.8001L41.6001 12.8001Z" fill="#B9DAFF"/>
<path d="M41.6001 9.5999L41.6001 6.3999L22.4001 6.3999L22.4001 9.5999L41.6001 9.5999Z" fill="#55B3FB"/>
<path d="M41.6001 15.9998L41.6001 12.7998L22.4001 12.7998L22.4001 15.9998L41.6001 15.9998Z" fill="#044298"/>
<path d="M22.4002 12.7998H19.2002V22.3998H22.4002V12.7998Z" fill="#B9DAFF"/>
<path d="M19.2 12.7998H16V25.5998H19.2V12.7998Z" fill="#55B3FB"/>
<path d="M47.9998 12.7998H44.7998V25.5998H47.9998V12.7998Z" fill="#044298"/>
<path d="M41.5999 16H38.3999V25.6H41.5999V16Z" fill="#044298"/>
<path d="M25.5999 16H22.3999V25.6H25.5999V16Z" fill="#044298"/>
<path d="M44.8001 12.7998H41.6001V22.3998H44.8001V12.7998Z" fill="#B9DAFF"/>
<rect x="48" y="25.6001" width="3.2" height="28.8" fill="#FA500F"/>
<rect x="12.7998" y="28.7998" width="3.2" height="25.6" fill="#FEC63A"/>
<rect x="44.7998" y="28.7998" width="3.2" height="25.6" fill="#FF8204"/>
<rect x="16" y="51.2002" width="28.8" height="3.2" fill="#FF8204"/>
<rect x="44.7998" y="28.7998" width="3.2" height="32" transform="rotate(90 44.7998 28.7998)" fill="#FEC63A"/>
<path d="M22.4002 9.6001H19.2002V12.8001H22.4002V9.6001Z" fill="#55B3FB"/>
<path d="M22.4002 19.2002H19.2002V25.6002H22.4002V19.2002Z" fill="#B9DAFF"/>
<path d="M44.8001 9.6001H41.6001V12.8001H44.8001V9.6001Z" fill="#044298"/>
<path d="M44.8001 19.2002H41.6001V25.6002H44.8001V19.2002Z" fill="#B9DAFF"/>
<rect x="12.7998" y="28.7998" width="3.2" height="3.2" fill="#F5F4EF"/>
<rect x="28.7998" y="35.2002" width="6.4" height="12.8" fill="#933800"/>
</svg>
