<svg width="64" height="64" viewBox="0 0 64 64" fill="none" xmlns="http://www.w3.org/2000/svg">
<path d="M30.4 8H27.2V11.2H30.4V8Z" fill="#FF8204"/>
<path d="M33.6 8H30.4V11.2H33.6V8Z" fill="#FF8204"/>
<path d="M36.8 8H33.6V11.2H36.8V8Z" fill="#FF8204"/>
<path d="M17.6 20.7998H14.4V23.9998H17.6V20.7998Z" fill="#933800"/>
<path d="M17.6 24H14.4V27.2H17.6V24Z" fill="#933800"/>
<path d="M17.6 27.2002H14.4V30.4002H17.6V27.2002Z" fill="#933800"/>
<path d="M17.6 30.4004H14.4V33.6004H17.6V30.4004Z" fill="#933800"/>
<path d="M49.6 20.7998H46.4V23.9998H49.6V20.7998Z" fill="#933800"/>
<path d="M49.6 24H46.4V27.2H49.6V24Z" fill="#933800"/>
<path d="M49.6 27.2002H46.4V30.4002H49.6V27.2002Z" fill="#933800"/>
<path d="M49.6 30.4004H46.4V33.6004H49.6V30.4004Z" fill="#933800"/>
<path d="M27.2 40H24V43.2H27.2V40Z" fill="#044298"/>
<path d="M30.4 40H27.2V43.2H30.4V40Z" fill="#044298"/>
<path d="M36.8 40H33.6V43.2H36.8V40Z" fill="#044298"/>
<path d="M40 40H36.8V43.2H40V40Z" fill="#044298"/>
<path d="M27.2 36.7998H24V39.9998H27.2V36.7998Z" fill="#FF8204"/>
<path d="M30.4 36.7998H27.2V39.9998H30.4V36.7998Z" fill="#FF8204"/>
<path d="M33.6 36.7998H30.4V39.9998H33.6V36.7998Z" fill="#FF8204"/>
<path d="M36.8 36.7998H33.6V39.9998H36.8V36.7998Z" fill="#FF8204"/>
<path d="M40 36.7998H36.8V39.9998H40V36.7998Z" fill="#FF8204"/>
<path d="M43.2 33.5996H40V36.7996H43.2V33.5996Z" fill="#FA500F"/>
<path d="M46.4 30.4004H43.2V33.6004H46.4V30.4004Z" fill="#FFAF01"/>
<path d="M30.4 33.5996H27.2V36.7996H30.4V33.5996Z" fill="#FA500F"/>
<path d="M27.2 33.5996H24V36.7996H27.2V33.5996Z" fill="#FA500F"/>
<path d="M33.6 33.5996H30.4V36.7996H33.6V33.5996Z" fill="#FEC63A"/>
<path d="M36.8 33.5996H33.6V36.7996H36.8V33.5996Z" fill="#FA500F"/>
<path d="M40 33.5996H36.8V36.7996H40V33.5996Z" fill="#FA500F"/>
<path d="M33.6 30.4004H30.4V33.6004H33.6V30.4004Z" fill="#FA500F"/>
<path d="M30.4 30.4004H27.2V33.6004H30.4V30.4004Z" fill="#FEC63A"/>
<path d="M36.8 30.4004H33.6V33.6004H36.8V30.4004Z" fill="#FEC63A"/>
<path d="M43.2 30.4004H40V33.6004H43.2V30.4004Z" fill="#FEC63A"/>
<path d="M46.4 27.2002H43.2V30.4002H46.4V27.2002Z" fill="#FEC63A"/>
<path d="M46.4 24H43.2V27.2H46.4V24Z" fill="#FEC63A"/>
<path d="M46.4 20.7998H43.2V23.9998H46.4V20.7998Z" fill="#FEC63A"/>
<path d="M43.2 20.7998H40V23.9998H43.2V20.7998Z" fill="#FEC63A"/>
<path d="M40 20.7998H36.8V23.9998H40V20.7998Z" fill="#FA500F"/>
<path d="M43.2 17.5996H40V20.7996H43.2V17.5996Z" fill="#FEC63A"/>
<path d="M33.6 11.2002H30.4V14.4002H33.6V11.2002Z" fill="#FBD679"/>
<path d="M36.8 11.2002H33.6V14.4002H36.8V11.2002Z" fill="#FBD679"/>
<path d="M33.6 14.4004H30.4V17.6004H33.6V14.4004Z" fill="#FEC63A"/>
<path d="M27.2 14.4004H24V17.6004H27.2V14.4004Z" fill="#FBD679"/>
<path d="M24 17.5996H20.8V20.7996H24V17.5996Z" fill="#FBD679"/>
<path d="M20.8 30.4004H17.6V33.6004H20.8V30.4004Z" fill="#FBD679"/>
<path d="M20.8 27.2002H17.6V30.4002H20.8V27.2002Z" fill="#FBD679"/>
<path d="M20.8 24H17.6V27.2H20.8V24Z" fill="#FBD679"/>
<path d="M20.8 20.7998H17.6V23.9998H20.8V20.7998Z" fill="#FBD679"/>
<path d="M24 14.4004H20.8V17.6004H24V14.4004Z" fill="#FBD679"/>
<path d="M30.4 11.2002H27.2V14.4002H30.4V11.2002Z" fill="#FBD679"/>
<path d="M40 14.4004H36.8V17.6004H40V14.4004Z" fill="#FEC63A"/>
<path d="M43.2 14.4004H40V17.6004H43.2V14.4004Z" fill="#FEC63A"/>
<path d="M43.2 24H40V27.2H43.2V24Z" fill="#FEC63A"/>
<path d="M43.2 36.7998H40V39.9998H43.2V36.7998Z" fill="#933800"/>
<path d="M24 36.7998H20.8V39.9998H24V36.7998Z" fill="#933800"/>
<path d="M24 27.2002H20.8V30.4002H24V27.2002Z" fill="#FEC63A"/>
<path d="M40 17.5996H36.8V20.7996H40V17.5996Z" fill="#FEC63A"/>
<path d="M36.8 20.7998H33.6V23.9998H36.8V20.7998Z" fill="#FEC63A"/>
<path d="M30.4 24H27.2V27.2H30.4V24Z" fill="#FA500F"/>
<path d="M33.6 27.2002H30.4V30.4002H33.6V27.2002Z" fill="#FA500F"/>
<path d="M36.8 17.5996H33.6V20.7996H36.8V17.5996Z" fill="#FEC63A"/>
<path d="M36.8 14.4004H33.6V17.6004H36.8V14.4004Z" fill="#FEC63A"/>
<path d="M30.4 20.7998H27.2V23.9998H30.4V20.7998Z" fill="#FEC63A"/>
<path d="M30.4 17.5996H27.2V20.7996H30.4V17.5996Z" fill="#FEC63A"/>
<path d="M30.4 14.4004H27.2V17.6004H30.4V14.4004Z" fill="#FEC63A"/>
<path d="M40 11.2002H36.8V14.4002H40V11.2002Z" fill="#FF8204"/>
<path d="M43.2 11.2002H40V14.4002H43.2V11.2002Z" fill="#FF8204"/>
<path d="M27.2 11.2002H24V14.4002H27.2V11.2002Z" fill="#FF8204"/>
<path d="M24 11.2002H20.8V14.4002H24V11.2002Z" fill="#FF8204"/>
<path d="M46.4 14.4004H43.2V17.6004H46.4V14.4004Z" fill="#B75002"/>
<path d="M46.4 17.5996H43.2V20.7996H46.4V17.5996Z" fill="#B75002"/>
<path d="M46.4 33.5996H43.2V36.7996H46.4V33.5996Z" fill="#933800"/>
<path d="M43.2 27.2002H40V30.4002H43.2V27.2002Z" fill="#FEC63A"/>
<path d="M40 30.4004H36.8V33.6004H40V30.4004Z" fill="#FA500F"/>
<path d="M40 27.2002H36.8V30.4002H40V27.2002Z" fill="#FA500F"/>
<path d="M40 24H36.8V27.2H40V24Z" fill="#FA500F"/>
<path d="M36.8 27.2002H33.6V30.4002H36.8V27.2002Z" fill="#FA500F"/>
<path d="M33.6 40H30.4V43.2H33.6V40Z" fill="#044298"/>
<path d="M36.8 24H33.6V27.2H36.8V24Z" fill="#FA500F"/>
<path d="M33.6 20.7998H30.4V23.9998H33.6V20.7998Z" fill="#FEC63A"/>
<path d="M33.6 17.5996H30.4V20.7996H33.6V17.5996Z" fill="#FEC63A"/>
<path d="M27.2 17.5996H24V20.7996H27.2V17.5996Z" fill="#FEC63A"/>
<path d="M24 33.5996H20.8V36.7996H24V33.5996Z" fill="#FA500F"/>
<path d="M27.2 30.4004H24V33.6004H27.2V30.4004Z" fill="#FA500F"/>
<path d="M30.4 27.2002H27.2V30.4002H30.4V27.2002Z" fill="#FA500F"/>
<path d="M27.2 27.2002H24V30.4002H27.2V27.2002Z" fill="#FA500F"/>
<path d="M27.2 24H24V27.2H27.2V24Z" fill="#FA500F"/>
<path d="M27.2 20.7998H24V23.9998H27.2V20.7998Z" fill="#FA500F"/>
<path d="M33.6 24H30.4V27.2H33.6V24Z" fill="#FEC63A"/>
<path d="M24 20.7998H20.8V23.9998H24V20.7998Z" fill="#FEC63A"/>
<path d="M24 30.4004H20.8V33.6004H24V30.4004Z" fill="#FEC63A"/>
<path d="M24 24H20.8V27.2H24V24Z" fill="#FEC63A"/>
<path d="M20.8 14.4004H17.6V17.6004H20.8V14.4004Z" fill="#B75002"/>
<path d="M20.8 17.5996H17.6V20.7996H20.8V17.5996Z" fill="#B75002"/>
<path d="M20.8 33.5996H17.6V36.7996H20.8V33.5996Z" fill="#933800"/>
<path d="M30.4 43.2002H27.2V46.4002H30.4V43.2002Z" fill="#B9DAFF"/>
<path d="M33.6 43.2002H30.4V46.4002H33.6V43.2002Z" fill="#B9DAFF"/>
<path d="M36.8 43.2002H33.6V46.4002H36.8V43.2002Z" fill="#55B3FB"/>
<path d="M27.2 43.2002H24V46.4002H27.2V43.2002Z" fill="#044298"/>
<path d="M33.6 46.4004H30.4V49.6004H33.6V46.4004Z" fill="#044298"/>
<path d="M36.8 46.4004H33.6V49.6004H36.8V46.4004Z" fill="#044298"/>
<path d="M33.6 49.5996H30.4V52.7996H33.6V49.5996Z" fill="#55B3FB"/>
<path d="M27.2 49.5996H24V52.7996H27.2V49.5996Z" fill="#044298"/>
<path d="M30.4 46.4004H27.2V49.6004H30.4V46.4004Z" fill="#044298"/>
<path d="M40 49.5996H36.8V52.7996H40V49.5996Z" fill="#044298"/>
<path d="M40 43.2002H36.8V46.4002H40V43.2002Z" fill="#044298"/>
<path d="M36.8 52.7998H33.6V55.9998H36.8V52.7998Z" fill="#044298"/>
<path d="M36.8 49.5996H33.6V52.7996H36.8V49.5996Z" fill="#044298"/>
<path d="M30.4 52.7998H27.2V55.9998H30.4V52.7998Z" fill="#044298"/>
<path d="M30.4 49.5996H27.2V52.7996H30.4V49.5996Z" fill="#B9DAFF"/>
<path d="M40 46.4004H36.8V49.6004H40V46.4004Z" fill="#044298"/>
<path d="M27.2 46.4004H24V49.6004H27.2V46.4004Z" fill="#044298"/>
<path d="M33.6 52.7998H30.4V55.9998H33.6V52.7998Z" fill="#044298"/>
</svg>
