<svg width="28" height="28" viewBox="0 0 28 28" fill="none" xmlns="http://www.w3.org/2000/svg">
<rect x="5.60001" y="4.19995" width="16.8" height="14" fill="#FFCC9A"/>
<rect x="7" y="5.6001" width="14" height="11.2" fill="#151524"/>
<rect width="14" height="1.4" transform="matrix(1 0 0 -1 7 19.6001)" fill="#B75002"/>
<rect width="16.8" height="4.2" transform="matrix(1 0 0 -1 5.60001 23.8)" fill="#FFCC9A"/>
<rect width="5.6" height="1.4" transform="matrix(1 0 0 -1 7 22.3999)" fill="#B75002"/>
<rect width="1.4" height="1.4" transform="matrix(1 0 0 -1 19.6 22.3999)" fill="#B75002"/>
<rect x="10.5" y="7.69995" width="1.4" height="1.4" fill="#FEC63A"/>
<rect x="16.1" y="7.69995" width="1.4" height="1.4" fill="#FEC63A"/>
<rect x="13.3" y="11.8999" width="1.4" height="1.4" fill="#FA500F"/>
<rect x="10.5" y="11.8999" width="1.4" height="1.4" fill="#FA500F"/>
<rect x="16.1" y="11.8999" width="1.4" height="1.4" fill="#FA500F"/>
<rect x="10.5" y="9.09985" width="2.8" height="1.4" fill="#FFAF01"/>
<rect x="9.10001" y="13.3" width="4.2" height="1.4" fill="#E61300"/>
<rect x="14.7" y="13.3" width="4.2" height="1.4" fill="#E61300"/>
<rect x="10.5" y="10.5" width="7" height="1.4" fill="#FF8204"/>
<rect x="14.7" y="9.09985" width="2.8" height="1.4" fill="#FFAF01"/>
</svg>
