<svg width="34" height="36" viewBox="0 0 34 36" fill="none" xmlns="http://www.w3.org/2000/svg">
<rect width="33.6" height="9.6" fill="#B9DAFF"/>
<rect x="2.40015" y="9.6001" width="28.8" height="2.4" fill="#044298"/>
<rect x="31.2" width="2.4" height="9.6" fill="#044298"/>
<rect width="26.4" height="2.4" transform="matrix(1 0 0 -1 2.40015 4.2002)" fill="#55B3FB"/>
<rect width="26.4" height="2.4" transform="matrix(1 0 0 -1 2.40015 7.7998)" fill="#55B3FB"/>
<rect x="12" y="1.7998" width="2.4" height="4.8" transform="rotate(90 12 1.7998)" fill="#FEC63A"/>
<rect x="24" y="1.7998" width="2.4" height="2.4" transform="rotate(90 24 1.7998)" fill="#FA500F"/>
<rect x="16.8" y="5.3999" width="2.4" height="2.4" transform="rotate(90 16.8 5.3999)" fill="#FF8204"/>
<rect x="7.19995" y="5.3999" width="2.4" height="2.4" transform="rotate(90 7.19995 5.3999)" fill="#044298"/>
<rect x="26.4001" y="5.3999" width="2.4" height="2.4" transform="rotate(90 26.4001 5.3999)" fill="#044298"/>
<rect y="12" width="33.6" height="9.6" fill="#B9DAFF"/>
<rect y="24" width="33.6" height="9.6" fill="#B9DAFF"/>
<rect x="2.40015" y="21.6001" width="28.8" height="2.4" fill="#044298"/>
<rect x="2.40015" y="33.6001" width="28.8" height="2.4" fill="#044298"/>
<rect x="31.2" y="12" width="2.4" height="9.6" fill="#044298"/>
<rect x="31.2" y="24" width="2.4" height="9.6" fill="#044298"/>
<rect width="26.4" height="2.4" transform="matrix(1 0 0 -1 2.40015 16.2002)" fill="#55B3FB"/>
<rect width="26.4" height="2.4" transform="matrix(1 0 0 -1 2.40015 28.2002)" fill="#55B3FB"/>
<rect width="26.4" height="2.4" transform="matrix(1 0 0 -1 2.40015 19.7998)" fill="#55B3FB"/>
<rect width="26.4" height="2.4" transform="matrix(1 0 0 -1 2.40015 31.7998)" fill="#55B3FB"/>
<rect x="9.6001" y="29.3999" width="2.4" height="2.4" transform="rotate(90 9.6001 29.3999)" fill="#FA500F"/>
<rect x="12" y="13.7998" width="2.4" height="4.8" transform="rotate(90 12 13.7998)" fill="#044298"/>
<rect x="16.8" y="29.3999" width="2.4" height="4.8" transform="rotate(90 16.8 29.3999)" fill="#044298"/>
<rect x="19.2" y="13.7998" width="2.4" height="2.4" transform="rotate(90 19.2 13.7998)" fill="#FA500F"/>
<rect x="19.2" y="25.7998" width="2.4" height="2.4" transform="rotate(90 19.2 25.7998)" fill="#FEC63A"/>
<rect x="7.19995" y="17.3999" width="2.4" height="2.4" transform="rotate(90 7.19995 17.3999)" fill="#FEC63A"/>
<rect x="9.6001" y="25.7998" width="2.4" height="4.8" transform="rotate(90 9.6001 25.7998)" fill="#044298"/>
<rect x="26.4001" y="17.3999" width="2.4" height="2.4" transform="rotate(90 26.4001 17.3999)" fill="#FEC63A"/>
<rect x="26.4001" y="29.3999" width="2.4" height="2.4" transform="rotate(90 26.4001 29.3999)" fill="#FEC63A"/>
<rect x="21.6001" y="13.7998" width="2.4" height="2.4" transform="rotate(90 21.6001 13.7998)" fill="#044298"/>
<rect x="24" y="29.3999" width="2.4" height="2.4" transform="rotate(90 24 29.3999)" fill="#044298"/>
</svg>
