<svg width="48" height="48" viewBox="0 0 48 48" fill="none" xmlns="http://www.w3.org/2000/svg">
<rect x="21.6" y="43.2002" width="2.4" height="2.4" fill="#044298"/>
<rect x="19.2" y="40.7998" width="2.4" height="2.4" fill="#044298"/>
<rect width="2.4" height="2.4" transform="matrix(-1 0 0 1 28.8 40.7998)" fill="#044298"/>
<rect x="16.8" y="38.3999" width="2.4" height="2.4" fill="#044298"/>
<rect width="2.4" height="2.4" transform="matrix(-1 0 0 1 31.2 38.3999)" fill="#044298"/>
<rect x="14.4" y="36" width="2.4" height="2.4" fill="#044298"/>
<rect width="2.4" height="2.4" transform="matrix(-1 0 0 1 33.6 36)" fill="#044298"/>
<rect x="12" y="33.6001" width="2.4" height="2.4" fill="#044298"/>
<rect width="2.4" height="2.4" transform="matrix(-1 0 0 1 36 33.6001)" fill="#044298"/>
<rect x="9.59998" y="31.2002" width="2.4" height="2.4" fill="#044298"/>
<rect width="2.4" height="2.4" transform="matrix(-1 0 0 1 38.4 31.2002)" fill="#044298"/>
<path d="M9.59998 28.7998H12V31.1998H9.59998V28.7998Z" fill="#B9DAFF"/>
<path d="M38.4 28.7998H36V31.1998H38.4V28.7998Z" fill="#55B3FB"/>
<rect x="7.20001" y="26.3999" width="2.4" height="2.4" fill="#044298"/>
<rect x="7.20001" y="28.7998" width="2.4" height="2.4" fill="#044298"/>
<rect width="2.4" height="2.4" transform="matrix(-1 0 0 1 40.8 26.3999)" fill="#044298"/>
<rect width="2.4" height="2.4" transform="matrix(-1 0 0 1 40.8 28.7998)" fill="#044298"/>
<rect x="7.20001" y="24" width="2.4" height="2.4" fill="#044298"/>
<rect width="2.4" height="2.4" transform="matrix(-1 0 0 1 40.8 24)" fill="#044298"/>
<rect x="7.20001" y="21.6001" width="2.4" height="2.4" fill="#044298"/>
<rect width="2.4" height="2.4" transform="matrix(-1 0 0 1 40.8 21.6001)" fill="#044298"/>
<rect x="7.20001" y="19.2002" width="2.4" height="2.4" fill="#044298"/>
<rect width="2.4" height="2.4" transform="matrix(-1 0 0 1 40.8 19.2002)" fill="#044298"/>
<rect x="7.20001" y="16.7998" width="2.4" height="2.4" fill="#044298"/>
<rect width="2.4" height="2.4" transform="matrix(-1 0 0 1 40.8 16.7998)" fill="#044298"/>
<rect x="7.20001" y="14.3999" width="2.4" height="2.4" fill="#044298"/>
<rect width="2.4" height="2.4" transform="matrix(-1 0 0 1 40.8 14.3999)" fill="#044298"/>
<rect x="7.20001" y="12" width="2.4" height="2.4" fill="#044298"/>
<rect width="2.4" height="2.4" transform="matrix(-1 0 0 1 40.8 12)" fill="#044298"/>
<rect x="7.20001" y="9.6001" width="2.4" height="2.4" fill="#044298"/>
<rect width="2.4" height="2.4" transform="matrix(-1 0 0 1 40.8 9.6001)" fill="#044298"/>
<rect x="7.20001" y="7.2002" width="2.4" height="2.4" fill="#044298"/>
<rect width="2.4" height="2.4" transform="matrix(-1 0 0 1 40.8 7.2002)" fill="#044298"/>
<rect x="9.59998" y="7.2002" width="2.4" height="2.4" fill="#044298"/>
<rect x="9.59998" y="9.6001" width="2.4" height="2.4" fill="#DCDCE8"/>
<rect x="9.59998" y="12" width="2.4" height="2.4" fill="#B9DAFF"/>
<rect x="9.59998" y="14.3999" width="2.4" height="2.4" fill="#B9DAFF"/>
<rect x="9.59998" y="16.7998" width="2.4" height="2.4" fill="#B9DAFF"/>
<rect x="9.59998" y="19.2002" width="2.4" height="2.4" fill="#B9DAFF"/>
<rect x="9.59998" y="21.6001" width="2.4" height="2.4" fill="#B9DAFF"/>
<rect x="9.59998" y="24" width="2.4" height="2.4" fill="#B9DAFF"/>
<rect x="9.59998" y="26.3999" width="2.4" height="2.4" fill="#B9DAFF"/>
<rect x="12" y="9.6001" width="2.4" height="2.4" fill="#F0F0F5"/>
<rect x="12" y="12" width="2.4" height="2.4" fill="#FA500F"/>
<rect x="12" y="14.3999" width="2.4" height="2.4" fill="#FA500F"/>
<rect x="12" y="16.7998" width="2.4" height="2.4" fill="#FA500F"/>
<rect x="12" y="19.2002" width="2.4" height="2.4" fill="#FA500F"/>
<rect x="12" y="21.6001" width="2.4" height="2.4" fill="#FA500F"/>
<rect x="12" y="24" width="2.4" height="2.4" fill="#FA500F"/>
<rect x="12" y="26.3999" width="2.4" height="2.4" fill="#FA500F"/>
<path d="M12 28.7998H14.4V31.1998H12V28.7998Z" fill="#B9DAFF"/>
<rect x="12" y="31.2002" width="2.4" height="2.4" fill="#55B3FB"/>
<rect x="14.4" y="9.6001" width="2.4" height="2.4" fill="#F0F0F5"/>
<rect x="14.4" y="12" width="2.4" height="2.4" fill="#FA500F"/>
<path d="M14.4 14.3999H16.8V16.7999H14.4V14.3999Z" fill="#FBD679"/>
<path d="M14.4 16.7998H16.8V19.1998H14.4V16.7998Z" fill="#FBD679"/>
<path d="M14.4 19.2002H16.8V21.6002H14.4V19.2002Z" fill="#FBD679"/>
<path d="M14.4 21.6001H16.8V24.0001H14.4V21.6001Z" fill="#FBD679"/>
<path d="M14.4 24H16.8V26.4H14.4V24Z" fill="#FBD679"/>
<path d="M14.4 26.3999H16.8V28.7999H14.4V26.3999Z" fill="#FEC63A"/>
<path d="M14.4 28.7998H16.8V31.1998H14.4V28.7998Z" fill="#FA500F"/>
<path d="M14.4 31.2002H16.8V33.6002H14.4V31.2002Z" fill="#B9DAFF"/>
<rect x="14.4" y="33.6001" width="2.4" height="2.4" fill="#55B3FB"/>
<rect x="16.8" y="9.6001" width="2.4" height="2.4" fill="white"/>
<rect x="16.8" y="7.2002" width="2.4" height="2.4" fill="white"/>
<path d="M28.8 7.2002H31.2V9.6002H28.8V7.2002Z" fill="#B9DAFF"/>
<rect x="16.8" y="12" width="2.4" height="2.4" fill="#FA500F"/>
<path d="M16.8 14.3999H19.2V16.7999H16.8V14.3999Z" fill="#FBD679"/>
<rect x="16.8" y="16.7998" width="2.4" height="2.4" fill="#FBD679"/>
<rect x="16.8" y="19.2002" width="2.4" height="2.4" fill="#FBD679"/>
<path d="M16.8 21.6001H19.2V24.0001H16.8V21.6001Z" fill="#FA500F"/>
<rect x="16.8" y="24" width="2.4" height="2.4" fill="#FEC63A"/>
<rect x="16.8" y="26.3999" width="2.4" height="2.4" fill="#FEC63A"/>
<rect x="16.8" y="28.7998" width="2.4" height="2.4" fill="#FEC63A"/>
<path d="M16.8 31.2002H19.2V33.6002H16.8V31.2002Z" fill="#FA500F"/>
<path d="M16.8 33.6001H19.2V36.0001H16.8V33.6001Z" fill="#B9DAFF"/>
<rect x="16.8" y="36" width="2.4" height="2.4" fill="#55B3FB"/>
<rect x="19.2" y="9.6001" width="2.4" height="2.4" fill="#FA500F"/>
<rect x="19.2" y="7.2002" width="2.4" height="2.4" fill="white"/>
<path d="M19.2 12H21.6V14.4H19.2V12Z" fill="#FBD679"/>
<path d="M19.2 14.3999H21.6V16.7999H19.2V14.3999Z" fill="#FBD679"/>
<rect x="19.2" y="16.7998" width="2.4" height="2.4" fill="#FBD679"/>
<rect x="19.2" y="19.2002" width="2.4" height="2.4" fill="#FEC63A"/>
<rect x="19.2" y="21.6001" width="2.4" height="2.4" fill="#FFAF01"/>
<path d="M19.2 24H21.6V26.4H19.2V24Z" fill="#FA500F"/>
<rect x="19.2" y="26.3999" width="2.4" height="2.4" fill="#FFAF01"/>
<rect x="19.2" y="28.7998" width="2.4" height="2.4" fill="#FEC63A"/>
<rect x="19.2" y="31.2002" width="2.4" height="2.4" fill="#FEC63A"/>
<path d="M19.2 33.6001H21.6V36.0001H19.2V33.6001Z" fill="#FA500F"/>
<path d="M19.2 36H21.6V38.4H19.2V36Z" fill="#B9DAFF"/>
<path d="M19.2 38.3999H21.6V40.7999H19.2V38.3999Z" fill="#B9DAFF"/>
<rect x="21.6" y="9.6001" width="2.4" height="2.4" fill="#FA500F"/>
<rect x="21.6" y="7.2002" width="2.4" height="2.4" fill="#DCDCE8"/>
<path d="M21.6 12H24V14.4H21.6V12Z" fill="#FBD679"/>
<rect x="21.6" y="14.3999" width="2.4" height="2.4" fill="#FBD679"/>
<rect x="21.6" y="16.7998" width="2.4" height="2.4" fill="#FEC63A"/>
<rect x="21.6" y="19.2002" width="2.4" height="2.4" fill="#FFAF01"/>
<rect x="21.6" y="21.6001" width="2.4" height="2.4" fill="#FFAF01"/>
<rect x="21.6" y="24" width="2.4" height="2.4" fill="#FFAF01"/>
<path d="M21.6 26.3999H24V28.7999H21.6V26.3999Z" fill="#FA500F"/>
<rect x="21.6" y="28.7998" width="2.4" height="2.4" fill="#FFAF01"/>
<rect x="21.6" y="31.2002" width="2.4" height="2.4" fill="#FEC63A"/>
<rect x="21.6" y="33.6001" width="2.4" height="2.4" fill="#FEC63A"/>
<path d="M21.6 36H24V38.4H21.6V36Z" fill="#FA500F"/>
<path d="M21.6 38.3999H24V40.7999H21.6V38.3999Z" fill="#B9DAFF"/>
<path d="M21.6 40.7998H24V43.1998H21.6V40.7998Z" fill="#55B3FB"/>
<rect x="24" y="9.6001" width="2.4" height="2.4" fill="#FA500F"/>
<rect x="24" y="7.2002" width="2.4" height="2.4" fill="#DCDCE8"/>
<path d="M24 12H26.4V14.4H24V12Z" fill="#FBD679"/>
<rect x="24" y="14.3999" width="2.4" height="2.4" fill="#FEC63A"/>
<rect x="24" y="16.7998" width="2.4" height="2.4" fill="#FFAF01"/>
<rect x="24" y="19.2002" width="2.4" height="2.4" fill="#FFAF01"/>
<rect x="24" y="21.6001" width="2.4" height="2.4" fill="#FFAF01"/>
<path d="M24 24H26.4V26.4H24V24Z" fill="#FA500F"/>
<rect x="24" y="26.3999" width="2.4" height="2.4" fill="#FFAF01"/>
<rect x="24" y="28.7998" width="2.4" height="2.4" fill="#FFAF01"/>
<rect x="24" y="31.2002" width="2.4" height="2.4" fill="#FFAF01"/>
<rect x="24" y="33.6001" width="2.4" height="2.4" fill="#FFAF01"/>
<path d="M24 36H26.4V38.4H24V36Z" fill="#FA500F"/>
<path d="M24 38.3999H26.4V40.7999H24V38.3999Z" fill="#B9DAFF"/>
<path d="M24 40.7998H26.4V43.1998H24V40.7998Z" fill="#55B3FB"/>
<rect x="26.4" y="9.6001" width="2.4" height="2.4" fill="#FA500F"/>
<rect x="26.4" y="7.2002" width="2.4" height="2.4" fill="#B9DAFF"/>
<path d="M26.4 12H28.8V14.4H26.4V12Z" fill="#FFAF01"/>
<path d="M26.4 14.3999H28.8V16.7999H26.4V14.3999Z" fill="#FFAF01"/>
<rect x="26.4" y="16.7998" width="2.4" height="2.4" fill="#FFAF01"/>
<rect x="26.4" y="19.2002" width="2.4" height="2.4" fill="#FFAF01"/>
<path d="M26.4 21.6001H28.8V24.0001H26.4V21.6001Z" fill="#FA500F"/>
<rect x="26.4" y="24" width="2.4" height="2.4" fill="#FFAF01"/>
<rect x="26.4" y="26.3999" width="2.4" height="2.4" fill="#FFAF01"/>
<rect x="26.4" y="28.7998" width="2.4" height="2.4" fill="#FFAF01"/>
<rect x="26.4" y="31.2002" width="2.4" height="2.4" fill="#FFAF01"/>
<path d="M26.4 33.6001H28.8V36.0001H26.4V33.6001Z" fill="#FA500F"/>
<path d="M26.4 36H28.8V38.4H26.4V36Z" fill="#B9DAFF"/>
<path d="M26.4 38.3999H28.8V40.7999H26.4V38.3999Z" fill="#55B3FB"/>
<rect x="28.8" y="9.6001" width="2.4" height="2.4" fill="#B9DAFF"/>
<rect x="28.8" y="12" width="2.4" height="2.4" fill="#FA500F"/>
<path d="M28.8 14.3999H31.2V16.7999H28.8V14.3999Z" fill="#FFAF01"/>
<rect x="28.8" y="16.7998" width="2.4" height="2.4" fill="#FFAF01"/>
<path d="M28.8 19.2002H31.2V21.6002H28.8V19.2002Z" fill="#FA500F"/>
<rect x="28.8" y="21.6001" width="2.4" height="2.4" fill="#FFAF01"/>
<rect x="28.8" y="24" width="2.4" height="2.4" fill="#FFAF01"/>
<rect x="28.8" y="26.3999" width="2.4" height="2.4" fill="#FFAF01"/>
<rect x="28.8" y="28.7998" width="2.4" height="2.4" fill="#FFAF01"/>
<path d="M28.8 31.2002H31.2V33.6002H28.8V31.2002Z" fill="#FA500F"/>
<path d="M28.8 33.6001H31.2V36.0001H28.8V33.6001Z" fill="#B9DAFF"/>
<path d="M28.8 36H31.2V38.4H28.8V36Z" fill="#55B3FB"/>
<rect x="31.2" y="9.6001" width="2.4" height="2.4" fill="#B9DAFF"/>
<rect x="31.2" y="12" width="2.4" height="2.4" fill="#FA500F"/>
<path d="M31.2 14.3999H33.6V16.7999H31.2V14.3999Z" fill="#FFAF01"/>
<path d="M31.2 16.7998H33.6V19.1998H31.2V16.7998Z" fill="#FFAF01"/>
<path d="M31.2 19.2002H33.6V21.6002H31.2V19.2002Z" fill="#FFAF01"/>
<path d="M31.2 21.6001H33.6V24.0001H31.2V21.6001Z" fill="#FFAF01"/>
<path d="M31.2 24H33.6V26.4H31.2V24Z" fill="#FFAF01"/>
<path d="M31.2 26.3999H33.6V28.7999H31.2V26.3999Z" fill="#FFAF01"/>
<path d="M31.2 28.7998H33.6V31.1998H31.2V28.7998Z" fill="#FA500F"/>
<path d="M31.2 31.2002H33.6V33.6002H31.2V31.2002Z" fill="#B9DAFF"/>
<path d="M31.2 33.6001H33.6V36.0001H31.2V33.6001Z" fill="#55B3FB"/>
<rect x="33.6" y="9.6001" width="2.4" height="2.4" fill="#B9DAFF"/>
<rect x="33.6" y="12" width="2.4" height="2.4" fill="#FA500F"/>
<rect x="33.6" y="14.3999" width="2.4" height="2.4" fill="#FA500F"/>
<rect x="33.6" y="16.7998" width="2.4" height="2.4" fill="#FA500F"/>
<rect x="33.6" y="19.2002" width="2.4" height="2.4" fill="#FA500F"/>
<rect x="33.6" y="21.6001" width="2.4" height="2.4" fill="#FA500F"/>
<rect x="33.6" y="24" width="2.4" height="2.4" fill="#FA500F"/>
<rect x="33.6" y="26.3999" width="2.4" height="2.4" fill="#FA500F"/>
<path d="M33.6 28.7998H36V31.1998H33.6V28.7998Z" fill="#B9DAFF"/>
<path d="M33.6 31.2002H36V33.6002H33.6V31.2002Z" fill="#55B3FB"/>
<path d="M36 9.6001H38.4V12.0001H36V9.6001Z" fill="#55B3FB"/>
<rect x="36" y="12" width="2.4" height="2.4" fill="#55B3FB"/>
<rect x="36" y="14.3999" width="2.4" height="2.4" fill="#55B3FB"/>
<rect x="36" y="16.7998" width="2.4" height="2.4" fill="#55B3FB"/>
<rect x="36" y="19.2002" width="2.4" height="2.4" fill="#55B3FB"/>
<rect x="36" y="21.6001" width="2.4" height="2.4" fill="#55B3FB"/>
<rect x="36" y="24" width="2.4" height="2.4" fill="#55B3FB"/>
<path d="M36 26.3999H38.4V28.7999H36V26.3999Z" fill="#55B3FB"/>
<rect width="2.4" height="2.4" transform="matrix(-1 0 0 1 38.4 7.2002)" fill="#044298"/>
<rect x="12" y="7.2002" width="2.4" height="2.4" fill="#044298"/>
<rect width="2.4" height="2.4" transform="matrix(-1 0 0 1 36 7.2002)" fill="#044298"/>
<rect x="14.4" y="7.2002" width="2.4" height="2.4" fill="#044298"/>
<rect width="2.4" height="2.4" transform="matrix(-1 0 0 1 33.6 7.2002)" fill="#044298"/>
<rect x="16.8" y="4.7998" width="2.4" height="2.4" fill="#044298"/>
<rect width="2.4" height="2.4" transform="matrix(-1 0 0 1 31.2 4.7998)" fill="#044298"/>
<rect x="19.2" y="4.7998" width="2.4" height="2.4" fill="#044298"/>
<rect width="2.4" height="2.4" transform="matrix(-1 0 0 1 28.8 4.7998)" fill="#044298"/>
<rect x="21.6" y="4.7998" width="2.4" height="2.4" fill="#044298"/>
<rect x="24" y="4.7998" width="2.4" height="2.4" fill="#044298"/>
<rect x="24" y="43.2002" width="2.4" height="2.4" fill="#044298"/>
</svg>
