<svg width="64" height="64" viewBox="0 0 64 64" fill="none" xmlns="http://www.w3.org/2000/svg">
<rect x="12.8" y="12.8" width="3.2" height="3.2" fill="#044298"/>
<rect x="16" y="12.8" width="3.2" height="3.2" fill="#044298"/>
<rect x="19.2" y="12.8" width="3.2" height="3.2" fill="#55B3FB"/>
<rect x="16" y="9.6001" width="3.2" height="3.2" fill="#044298"/>
<rect x="19.2" y="9.6001" width="3.2" height="3.2" fill="#044298"/>
<rect x="22.4" y="9.6001" width="3.2" height="3.2" fill="#55B3FB"/>
<rect x="19.2" y="6.3999" width="3.2" height="3.2" fill="#044298"/>
<rect x="22.4" y="6.3999" width="3.2" height="3.2" fill="#044298"/>
<rect x="25.6" y="9.6001" width="22.4" height="3.2" fill="#044298"/>
<rect x="25.6" y="35.2" width="22.4" height="3.2" fill="#044298"/>
<rect x="22.4" y="12.8" width="28.8" height="22.4" fill="#044298"/>
<rect x="25.6" y="6.3999" width="3.2" height="3.2" fill="#55B3FB"/>
<rect x="28.8" y="6.3999" width="3.2" height="3.2" fill="#55B3FB"/>
<rect x="32" y="6.3999" width="3.2" height="3.2" fill="#55B3FB"/>
<rect x="35.2" y="6.3999" width="3.2" height="3.2" fill="#55B3FB"/>
<rect x="38.4" y="6.3999" width="3.2" height="3.2" fill="#55B3FB"/>
<rect x="41.6" y="6.3999" width="3.2" height="3.2" fill="#55B3FB"/>
<rect x="44.8" y="6.3999" width="3.2" height="3.2" fill="#55B3FB"/>
<rect x="48" y="9.6001" width="3.2" height="3.2" fill="#55B3FB"/>
<rect x="51.2" y="12.8" width="3.2" height="3.2" fill="#55B3FB"/>
<rect x="51.2" y="16" width="3.2" height="3.2" fill="#55B3FB"/>
<rect x="51.2" y="19.2" width="3.2" height="3.2" fill="#55B3FB"/>
<rect x="51.2" y="22.3999" width="3.2" height="3.2" fill="#55B3FB"/>
<rect x="51.2" y="25.6001" width="3.2" height="3.2" fill="#55B3FB"/>
<rect x="51.2" y="28.8" width="3.2" height="3.2" fill="#55B3FB"/>
<rect x="51.2" y="32" width="3.2" height="3.2" fill="#55B3FB"/>
<rect x="48" y="35.2" width="3.2" height="3.2" fill="#55B3FB"/>
<rect x="12.8" y="16" width="3.2" height="3.2" fill="#044298"/>
<rect x="16" y="16" width="3.2" height="3.2" fill="#044298"/>
<rect x="19.2" y="16" width="3.2" height="3.2" fill="#55B3FB"/>
<rect x="12.8" y="19.2" width="3.2" height="3.2" fill="#044298"/>
<rect x="16" y="19.2" width="3.2" height="3.2" fill="#044298"/>
<rect x="19.2" y="19.2" width="3.2" height="3.2" fill="#55B3FB"/>
<rect x="12.8" y="22.3999" width="3.2" height="3.2" fill="#044298"/>
<rect x="16" y="22.3999" width="3.2" height="3.2" fill="#044298"/>
<rect x="19.2" y="22.3999" width="3.2" height="3.2" fill="#55B3FB"/>
<rect x="12.8" y="25.6001" width="3.2" height="3.2" fill="#044298"/>
<rect x="16" y="25.6001" width="3.2" height="3.2" fill="#044298"/>
<rect x="19.2" y="25.6001" width="3.2" height="3.2" fill="#55B3FB"/>
<rect x="12.8" y="28.8" width="3.2" height="3.2" fill="#044298"/>
<rect x="16" y="28.8" width="3.2" height="3.2" fill="#044298"/>
<rect x="19.2" y="28.8" width="3.2" height="3.2" fill="#55B3FB"/>
<rect x="12.8" y="32" width="3.2" height="3.2" fill="#044298"/>
<rect x="16" y="32" width="3.2" height="3.2" fill="#044298"/>
<rect x="19.2" y="32" width="3.2" height="3.2" fill="#55B3FB"/>
<rect x="16" y="35.2" width="3.2" height="3.2" fill="#044298"/>
<rect x="19.2" y="35.2" width="3.2" height="3.2" fill="#044298"/>
<rect x="22.4" y="35.2" width="3.2" height="3.2" fill="#55B3FB"/>
<rect x="19.2" y="38.3999" width="3.2" height="3.2" fill="#044298"/>
<rect x="22.4" y="38.3999" width="3.2" height="3.2" fill="#044298"/>
<rect x="25.6" y="38.3999" width="3.2" height="3.2" fill="#55B3FB"/>
<rect x="28.8" y="38.3999" width="3.2" height="3.2" fill="#55B3FB"/>
<rect x="32" y="38.3999" width="3.2" height="3.2" fill="#55B3FB"/>
<rect x="35.2" y="38.3999" width="3.2" height="3.2" fill="#55B3FB"/>
<rect x="38.4" y="38.3999" width="3.2" height="3.2" fill="#55B3FB"/>
<rect x="41.6" y="38.3999" width="3.2" height="3.2" fill="#55B3FB"/>
<rect x="44.8" y="38.3999" width="3.2" height="3.2" fill="#55B3FB"/>
<rect x="28.8" y="41.6001" width="9.6" height="3.2" fill="#044298"/>
<rect x="28.8" y="44.8" width="9.6" height="12.8" fill="#FFAF01"/>
<rect x="35.2" y="44.8" width="3.2" height="12.8" fill="#FEC63A"/>
<rect x="28.8" y="44.8" width="3.2" height="12.8" fill="#FA500F"/>
<rect x="28.8" y="19.2" width="12.826" height="12.8" fill="#F5F4EF"/>
<rect x="28.8" y="19.2" width="12.826" height="12.8" fill="#55B3FB"/>
<rect width="3.2" height="6.4" transform="matrix(-1 0 0 1 28.8 22.3999)" fill="#55B3FB"/>
<rect width="3.2" height="6.4" transform="matrix(-1 0 0 1 44.8 22.3999)" fill="#55B3FB"/>
<rect width="3.2" height="6.4" transform="matrix(1.19249e-08 -1 -1 -1.19249e-08 38.4 19.2)" fill="#55B3FB"/>
<rect width="3.2" height="6.4" transform="matrix(1.19249e-08 -1 -1 -1.19249e-08 38.4 35.2)" fill="#55B3FB"/>
<rect x="28.8" y="57.6001" width="9.6" height="3.26258" fill="#933800"/>
<rect x="40" y="14.3999" width="6.4" height="6.4" fill="#F5F4EF"/>
<rect x="28.8" y="28.8" width="3.2" height="3.2" fill="#B9DAFF"/>
<rect x="32" y="28.8" width="3.2" height="3.2" fill="#B9DAFF"/>
<rect x="28.8" y="25.6001" width="3.2" height="3.2" fill="#B9DAFF"/>
</svg>
