<svg width="64" height="64" viewBox="0 0 64 64" fill="none" xmlns="http://www.w3.org/2000/svg">
<rect x="6.40002" y="51.2002" width="48" height="3.2" fill="#044298"/>
<rect x="12.8" y="48" width="38.4" height="3.2" fill="#044298"/>
<rect x="16" y="44.7998" width="35.2" height="3.2" fill="#044298"/>
<rect x="16" y="41.5996" width="28.8" height="3.2" fill="#044298"/>
<rect x="22.4" y="38.4004" width="22.4" height="3.2" fill="#044298"/>
<rect x="6.40002" y="51.2002" width="3.2" height="3.2" fill="#044298"/>
<rect x="9.59998" y="48" width="3.2" height="3.2" fill="#0082E6"/>
<rect x="12.8" y="44.7998" width="3.2" height="3.2" fill="#0082E6"/>
<rect x="6.40002" y="48" width="3.2" height="3.2" fill="#0082E6"/>
<rect x="9.59998" y="44.7998" width="3.2" height="3.2" fill="#0082E6"/>
<rect x="9.59998" y="41.5996" width="3.2" height="3.2" fill="#0082E6"/>
<rect x="12.8" y="38.4004" width="3.2" height="3.2" fill="#0082E6"/>
<rect x="12.8" y="41.5996" width="3.2" height="3.2" fill="#0082E6"/>
<rect x="12.8" y="35.2002" width="3.2" height="3.2" fill="#0082E6"/>
<rect x="16" y="32" width="3.2" height="3.2" fill="#0082E6"/>
<rect x="16" y="28.7998" width="3.2" height="3.2" fill="#0082E6"/>
<rect x="19.2" y="25.5996" width="3.2" height="3.2" fill="#0082E6"/>
<rect x="22.4" y="25.5996" width="3.2" height="3.2" fill="#F5F4EF"/>
<rect x="25.6" y="25.5996" width="3.2" height="3.2" fill="#0082E6"/>
<rect x="22.4" y="28.7998" width="3.2" height="3.2" fill="#0082E6"/>
<rect x="22.4" y="32" width="3.2" height="3.2" fill="#0082E6"/>
<rect x="19.2" y="35.2002" width="3.2" height="3.2" fill="#044298"/>
<rect x="25.6" y="28.7998" width="3.2" height="3.2" fill="#0082E6"/>
<rect x="25.6" y="32" width="3.2" height="3.2" fill="#0082E6"/>
<rect x="28.8" y="32" width="3.2" height="3.2" fill="#0082E6"/>
<rect x="28.8" y="28.7998" width="3.2" height="3.2" fill="#0082E6"/>
<rect x="28.8" y="25.5996" width="3.2" height="3.2" fill="#0082E6"/>
<rect x="32" y="28.7998" width="3.2" height="6.4" fill="#0082E6"/>
<rect x="32" y="32" width="3.2" height="3.2" fill="#044298"/>
<rect x="35.2" y="32" width="3.2" height="3.2" fill="#044298"/>
<rect x="38.4" y="25.5996" width="3.2" height="12.8" fill="#044298"/>
<rect x="41.6" y="25.5996" width="3.2" height="12.8" fill="#044298"/>
<rect x="44.8" y="32" width="3.2" height="9.6" fill="#044298"/>
<rect x="48" y="38.4004" width="3.2" height="6.4" fill="#044298"/>
<rect x="51.2" y="44.7998" width="3.2" height="6.4" fill="#044298"/>
<rect x="19.2" y="28.7998" width="3.2" height="9.6" fill="#0082E6"/>
<rect x="19.2" y="35.2002" width="3.2" height="3.2" fill="#0082E6"/>
<rect x="16" y="35.2002" width="3.2" height="6.4" fill="#0082E6"/>
<rect x="16" y="38.4004" width="3.2" height="3.2" fill="#0082E6"/>
<rect x="12.8" y="41.5996" width="3.2" height="3.2" fill="#0082E6"/>
<rect x="19.2" y="22.4004" width="3.2" height="3.2" fill="#0082E6"/>
<rect x="22.4" y="19.2002" width="3.2" height="3.2" fill="#55B3FB"/>
<rect x="28.8" y="9.59961" width="3.2" height="3.2" fill="#55B3FB"/>
<rect x="35.2" y="16" width="3.2" height="3.2" fill="#55B3FB"/>
<rect x="38.4" y="19.2002" width="3.2" height="3.2" fill="#55B3FB"/>
<rect x="35.2" y="19.2002" width="3.2" height="3.2" fill="#55B3FB"/>
<rect x="38.4" y="22.4004" width="3.2" height="3.2" fill="#044298"/>
<rect x="35.2" y="22.4004" width="3.2" height="3.2" fill="#55B3FB"/>
<rect x="35.2" y="25.5996" width="3.2" height="3.2" fill="#55B3FB"/>
<rect x="32" y="16" width="3.2" height="3.2" fill="#55B3FB"/>
<rect x="28.8" y="19.2002" width="3.2" height="3.2" fill="#F5F4EF"/>
<rect x="28.8" y="22.4004" width="3.2" height="3.2" fill="#55B3FB"/>
<rect x="32" y="25.5996" width="3.2" height="3.2" fill="#55B3FB"/>
<rect x="54.4" y="48" width="3.2" height="3.2" fill="#044298"/>
<rect x="51.2" y="48" width="3.2" height="3.2" fill="#044298"/>
<rect x="57.6" y="51.2002" width="3.2" height="3.2" fill="#044298"/>
<rect x="54.4" y="51.2002" width="3.2" height="3.2" fill="#044298"/>
<rect x="3.20001" y="51.2002" width="3.2" height="3.2" fill="#044298"/>
<rect x="16" y="41.5996" width="3.2" height="3.2" fill="#0082E6"/>
<rect x="44.8" y="41.5996" width="3.2" height="3.2" fill="#044298"/>
<rect x="48" y="44.7998" width="3.2" height="3.2" fill="#044298"/>
<rect x="48" y="48" width="3.2" height="3.2" fill="#044298"/>
<rect x="44.8" y="48" width="3.2" height="3.2" fill="#044298"/>
<rect x="51.2" y="51.2002" width="3.2" height="3.2" fill="#044298"/>
<rect x="19.2" y="44.7998" width="3.2" height="3.2" fill="#0082E6"/>
<rect x="22.4" y="44.7998" width="3.2" height="3.2" fill="#0082E6"/>
<rect x="16" y="48" width="6.4" height="3.2" fill="#0082E6"/>
<rect x="19.2" y="38.4004" width="3.2" height="3.2" fill="#0082E6"/>
<rect x="22.4" y="38.4004" width="9.6" height="3.2" fill="#0082E6"/>
<rect x="28.8" y="35.2002" width="6.4" height="3.2" fill="#0082E6"/>
<rect x="19.2" y="41.5996" width="9.6" height="3.2" fill="#0082E6"/>
<rect x="16" y="44.7998" width="3.2" height="3.2" fill="#0082E6"/>
<rect x="12.8" y="48" width="3.2" height="3.2" fill="#0082E6"/>
<rect x="9.59998" y="51.2002" width="12.8" height="3.2" fill="#044298"/>
<rect x="22.4" y="35.2002" width="6.4" height="3.2" fill="#0082E6"/>
<rect x="35.2" y="38.4004" width="9.6" height="3.2" fill="#044298"/>
<rect x="41.6" y="38.4004" width="3.2" height="3.2" fill="#044298"/>
<rect x="28.8" y="12.7998" width="3.2" height="6.4" fill="#F5F4EF"/>
<rect x="25.6" y="16" width="3.2" height="9.6" fill="#F5F4EF"/>
<rect x="22.4" y="22.4004" width="3.2" height="3.2" fill="#F5F4EF"/>
<rect x="32" y="12.7998" width="3.2" height="3.2" fill="#F5F4EF"/>
<rect x="25.6" y="25.5996" width="3.2" height="3.2" fill="#F5F4EF"/>
<rect x="22.4" y="28.7998" width="3.2" height="3.2" fill="#F5F4EF"/>
<rect x="25.6" y="32" width="3.2" height="3.2" fill="#0082E6"/>
<rect x="32" y="19.2002" width="3.2" height="3.2" fill="#F5F4EF"/>
<rect x="32" y="22.4004" width="3.2" height="3.2" fill="#F5F4EF"/>
<rect x="35.2" y="28.7998" width="3.2" height="3.2" fill="#55B3FB"/>
<rect x="32" y="25.5996" width="3.2" height="3.2" fill="#55B3FB"/>
<rect x="38.4" y="28.7998" width="3.2" height="3.2" fill="#55B3FB"/>
<rect x="19.2" y="28.7998" width="3.2" height="3.2" fill="#55B3FB"/>
<rect x="25.6" y="16" width="3.2" height="3.2" fill="#55B3FB"/>
<rect x="25.6" y="12.7998" width="3.2" height="3.2" fill="#55B3FB"/>
<rect x="32" y="12.7998" width="3.2" height="3.2" fill="#55B3FB"/>
<rect x="22.4" y="35.2002" width="3.2" height="3.2" fill="#94EACC"/>
<rect x="35.2" y="35.2002" width="3.2" height="3.2" fill="#94EACC"/>
<rect x="28.8" y="44.7998" width="3.2" height="3.2" fill="#94EACC"/>
<rect x="22.4" y="44.7998" width="3.2" height="3.2" fill="#94EACC"/>
<rect x="35.2" y="44.7998" width="3.2" height="3.2" fill="#94EACC"/>
<rect x="22.4" y="38.4004" width="6.4" height="3.2" fill="#94EACC"/>
<rect x="19.2" y="48" width="9.6" height="3.2" fill="#94EACC"/>
<rect x="32" y="48" width="9.6" height="3.2" fill="#94EACC"/>
<rect x="22.4" y="41.6006" width="16" height="3.2" fill="#94EACC"/>
<rect x="32" y="38.4004" width="6.4" height="3.2" fill="#94EACC"/>
<rect x="51.2" y="44.7998" width="3.2" height="3.2" fill="#044298"/>
<rect x="48" y="44.7998" width="3.2" height="3.2" fill="#044298"/>
<rect x="48" y="41.5996" width="3.2" height="3.2" fill="#044298"/>
<rect x="48" y="38.4004" width="3.2" height="3.2" fill="#044298"/>
<rect x="44.8" y="38.4004" width="3.2" height="3.2" fill="#044298"/>
<rect x="44.8" y="35.2002" width="3.2" height="3.2" fill="#044298"/>
<rect x="41.6" y="35.2002" width="3.2" height="3.2" fill="#044298"/>
<rect x="44.8" y="32" width="3.2" height="3.2" fill="#044298"/>
<rect x="32" y="35.2002" width="3.2" height="3.2" fill="#044298"/>
<rect x="32" y="28.7998" width="3.2" height="3.2" fill="#044298"/>
</svg>
