<svg width="56" height="56" viewBox="0 0 56 56" fill="none" xmlns="http://www.w3.org/2000/svg">
<path d="M8.40002 47.5996H14V53.1996H8.40002V47.5996Z" fill="#044298"/>
<path d="M14 44.7998H16.8V47.5998H14V44.7998Z" fill="#044298"/>
<path d="M16.8 44.7998H19.6V47.5998H16.8V44.7998Z" fill="#044298"/>
<path d="M5.59998 14H8.39998V16.8H5.59998V14Z" fill="#C4001D"/>
<path d="M50.4 14H47.6V16.8H50.4V14Z" fill="#C4001D"/>
<path d="M8.40002 14H11.2V16.8H8.40002V14Z" fill="#C4001D"/>
<path d="M47.6 14H44.8V16.8H47.6V14Z" fill="#C4001D"/>
<path d="M11.2 14H14V16.8H11.2V14Z" fill="#C4001D"/>
<path d="M44.8 14H42V16.8H44.8V14Z" fill="#C4001D"/>
<path d="M19.6 42H22.4V44.8H19.6V42Z" fill="#044298"/>
<path d="M22.4 42H25.2V44.8H22.4V42Z" fill="#044298"/>
<path d="M25.2 39.2002H28V42.0002H25.2V39.2002Z" fill="#044298"/>
<path d="M30.8 42H33.6V44.8H30.8V42Z" fill="#044298"/>
<path d="M28 39.2002H30.8V42.0002H28V39.2002Z" fill="#044298"/>
<path d="M33.6 42H36.4V44.8H33.6V42Z" fill="#044298"/>
<path d="M39.2 44.7998H42V47.5998H39.2V44.7998Z" fill="#044298"/>
<path d="M36.4 44.7998H39.2V47.5998H36.4V44.7998Z" fill="#044298"/>
<path d="M26.6 44.7998H29.4V47.5998H26.6V44.7998Z" fill="#044298"/>
<path d="M26.6 42H29.4V44.8H26.6V42Z" fill="#044298"/>
<path d="M26.6 36.4004H29.4V39.2004H26.6V36.4004Z" fill="#044298"/>
<path d="M22.4 33.5996H33.6V36.3996H22.4V33.5996Z" fill="#044298"/>
<path d="M23.8 47.5996H32.2V53.1996H23.8V47.5996Z" fill="#044298"/>
<path d="M42 47.5996H47.6V53.1996H42V47.5996Z" fill="#044298"/>
<path d="M16.8 30.7998H39.2V33.5998H16.8V30.7998Z" fill="#C4001D"/>
<path d="M8.40002 28H16.8V30.8H8.40002V28Z" fill="#C4001D"/>
<path d="M39.2 28H47.6V30.8H39.2V28Z" fill="#C4001D"/>
<path d="M14 2.7998H42V5.5998H14V2.7998Z" fill="#C4001D"/>
<path d="M5.59998 22.4004H8.39998V28.0004H5.59998V22.4004Z" fill="#C4001D"/>
<path d="M50.4 22.4004H47.6V28.0004H50.4V22.4004Z" fill="#C4001D"/>
<path d="M14 22.4004H16.8V28.0004H14V22.4004Z" fill="#C4001D"/>
<path d="M42 22.4004H39.2V28.0004H42V22.4004Z" fill="#C4001D"/>
<path d="M11.2 5.59961H14V22.3996H11.2V5.59961Z" fill="#C4001D"/>
<path d="M44.8 5.59961H42V22.3996H44.8V5.59961Z" fill="#C4001D"/>
<path d="M2.79999 16.7998H5.59999V22.3998H2.79999V16.7998Z" fill="#C4001D"/>
<path d="M53.2 16.7998H50.4V22.3998H53.2V16.7998Z" fill="#C4001D"/>
<path d="M16.8 22.4004H39.2V25.2004H16.8V22.4004Z" fill="#C4001D"/>
<path d="M16.8 28H39.2V30.8H16.8V28Z" fill="#E61300"/>
<path d="M14 19.5996H42V22.3996H14V19.5996Z" fill="#E61300"/>
<path d="M14 5.59961H42V8.39961H14V5.59961Z" fill="#E61300"/>
<path d="M14 5.59961H16.8V19.5996H14V5.59961Z" fill="#E61300"/>
<path d="M39.2 5.59961H42V19.5996H39.2V5.59961Z" fill="#E61300"/>
<path d="M16.8 25.2002H39.2V28.0002H16.8V25.2002Z" fill="#FA500F"/>
<path d="M16.8 8.40039H39.2V19.6004H16.8V8.40039Z" fill="#FA500F"/>
<path d="M19.6 11.2002H22.4V14.0002H19.6V11.2002Z" fill="#C4001D"/>
<path d="M26.6 11.2002H29.4V14.0002H26.6V11.2002Z" fill="#C4001D"/>
<path d="M33.6 11.2002H36.4V14.0002H33.6V11.2002Z" fill="#C4001D"/>
<path d="M30.8 15.4004H33.6V18.2004H30.8V15.4004Z" fill="#C4001D"/>
<path d="M23.1 15.4004H25.9V18.2004H23.1V15.4004Z" fill="#C4001D"/>
<path d="M5.59998 16.7998H11.2V22.3998H5.59998V16.7998Z" fill="#FA500F"/>
<path d="M44.8 16.7998H50.4V22.3998H44.8V16.7998Z" fill="#FA500F"/>
<path d="M8.40002 22.4004H14V28.0004H8.40002V22.4004Z" fill="#FA500F"/>
<path d="M42 22.4004H47.6V28.0004H42V22.4004Z" fill="#FA500F"/>
<path d="M8.40002 25.2002H14V28.0002H8.40002V25.2002Z" fill="#E61300"/>
<path d="M42 25.2002H47.6V28.0002H42V25.2002Z" fill="#E61300"/>
</svg>
