<svg width="48" height="48" viewBox="0 0 48 48" fill="none" xmlns="http://www.w3.org/2000/svg">
<path d="M32.8717 39.5996H19.5V41.9996H35.1V39.5996H32.8717Z" fill="#933800"/>
<path d="M33.7719 6H13.2V8.4H37.2V6H33.7719Z" fill="#933800"/>
<path d="M15.6 39.5996H13.2V41.9996H15.6V39.5996Z" fill="#933800"/>
<path d="M18 39.5996H15.6V41.9996H18V39.5996Z" fill="#933800"/>
<path d="M37.2 39.5996H35.1V41.9996H37.2V39.5996Z" fill="#933800"/>
<path d="M13.2 37.2002H10.8V39.6002H13.2V37.2002Z" fill="#933800"/>
<path d="M37.2 34.7998H34.8V37.1998H37.2V34.7998Z" fill="#933800"/>
<path d="M10.8 10.7998H8.39999V37.1998H10.8V10.7998Z" fill="#933800"/>
<path d="M39.6 8.40039H37.2V39.6004H39.6V8.40039Z" fill="#933800"/>
<path d="M34.9338 8.40039H16.8V33.3004H37.2V8.40039H34.9338Z" fill="#FA500F"/>
<path d="M13.2 10.1786V33.3004H15.6V8.40039H13.2V10.1786Z" fill="#FA500F"/>
<path d="M18 37.9988V44.3998H20.4V34.7998H18V37.9988Z" fill="#E61300"/>
<path d="M15.6 34.8004L34.8 34.8004V32.4004L13.2 32.4004V37.2004L15.6 37.2004V34.8004Z" fill="#933800"/>
<path d="M24.5137 37.1998H34.8V34.7998H20.4V37.1998H24.5137Z" fill="#F5F4EF"/>
<path d="M18 34.7998H15.6V37.1998H18V34.7998Z" fill="#F5F4EF"/>
<path d="M37.2 32.4004H34.8V34.8004H37.2V32.4004Z" fill="#933800"/>
<path d="M10.8 35.1V37.2H13.2V33H10.8V35.1Z" fill="#E61300"/>
<path d="M14.4 10.1143V32.4004H16.8V8.40039H14.4V10.1143Z" fill="#933800"/>
<path d="M18 37.2002H13.2V39.6002H18V37.2002Z" fill="#FA500F"/>
<path d="M37.2 37.2002H20.4V39.6002H37.2V37.2002Z" fill="#FA500F"/>
<path d="M13.2 31.5694V10.7998H10.8V33.2998H13.2V31.5694Z" fill="#E61300"/>
<path d="M32.4007 25.2001V15.5996H29.999V17.9991H27.5997V20.401H25.2003V17.9991H22.801V15.5996H20.4017V25.2001H18V27.5996H25.2003V25.2001H22.801V22.8005H25.2003V25.2001H27.5997V22.8005H29.999V25.2001H27.5997V27.5996H34.8V25.2001H32.4007Z" fill="#FBD679"/>
<rect x="32.4" y="10.7998" width="2.4" height="2.4" fill="#FF8204"/>
<rect x="30" y="10.7998" width="2.4" height="2.4" fill="#FF8204"/>
<rect x="32.4" y="13.2002" width="2.4" height="2.4" fill="#FF8204"/>
<path d="M13.2 8.40039H10.8V10.8004H13.2V8.40039Z" fill="#933800"/>
</svg>
