<svg width="56" height="56" viewBox="0 0 56 56" fill="none" xmlns="http://www.w3.org/2000/svg">
<path d="M11.2 50.4004H14V53.2004H11.2V50.4004Z" fill="#933800"/>
<path d="M44.8 50.4004H42V53.2004H44.8V50.4004Z" fill="#933800"/>
<rect x="8.40002" y="50.4004" width="2.8" height="2.8" fill="#933800"/>
<rect x="2.79999" y="50.4004" width="2.8" height="2.8" fill="#933800"/>
<rect x="5.59998" y="50.4004" width="2.8" height="2.8" fill="#933800"/>
<rect x="47.6" y="50.4004" width="2.8" height="2.8" fill="#933800"/>
<rect width="2.8" height="2.8" transform="matrix(-1 0 0 1 47.6 50.4004)" fill="#933800"/>
<rect x="5.59998" y="47.5996" width="2.8" height="2.8" fill="#B75002"/>
<rect width="2.8" height="2.8" transform="matrix(-1 0 0 1 47.6 47.5996)" fill="#B75002"/>
<rect x="5.59998" y="44.7998" width="2.8" height="2.8" fill="#B75002"/>
<rect width="2.8" height="2.8" transform="matrix(-1 0 0 1 47.6 44.7998)" fill="#B75002"/>
<rect x="5.59998" y="42" width="2.8" height="2.8" fill="#B75002"/>
<rect width="2.8" height="2.8" transform="matrix(-1 0 0 1 47.6 42)" fill="#B75002"/>
<rect x="5.59998" y="39.2002" width="2.8" height="2.8" fill="#B75002"/>
<rect width="2.8" height="2.8" transform="matrix(-1 0 0 1 47.6 39.2002)" fill="#B75002"/>
<rect x="5.59998" y="36.4004" width="2.8" height="2.8" fill="#B75002"/>
<rect width="2.8" height="2.8" transform="matrix(-1 0 0 1 47.6 36.4004)" fill="#B75002"/>
<rect x="5.59998" y="33.5996" width="2.8" height="2.8" fill="#B75002"/>
<rect width="2.8" height="2.8" transform="matrix(-1 0 0 1 47.6 33.5996)" fill="#B75002"/>
<rect x="5.59998" y="30.7998" width="2.8" height="2.8" fill="#B75002"/>
<path d="M44.8 33.5996H47.6V30.7996H44.8V33.5996Z" fill="#B75002"/>
<path d="M2.79999 28H5.59999V30.8H2.79999V28Z" fill="#933800"/>
<path d="M47.6 28H44.8V30.8H47.6V28Z" fill="#933800"/>
<path d="M50.4 28H47.6V30.8H50.4V28Z" fill="#933800"/>
<rect x="11.2" y="28" width="2.8" height="2.8" fill="#FEC63A"/>
<path d="M8.40002 28H11.2V30.8H8.40002V28Z" fill="#FEC63A"/>
<path d="M5.59998 28H8.39998V30.8H5.59998V28Z" fill="#B75002"/>
<path d="M8.40002 25.2002H11.2V28.0002H8.40002V25.2002Z" fill="#FF8204"/>
<path d="M11.2 19.5996H14V22.3996H11.2V19.5996Z" fill="#FF8204"/>
<path d="M16.8 14H19.6V16.8H16.8V14Z" fill="#FEC63A"/>
<path d="M14 14H16.8V16.8H14V14Z" fill="#FF8204"/>
<path d="M19.6 19.5996H22.4V22.3996H19.6V19.5996Z" fill="#FEC63A"/>
<path d="M22.4 25.2002H25.2V28.0002H22.4V25.2002Z" fill="#FEC63A"/>
<path d="M8.40002 22.4004H11.2V25.2004H8.40002V22.4004Z" fill="#FF8204"/>
<path d="M11.2 16.7998H14V19.5998H11.2V16.7998Z" fill="#FF8204"/>
<path d="M16.8 11.2002H19.6V14.0002H16.8V11.2002Z" fill="#FEC63A"/>
<path d="M14 11.2002H16.8V14.0002H14V11.2002Z" fill="#FF8204"/>
<path d="M19.6 16.7998H22.4V19.5998H19.6V16.7998Z" fill="#FEC63A"/>
<path d="M22.4 22.4004H25.2V25.2004H22.4V22.4004Z" fill="#FEC63A"/>
<rect x="11.2" y="30.7998" width="2.8" height="2.8" fill="#FEC63A"/>
<path d="M8.40002 30.7998H11.2V33.5998H8.40002V30.7998Z" fill="#FEC63A"/>
<rect x="11.2" y="33.5996" width="2.8" height="2.8" fill="#FEC63A"/>
<path d="M8.40002 33.5996H11.2V36.3996H8.40002V33.5996Z" fill="#FEC63A"/>
<rect x="11.2" y="36.4004" width="2.8" height="2.8" fill="#FEC63A"/>
<path d="M8.40002 36.4004H11.2V39.2004H8.40002V36.4004Z" fill="#FEC63A"/>
<rect x="11.2" y="39.2002" width="2.8" height="2.8" fill="#FEC63A"/>
<path d="M8.40002 39.2002H11.2V42.0002H8.40002V39.2002Z" fill="#FEC63A"/>
<rect x="11.2" y="42" width="2.8" height="2.8" fill="#FEC63A"/>
<path d="M8.40002 42H11.2V44.8H8.40002V42Z" fill="#FEC63A"/>
<rect x="11.2" y="44.7998" width="2.8" height="2.8" fill="#FEC63A"/>
<path d="M8.40002 44.7998H11.2V47.5998H8.40002V44.7998Z" fill="#FEC63A"/>
<rect x="11.2" y="47.5996" width="2.8" height="2.8" fill="#FEC63A"/>
<path d="M8.40002 47.5996H11.2V50.3996H8.40002V47.5996Z" fill="#FEC63A"/>
<path d="M14 30.7998H16.8V33.5998H14V30.7998Z" fill="#0082E6"/>
<path d="M14 33.5996H16.8V36.3996H14V33.5996Z" fill="#FEC63A"/>
<path d="M14 36.4004H16.8V39.2004H14V36.4004Z" fill="#E61300"/>
<path d="M14 39.2002H16.8V42.0002H14V39.2002Z" fill="#E61300"/>
<path d="M14 42H16.8V44.8H14V42Z" fill="#E61300"/>
<path d="M14 44.7998H16.8V47.5998H14V44.7998Z" fill="#E61300"/>
<path d="M14 47.5996H16.8V50.3996H14V47.5996Z" fill="#E61300"/>
<path d="M14 50.4004H16.8V53.2004H14V50.4004Z" fill="#933800"/>
<path d="M16.8 30.7998H19.6V33.5998H16.8V30.7998Z" fill="#0082E6"/>
<path d="M16.8 33.5996H19.6V36.3996H16.8V33.5996Z" fill="#FEC63A"/>
<path d="M16.8 36.4004H19.6V39.2004H16.8V36.4004Z" fill="#E61300"/>
<path d="M16.8 39.2002H19.6V42.0002H16.8V39.2002Z" fill="#FA500F"/>
<path d="M16.8 42H19.6V44.8H16.8V42Z" fill="#FA500F"/>
<path d="M16.8 44.7998H19.6V47.5998H16.8V44.7998Z" fill="#FA500F"/>
<path d="M16.8 47.5996H19.6V50.3996H16.8V47.5996Z" fill="#FA500F"/>
<path d="M16.8 50.4004H19.6V53.2004H16.8V50.4004Z" fill="#933800"/>
<path d="M19.6 30.7998H22.4V33.5998H19.6V30.7998Z" fill="#0082E6"/>
<path d="M19.6 28H22.4V30.8H19.6V28Z" fill="#0082E6"/>
<path d="M33.6 28H36.4V30.8H33.6V28Z" fill="#933800"/>
<path d="M19.6 33.5996H22.4V36.3996H19.6V33.5996Z" fill="#FEC63A"/>
<path d="M19.6 36.4004H22.4V39.2004H19.6V36.4004Z" fill="#E61300"/>
<path d="M19.6 39.2002H22.4V42.0002H19.6V39.2002Z" fill="#E61300"/>
<path d="M19.6 42H22.4V44.8H19.6V42Z" fill="#E61300"/>
<path d="M19.6 44.7998H22.4V47.5998H19.6V44.7998Z" fill="#E61300"/>
<path d="M19.6 47.5996H22.4V50.3996H19.6V47.5996Z" fill="#E61300"/>
<rect x="19.6" y="50.4004" width="2.8" height="2.8" fill="#933800"/>
<rect x="22.4" y="30.7998" width="2.8" height="2.8" fill="#FEC63A"/>
<rect x="22.4" y="28" width="2.8" height="2.8" fill="#FEC63A"/>
<path d="M22.4 33.5996H25.2V36.3996H22.4V33.5996Z" fill="#FEC63A"/>
<path d="M22.4 36.4004H25.2V39.2004H22.4V36.4004Z" fill="#FEC63A"/>
<rect x="22.4" y="39.2002" width="2.8" height="2.8" fill="#FEC63A"/>
<rect x="22.4" y="42" width="2.8" height="2.8" fill="#FEC63A"/>
<rect x="22.4" y="44.7998" width="2.8" height="2.8" fill="#FEC63A"/>
<path d="M22.4 47.5996H25.2V50.3996H22.4V47.5996Z" fill="#FEC63A"/>
<rect x="22.4" y="50.4004" width="2.8" height="2.8" fill="#933800"/>
<rect x="25.2" y="30.7998" width="2.8" height="2.8" fill="#FEC63A"/>
<rect x="25.2" y="28" width="2.8" height="2.8" fill="#FEC63A"/>
<path d="M25.2 33.5996H28V36.3996H25.2V33.5996Z" fill="#FEC63A"/>
<rect x="25.2" y="36.4004" width="2.8" height="2.8" fill="#FEC63A"/>
<rect x="25.2" y="39.2002" width="2.8" height="2.8" fill="#FEC63A"/>
<rect x="25.2" y="42" width="2.8" height="2.8" fill="#FEC63A"/>
<rect x="25.2" y="44.7998" width="2.8" height="2.8" fill="#FEC63A"/>
<rect x="25.2" y="47.5996" width="2.8" height="2.8" fill="#FEC63A"/>
<rect x="25.2" y="50.4004" width="2.8" height="2.8" fill="#933800"/>
<path d="M28 30.7998H30.8V33.5998H28V30.7998Z" fill="#B75002"/>
<path d="M25.2 25.2002H28V28.0002H25.2V25.2002Z" fill="#933800"/>
<path d="M44.8 25.2002H47.6V28.0002H44.8V25.2002Z" fill="#933800"/>
<path d="M22.4 19.5996H25.2V22.3996H22.4V19.5996Z" fill="#933800"/>
<path d="M42 19.5996H44.8V22.3996H42V19.5996Z" fill="#933800"/>
<path d="M19.6 14H22.4V16.8H19.6V14Z" fill="#933800"/>
<path d="M39.2 14H42V16.8H39.2V14Z" fill="#933800"/>
<path d="M5.59998 25.2002H8.39998V28.0002H5.59998V25.2002Z" fill="#933800"/>
<path d="M8.40002 19.5996H11.2V22.3996H8.40002V19.5996Z" fill="#933800"/>
<path d="M11.2 14H14V16.8H11.2V14Z" fill="#933800"/>
<path d="M28 28H30.8V30.8H28V28Z" fill="#933800"/>
<path d="M25.2 22.4004H28V25.2004H25.2V22.4004Z" fill="#933800"/>
<path d="M44.8 22.4004H47.6V25.2004H44.8V22.4004Z" fill="#933800"/>
<path d="M22.4 16.7998H25.2V19.5998H22.4V16.7998Z" fill="#933800"/>
<path d="M42 16.7998H44.8V19.5998H42V16.7998Z" fill="#933800"/>
<path d="M19.6 8.40039H22.4V11.2004H19.6V8.40039Z" fill="#933800"/>
<path d="M39.2 11.2002H42V14.0002H39.2V11.2002Z" fill="#933800"/>
<path d="M5.59998 22.4004H8.39998V25.2004H5.59998V22.4004Z" fill="#933800"/>
<path d="M8.40002 16.7998H11.2V19.5998H8.40002V16.7998Z" fill="#933800"/>
<path d="M11.2 11.2002H14V14.0002H11.2V11.2002Z" fill="#933800"/>
<path d="M14 8.40039H16.8V11.2004H14V8.40039Z" fill="#933800"/>
<path d="M16.8 8.40039H19.6V11.2004H16.8V8.40039Z" fill="#933800"/>
<path d="M28 33.5996H30.8V36.3996H28V33.5996Z" fill="#B75002"/>
<path d="M28 36.4004H30.8V39.2004H28V36.4004Z" fill="#B75002"/>
<path d="M28 39.2002H30.8V42.0002H28V39.2002Z" fill="#B75002"/>
<path d="M28 42H30.8V44.8H28V42Z" fill="#B75002"/>
<path d="M28 44.7998H30.8V47.5998H28V44.7998Z" fill="#B75002"/>
<path d="M28 47.5996H30.8V50.3996H28V47.5996Z" fill="#B75002"/>
<rect x="28" y="50.4004" width="2.8" height="2.8" fill="#933800"/>
<path d="M30.8 30.7998H33.6V33.5998H30.8V30.7998Z" fill="#B75002"/>
<path d="M30.8 28H33.6V30.8H30.8V28Z" fill="#933800"/>
<path d="M30.8 33.5996H33.6V36.3996H30.8V33.5996Z" fill="#FF8204"/>
<path d="M30.8 36.4004H33.6V39.2004H30.8V36.4004Z" fill="#FF8204"/>
<path d="M30.8 39.2002H33.6V42.0002H30.8V39.2002Z" fill="#FF8204"/>
<path d="M30.8 42H33.6V44.8H30.8V42Z" fill="#FF8204"/>
<path d="M30.8 44.7998H33.6V47.5998H30.8V44.7998Z" fill="#FF8204"/>
<path d="M30.8 47.5996H33.6V50.3996H30.8V47.5996Z" fill="#FF8204"/>
<rect x="30.8" y="50.4004" width="2.8" height="2.8" fill="#933800"/>
<path d="M33.6 30.7998H36.4V33.5998H33.6V30.7998Z" fill="#B75002"/>
<rect x="33.6" y="33.5996" width="2.8" height="2.8" fill="#FF8204"/>
<path d="M33.6 36.4004H36.4V39.2004H33.6V36.4004Z" fill="#FF8204"/>
<path d="M33.6 39.2002H36.4V42.0002H33.6V39.2002Z" fill="#FF8204"/>
<path d="M33.6 42H36.4V44.8H33.6V42Z" fill="#FF8204"/>
<path d="M33.6 44.7998H36.4V47.5998H33.6V44.7998Z" fill="#FF8204"/>
<path d="M33.6 47.5996H36.4V50.3996H33.6V47.5996Z" fill="#FF8204"/>
<rect x="33.6" y="50.4004" width="2.8" height="2.8" fill="#933800"/>
<path d="M36.4 30.7998H39.2V33.5998H36.4V30.7998Z" fill="#B75002"/>
<rect x="36.4" y="33.5996" width="2.8" height="2.8" fill="#FF8204"/>
<path d="M36.4 36.4004H39.2V39.2004H36.4V36.4004Z" fill="#FF8204"/>
<path d="M36.4 39.2002H39.2V42.0002H36.4V39.2002Z" fill="#FF8204"/>
<path d="M36.4 42H39.2V44.8H36.4V42Z" fill="#FF8204"/>
<path d="M36.4 44.7998H39.2V47.5998H36.4V44.7998Z" fill="#FF8204"/>
<path d="M36.4 47.5996H39.2V50.3996H36.4V47.5996Z" fill="#FF8204"/>
<path d="M36.4 50.4004H39.2V53.2004H36.4V50.4004Z" fill="#933800"/>
<path d="M39.2 30.7998H42V33.5998H39.2V30.7998Z" fill="#B75002"/>
<rect x="39.2" y="33.5996" width="2.8" height="2.8" fill="#FF8204"/>
<path d="M39.2 36.4004H42V39.2004H39.2V36.4004Z" fill="#FF8204"/>
<path d="M39.2 39.2002H42V42.0002H39.2V39.2002Z" fill="#FF8204"/>
<path d="M39.2 42H42V44.8H39.2V42Z" fill="#FF8204"/>
<path d="M39.2 44.7998H42V47.5998H39.2V44.7998Z" fill="#FF8204"/>
<path d="M39.2 47.5996H42V50.3996H39.2V47.5996Z" fill="#FF8204"/>
<path d="M39.2 50.4004H42V53.2004H39.2V50.4004Z" fill="#933800"/>
<path d="M42 30.7998H44.8V33.5998H42V30.7998Z" fill="#B75002"/>
<rect x="42" y="33.5996" width="2.8" height="2.8" fill="#FF8204"/>
<rect x="42" y="36.4004" width="2.8" height="2.8" fill="#FF8204"/>
<rect x="42" y="39.2002" width="2.8" height="2.8" fill="#FF8204"/>
<rect x="42" y="42" width="2.8" height="2.8" fill="#FF8204"/>
<rect x="42" y="44.7998" width="2.8" height="2.8" fill="#FF8204"/>
<rect x="42" y="47.5996" width="2.8" height="2.8" fill="#FF8204"/>
<path d="M44.8 28H42V30.8H44.8V28Z" fill="#933800"/>
<path d="M14 28H16.8V30.8H14V28Z" fill="#0082E6"/>
<path d="M42 28H39.2V30.8H42V28Z" fill="#933800"/>
<path d="M16.8 28H19.6V30.8H16.8V28Z" fill="#55B3FB"/>
<rect x="11.2" y="25.2002" width="2.8" height="2.8" fill="#FEC63A"/>
<rect x="11.2" y="22.4004" width="2.8" height="2.8" fill="#FEC63A"/>
<rect x="16.8" y="16.7998" width="2.8" height="2.8" fill="#FEC63A"/>
<rect x="14" y="16.7998" width="2.8" height="2.8" fill="#FEC63A"/>
<rect x="16.8" y="19.5996" width="2.8" height="2.8" fill="#FEC63A"/>
<rect x="14" y="19.5996" width="2.8" height="2.8" fill="#FEC63A"/>
<rect x="16.8" y="22.4004" width="2.8" height="2.8" fill="#FEC63A"/>
<rect x="14" y="22.4004" width="2.8" height="2.8" fill="#FEC63A"/>
<rect x="19.6" y="22.4004" width="2.8" height="2.8" fill="#FEC63A"/>
<path d="M16.8 25.2002H19.6V28.0002H16.8V25.2002Z" fill="#0082E6"/>
<path d="M14 25.2002H16.8V28.0002H14V25.2002Z" fill="#0082E6"/>
<path d="M19.6 25.2002H22.4V28.0002H19.6V25.2002Z" fill="#0082E6"/>
<path d="M39.2 28H36.4V30.8H39.2V28Z" fill="#933800"/>
<path d="M36.4 8.40039H33.6V11.2004H36.4V8.40039Z" fill="#933800"/>
<path d="M39.2 8.40039H36.4V11.2004H39.2V8.40039Z" fill="#933800"/>
<path d="M22.4 8.40039H25.2V11.2004H22.4V8.40039Z" fill="#933800"/>
<path d="M33.6 8.40039H30.8V11.2004H33.6V8.40039Z" fill="#933800"/>
<path d="M25.2 8.40039H28V11.2004H25.2V8.40039Z" fill="#933800"/>
<path d="M28 8.40039H30.8V11.2004H28V8.40039Z" fill="#933800"/>
<path d="M22.4 14H25.2V16.8H22.4V14Z" fill="#C4001D"/>
<path d="M22.4 11.2002H25.2V14.0002H22.4V11.2002Z" fill="#C4001D"/>
<path d="M25.2 16.7998H28V19.5998H25.2V16.7998Z" fill="#C4001D"/>
<path d="M25.2 19.5996H28V22.3996H25.2V19.5996Z" fill="#C4001D"/>
<path d="M28 22.4004H30.8V25.2004H28V22.4004Z" fill="#C4001D"/>
<path d="M28 16.7998H30.8V19.5998H28V16.7998Z" fill="#E61300"/>
<path d="M28 19.5996H30.8V22.3996H28V19.5996Z" fill="#E61300"/>
<path d="M28 25.2002H30.8V28.0002H28V25.2002Z" fill="#C4001D"/>
<path d="M30.8 16.7998H33.6V19.5998H30.8V16.7998Z" fill="#C4001D"/>
<path d="M30.8 19.5996H33.6V22.3996H30.8V19.5996Z" fill="#C4001D"/>
<path d="M25.2 14H28V16.8H25.2V14Z" fill="#E61300"/>
<path d="M25.2 11.2002H28V14.0002H25.2V11.2002Z" fill="#E61300"/>
<path d="M19.6 11.2002H22.4V14.0002H19.6V11.2002Z" fill="#933800"/>
<path d="M33.6 16.7998H36.4V19.5998H33.6V16.7998Z" fill="#E61300"/>
<path d="M33.6 19.5996H36.4V22.3996H33.6V19.5996Z" fill="#E61300"/>
<path d="M30.8 22.4004H33.6V25.2004H30.8V22.4004Z" fill="#E61300"/>
<path d="M36.4 16.7998H39.2V19.5998H36.4V16.7998Z" fill="#C4001D"/>
<path d="M36.4 19.5996H39.2V22.3996H36.4V19.5996Z" fill="#C4001D"/>
<path d="M30.8 25.2002H33.6V28.0002H30.8V25.2002Z" fill="#E61300"/>
<path d="M39.2 16.7998H42V19.5998H39.2V16.7998Z" fill="#E61300"/>
<path d="M39.2 19.5996H42V22.3996H39.2V19.5996Z" fill="#E61300"/>
<path d="M28 14H30.8V16.8H28V14Z" fill="#C4001D"/>
<path d="M28 11.2002H30.8V14.0002H28V11.2002Z" fill="#C4001D"/>
<path d="M33.6 22.4004H36.4V25.2004H33.6V22.4004Z" fill="#C4001D"/>
<path d="M33.6 25.2002H36.4V28.0002H33.6V25.2002Z" fill="#C4001D"/>
<path d="M30.8 14H33.6V16.8H30.8V14Z" fill="#E61300"/>
<path d="M30.8 11.2002H33.6V14.0002H30.8V11.2002Z" fill="#E61300"/>
<path d="M36.4 22.4004H39.2V25.2004H36.4V22.4004Z" fill="#E61300"/>
<path d="M36.4 25.2002H39.2V28.0002H36.4V25.2002Z" fill="#E61300"/>
<path d="M33.6 14H36.4V16.8H33.6V14Z" fill="#C4001D"/>
<path d="M33.6 11.2002H36.4V14.0002H33.6V11.2002Z" fill="#C4001D"/>
<path d="M39.2 22.4004H42V25.2004H39.2V22.4004Z" fill="#C4001D"/>
<path d="M39.2 25.2002H42V28.0002H39.2V25.2002Z" fill="#C4001D"/>
<path d="M36.4 14H39.2V16.8H36.4V14Z" fill="#E61300"/>
<path d="M36.4 11.2002H39.2V14.0002H36.4V11.2002Z" fill="#E61300"/>
<path d="M42 22.4004H44.8V25.2004H42V22.4004Z" fill="#E61300"/>
<path d="M42 25.2002H44.8V28.0002H42V25.2002Z" fill="#E61300"/>
</svg>
