<svg width="48" height="48" viewBox="0 0 48 48" fill="none" xmlns="http://www.w3.org/2000/svg">
<path d="M36.0003 9.59961H21.6V28.7996H38.4V9.59961H36.0003Z" fill="#FFAF01"/>
<path d="M21.2572 9.59961H19.2V26.3996H21.6V9.59961H21.2572Z" fill="#933800"/>
<path d="M40.4572 9.59961H38.4V28.7996H40.8V9.59961H40.4572Z" fill="#933800"/>
<path d="M38.4 30.857L38.4 28.7998L21.6 28.7998L21.6 31.1998L38.4 31.1998L38.4 30.857Z" fill="#933800"/>
<path d="M23.9997 9.59961L38.4 9.59961L38.4 7.19961L21.6 7.19961L21.6 9.59961L23.9997 9.59961Z" fill="#933800"/>
<path d="M9.94281 12L12 12L12 9.6L9.6 9.6L9.6 12L9.94281 12Z" fill="#044298"/>
<path d="M12.3428 12L14.4 12L14.4 9.6L12 9.6L12 12L12.3428 12Z" fill="#044298"/>
<path d="M12.3428 9.59961L14.4 9.59961L14.4 7.19961L12 7.19961L12 9.59961L12.3428 9.59961Z" fill="#044298"/>
<path d="M12.3428 14.4004L14.4 14.4004L14.4 12.0004L12 12.0004L12 14.4004L12.3428 14.4004Z" fill="#044298"/>
<path d="M14.7428 12L16.8 12L16.8 9.6L14.4 9.6L14.4 12L14.7428 12Z" fill="#044298"/>
<path d="M29.1428 14.4004L31.2 14.4004L31.2 12.0004L28.8 12.0004L28.8 14.4004L29.1428 14.4004Z" fill="#933800"/>
<path d="M31.2428 19.2002L33.3 19.2002L33.3 16.8002L30.9 16.8002L30.9 19.2002L31.2428 19.2002Z" fill="#933800"/>
<path d="M29.1428 21.5996L31.2 21.5996L31.2 19.1996L28.8 19.1996L28.8 21.5996L29.1428 21.5996Z" fill="#933800"/>
<path d="M26.7428 21.5996L28.8 21.5996L28.8 19.1996L26.4 19.1996L26.4 21.5996L26.7428 21.5996Z" fill="#933800"/>
<path d="M29.1428 24L31.2 24L31.2 21.6L28.8 21.6L28.8 24L29.1428 24Z" fill="#933800"/>
<path d="M25.714 26.4004L36 26.4004L36 24.0004L24 24.0004L24 26.4004L25.714 26.4004Z" fill="#933800"/>
<path d="M25.714 16.7998L36 16.7998L36 14.3998L24 14.3998L24 16.7998L25.714 16.7998Z" fill="#933800"/>
<path d="M7.54281 12L9.6 12L9.6 9.6L7.2 9.6L7.2 12L7.54281 12Z" fill="#044298"/>
<path d="M5.14281 14.4004L7.2 14.4004L7.2 12.0004L4.8 12.0004L4.8 14.4004L5.14281 14.4004Z" fill="#044298"/>
<path d="M5.14281 16.7998L7.2 16.7998L7.2 14.3998L4.8 14.3998L4.8 16.7998L5.14281 16.7998Z" fill="#044298"/>
<path d="M36.8572 36L34.8 36L34.8 38.4L37.2 38.4L37.2 36L36.8572 36Z" fill="#044298"/>
<path d="M34.4572 36L32.4 36L32.4 38.4L34.8 38.4L34.8 36L34.4572 36Z" fill="#044298"/>
<path d="M34.4572 38.4004L32.4 38.4004L32.4 40.8004L34.8 40.8004L34.8 38.4004L34.4572 38.4004Z" fill="#044298"/>
<path d="M34.4572 33.5996L32.4 33.5996L32.4 35.9996L34.8 35.9996L34.8 33.5996L34.4572 33.5996Z" fill="#044298"/>
<path d="M32.0572 36L30 36L30 38.4L32.4 38.4L32.4 36L32.0572 36Z" fill="#044298"/>
<path d="M39.2572 36L37.2 36L37.2 38.4L39.6 38.4L39.6 36L39.2572 36Z" fill="#044298"/>
<path d="M41.6572 33.5996L39.6 33.5996L39.6 35.9996L42 35.9996L42 33.5996L41.6572 33.5996Z" fill="#044298"/>
<path d="M41.6572 31.2002L39.6 31.2002L39.6 33.6002L42 33.6002L42 31.2002L41.6572 31.2002Z" fill="#044298"/>
<path d="M22.8003 21.5996H8.4V38.3996H25.2V21.5996H22.8003Z" fill="#0082E6"/>
<path d="M8.05719 21.5996H6V38.3996H8.4V21.5996H8.05719Z" fill="#044298"/>
<path d="M27.2572 21.5996H25.2V38.3996H27.6V21.5996H27.2572Z" fill="#044298"/>
<path d="M25.2 40.4576L25.2 38.4004L8.4 38.4004L8.4 40.8004L25.2 40.8004L25.2 40.4576Z" fill="#044298"/>
<path d="M22.8003 33.6004V24H20.4006V26.4006H17.9999V28.8002H15.6001V26.4006H13.2004V24H10.7997V33.6004H8.4V36H15.6001V33.6004H13.2004V31.1998H15.6001V33.6004H17.9999V31.1998H20.4006V33.6004H17.9999V36H25.2V33.6004H22.8003Z" fill="#F5F4EF"/>
<path d="M10.7997 21.5996L25.2 21.5996L25.2 19.1996L8.4 19.1996L8.4 21.5996L10.7997 21.5996Z" fill="#044298"/>
</svg>
