<svg width="64" height="64" viewBox="0 0 64 64" fill="none" xmlns="http://www.w3.org/2000/svg">
<rect x="19.2" y="28.8" width="22.4" height="28.8" fill="#FEC63A"/>
<rect x="22.4" y="54.3999" width="19.2" height="3.2" fill="#FA500F"/>
<rect x="25.6" y="51.2" width="12.8" height="3.2" fill="#FEC63A"/>
<rect x="22.4" y="48" width="12.8" height="3.2" fill="#FEC63A"/>
<rect x="25.6" y="44.8" width="12.8" height="3.2" fill="#FEC63A"/>
<rect x="28.8" y="41.6001" width="6.4" height="3.2" fill="#FEC63A"/>
<rect x="28.8" y="25.6001" width="3.2" height="3.2" fill="#FEC63A"/>
<rect x="28.8" y="38.3999" width="3.2" height="3.2" fill="#FEC63A"/>
<path d="M38.4008 51.2005L38.4008 38.3999L35.1988 38.3999L35.1988 41.6021L31.9996 41.6021L31.9996 44.8016L28.8004 44.8016L28.8004 41.6021L25.6012 41.6021L25.6012 38.3999L22.402 38.3999L22.402 51.2005L19.2 51.2005L19.2 54.3999L28.8004 54.3999L28.8004 51.2005L25.6012 51.2005L25.6012 48.001L28.8004 48.001L28.8004 51.2005L31.9996 51.2005L31.9996 48.001L35.1988 48.001L35.1988 51.2005L31.9996 51.2005L31.9996 54.3999L41.6 54.3999L41.6 51.2005L38.4008 51.2005Z" fill="#FBFBF8"/>
<rect x="16" y="51.2" width="3.2" height="3.2" fill="#E61300"/>
<rect x="19.2" y="54.3999" width="3.2" height="3.2" fill="#E61300"/>
<rect x="12.8" y="44.8" width="3.2" height="6.4" fill="#E61300"/>
<rect x="9.59998" y="38.3999" width="3.2" height="6.4" fill="#E61300"/>
<rect x="12.8" y="32" width="3.2" height="6.4" fill="#E61300"/>
<rect x="12.8" y="25.6001" width="3.2" height="6.4" fill="#E61300"/>
<rect x="16" y="22.3999" width="3.2" height="6.4" fill="#E61300"/>
<rect x="19.2" y="28.8" width="3.2" height="6.4" fill="#FF8204"/>
<rect x="22.4" y="22.3999" width="3.2" height="6.4" fill="#FA500F"/>
<rect x="25.6" y="16" width="3.2" height="6.4" fill="#E61300"/>
<rect x="28.8" y="9.6001" width="3.2" height="6.4" fill="#E61300"/>
<rect x="32" y="12.8" width="3.2" height="9.6" fill="#E61300"/>
<rect x="38.4" y="22.3999" width="3.2" height="6.4" fill="#E61300"/>
<rect x="35.2" y="19.2" width="3.2" height="6.4" fill="#E61300"/>
<rect x="38.4" y="28.8" width="3.2" height="6.4" fill="#FA500F"/>
<rect x="41.6" y="28.8" width="3.2" height="6.4" fill="#E61300"/>
<rect x="44.8" y="35.2" width="3.2" height="6.4" fill="#E61300"/>
<rect x="48" y="28.8" width="3.2" height="6.4" fill="#E61300"/>
<rect x="38.4" y="54.3999" width="3.2" height="3.2" fill="#E61300"/>
<rect x="44.8" y="48" width="3.2" height="3.2" fill="#E61300"/>
<rect x="19.2" y="28.8" width="3.2" height="3.2" fill="#E61300"/>
<rect x="32" y="6.3999" width="3.2" height="3.2" fill="#E61300"/>
<rect x="41.6" y="51.2" width="3.2" height="3.2" fill="#E61300"/>
<rect x="16" y="28.8" width="3.2" height="12.8" fill="#FF8204"/>
<rect x="16" y="38.3999" width="3.2" height="3.2" fill="#FA500F"/>
<rect x="12.8" y="38.3999" width="3.2" height="6.4" fill="#FF8204"/>
<rect x="16" y="41.6001" width="3.2" height="3.2" fill="#FFAF01"/>
<rect x="44.8" y="41.6001" width="3.2" height="6.4" fill="#FEC63A"/>
<rect x="28.8" y="19.2" width="3.2" height="6.4" fill="#FF8204"/>
<rect x="28.8" y="16" width="3.2" height="3.2" fill="#FA500F"/>
<rect x="44.8" y="41.6001" width="3.2" height="6.4" fill="#E61300"/>
<rect x="16" y="44.8" width="3.2" height="6.4" fill="#FFAF01"/>
<rect x="25.6" y="22.3999" width="3.2" height="6.4" fill="#FF8204"/>
<rect x="32" y="22.3999" width="3.2" height="6.4" fill="#FF8204"/>
<rect x="38.4" y="35.2" width="3.2" height="6.4" fill="#FF8204"/>
<rect x="41.6" y="41.6001" width="3.2" height="9.6" fill="#FF8204"/>
<rect x="41.6" y="35.2" width="3.2" height="6.4" fill="#FA500F"/>
<rect x="35.2" y="25.6001" width="3.2" height="9.6" fill="#FF8204"/>
<rect x="22.4" y="28.8" width="3.2" height="6.4" fill="#FF8204"/>
<rect x="19.2" y="48" width="3.2" height="3.2" fill="#FF8204"/>
<rect x="28.8" y="51.2" width="3.2" height="3.2" fill="#FF8204"/>
<rect x="25.6" y="48" width="3.2" height="3.2" fill="#FF8204"/>
<rect x="32" y="48" width="3.2" height="3.2" fill="#FF8204"/>
<rect x="28.8" y="41.6001" width="3.2" height="3.2" fill="#FF8204"/>
<rect x="19.2" y="35.2" width="3.2" height="3.2" fill="#FF8204"/>
</svg>
