<svg width="28" height="28" viewBox="0 0 28 28" fill="none" xmlns="http://www.w3.org/2000/svg">
<rect x="23.1" y="22.3999" width="1.4" height="1.4" fill="#CE1493"/>
<rect x="3.5" y="22.3999" width="1.4" height="1.4" fill="#CE1493"/>
<rect x="23.1" y="21" width="1.4" height="1.4" fill="#CE1493"/>
<rect x="3.5" y="21" width="1.4" height="1.4" fill="#CE1493"/>
<rect x="23.1" y="19.6" width="1.4" height="1.4" fill="#CE1493"/>
<path d="M3.5 19.6H4.9V21H3.5V19.6Z" fill="#CE1493"/>
<rect x="23.1" y="18.2" width="1.4" height="1.4" fill="#CE1493"/>
<path d="M3.5 18.2H4.9V19.6H3.5V18.2Z" fill="#CE1493"/>
<rect x="23.1" y="16.7999" width="1.4" height="1.4" fill="#CE1493"/>
<path d="M3.5 16.7999H4.9V18.1999H3.5V16.7999Z" fill="#CE1493"/>
<rect x="23.1" y="15.4" width="1.4" height="1.4" fill="#CE1493"/>
<path d="M3.5 15.4H4.9V16.8H3.5V15.4Z" fill="#CE1493"/>
<rect x="4.90017" y="14.0001" width="1.4" height="1.4" fill="#CE1493"/>
<rect x="6.29966" y="14.0001" width="1.4" height="1.4" fill="#CE1493"/>
<rect x="7.7" y="14.0001" width="1.4" height="1.4" fill="#CE1493"/>
<rect x="9.10034" y="14.0001" width="1.4" height="1.4" fill="#CE1493"/>
<rect x="10.5" y="14" width="1.4" height="1.4" fill="#CE1493"/>
<path d="M11.9 14.0001H13.3V15.4001H11.9V14.0001Z" fill="#CE1493"/>
<path d="M13.3003 14.0001H14.7003V15.4001H13.3003V14.0001Z" fill="#CE1493"/>
<path d="M14.7007 14.0001H16.1007V15.4001H14.7007V14.0001Z" fill="#CE1493"/>
<rect x="16.1002" y="14.0001" width="1.4" height="1.4" fill="#CE1493"/>
<rect x="17.5005" y="14.0001" width="1.4" height="1.4" fill="#CE1493"/>
<rect x="18.9" y="14.0001" width="1.4" height="1.4" fill="#CE1493"/>
<rect x="20.3003" y="14.0001" width="1.4" height="1.4" fill="#CE1493"/>
<rect x="21.7007" y="14.0001" width="1.4" height="1.4" fill="#CE1493"/>
<path d="M2.1 12.5999H3.5V13.9999H2.1V12.5999Z" fill="#CE1493"/>
<path d="M2.1 14H3.5V15.4H2.1V14Z" fill="#CE1493"/>
<path d="M2.1 11.1999H3.5V12.5999H2.1V11.1999Z" fill="#CE1493"/>
<rect x="4.90017" y="9.79999" width="1.4" height="1.4" fill="#CE1493"/>
<rect x="3.5" y="9.79999" width="1.4" height="1.4" fill="#CE1493"/>
<rect x="23.1" y="9.79999" width="1.4" height="1.4" fill="#CE1493"/>
<rect x="23.1" y="14" width="1.4" height="1.4" fill="#CE1493"/>
<rect x="3.5" y="14" width="1.4" height="1.4" fill="#CE1493"/>
<rect x="6.29966" y="9.79999" width="1.4" height="1.4" fill="#CE1493"/>
<rect x="7.7" y="9.79999" width="1.4" height="1.4" fill="#CE1493"/>
<rect x="9.10034" y="9.79999" width="1.4" height="1.4" fill="#CE1493"/>
<rect x="10.4998" y="9.79999" width="1.4" height="1.4" fill="#CE1493"/>
<rect x="11.9002" y="9.79999" width="1.4" height="1.4" fill="#CE1493"/>
<rect x="10.4998" y="11.1999" width="1.4" height="1.4" fill="#CE1493"/>
<rect x="16.1002" y="11.1999" width="1.4" height="1.4" fill="#CE1493"/>
<rect x="10.4998" y="12.5999" width="1.4" height="1.4" fill="#CE1493"/>
<rect x="10.4998" y="15.4" width="1.4" height="1.4" fill="#CE1493"/>
<rect x="16.1002" y="15.4" width="1.4" height="1.4" fill="#CE1493"/>
<rect x="10.4998" y="16.7999" width="1.4" height="1.4" fill="#CE1493"/>
<rect x="16.1002" y="16.7999" width="1.4" height="1.4" fill="#CE1493"/>
<rect x="10.4998" y="18.2" width="1.4" height="1.4" fill="#CE1493"/>
<rect x="16.1002" y="18.2" width="1.4" height="1.4" fill="#CE1493"/>
<rect x="10.4998" y="19.6" width="1.4" height="1.4" fill="#CE1493"/>
<rect x="16.1002" y="19.6" width="1.4" height="1.4" fill="#CE1493"/>
<rect x="10.4998" y="21" width="1.4" height="1.4" fill="#CE1493"/>
<rect x="16.1002" y="21" width="1.4" height="1.4" fill="#CE1493"/>
<rect x="10.4998" y="22.3999" width="1.4" height="1.4" fill="#CE1493"/>
<rect x="16.1002" y="22.3999" width="1.4" height="1.4" fill="#CE1493"/>
<rect x="10.4998" y="23.8" width="1.4" height="1.4" fill="#CE1493"/>
<rect x="9.10034" y="23.8" width="1.4" height="1.4" fill="#CE1493"/>
<path d="M9.10034 22.3999H10.5003V23.7999H9.10034V22.3999Z" fill="#FF92DC"/>
<path d="M7.7 22.3999H9.1V23.7999H7.7V22.3999Z" fill="#FF92DC"/>
<path d="M4.89966 22.3999H6.29966V23.7999H4.89966V22.3999Z" fill="#FF92DC"/>
<path d="M6.3 22.3999H7.7V23.7999H6.3V22.3999Z" fill="#FF92DC"/>
<path d="M20.3003 22.3999H21.7003V23.7999H20.3003V22.3999Z" fill="#FF92DC"/>
<path d="M21.7 22.3999H23.1V23.7999H21.7V22.3999Z" fill="#FF92DC"/>
<rect x="20.3003" y="23.8" width="1.4" height="1.4" fill="#CE1493"/>
<rect x="21.7" y="23.8" width="1.4" height="1.4" fill="#CE1493"/>
<rect x="18.9" y="23.8" width="1.4" height="1.4" fill="#CE1493"/>
<rect x="17.5005" y="23.8" width="1.4" height="1.4" fill="#CE1493"/>
<rect x="14.7007" y="23.8" width="1.4" height="1.4" fill="#CE1493"/>
<rect x="13.3003" y="23.8" width="1.4" height="1.4" fill="#CE1493"/>
<rect x="11.9" y="23.8" width="1.4" height="1.4" fill="#CE1493"/>
<rect x="14.7007" y="22.3999" width="1.4" height="1.4" fill="#FFAF01"/>
<rect x="13.3003" y="22.3999" width="1.4" height="1.4" fill="#FFAF01"/>
<path d="M11.9 22.3999H13.3V23.7999H11.9V22.3999Z" fill="#FFAF01"/>
<path d="M14.7007 21H16.1007V22.4H14.7007V21Z" fill="#FFAF01"/>
<rect x="13.3003" y="21" width="1.4" height="1.4" fill="#FEC63A"/>
<rect x="11.9" y="21" width="1.4" height="1.4" fill="#FEC63A"/>
<path d="M14.7007 19.6H16.1007V21H14.7007V19.6Z" fill="#FFAF01"/>
<rect x="13.3003" y="19.6" width="1.4" height="1.4" fill="#FEC63A"/>
<rect x="11.9" y="19.6" width="1.4" height="1.4" fill="#FEC63A"/>
<path d="M14.7007 18.2H16.1007V19.6H14.7007V18.2Z" fill="#FFAF01"/>
<rect x="13.3003" y="18.2" width="1.4" height="1.4" fill="#FEC63A"/>
<rect x="11.9" y="18.2" width="1.4" height="1.4" fill="#FEC63A"/>
<path d="M14.7007 16.7999H16.1007V18.1999H14.7007V16.7999Z" fill="#FFAF01"/>
<rect x="13.3003" y="16.7999" width="1.4" height="1.4" fill="#FEC63A"/>
<path d="M11.9 16.7999H13.3V18.1999H11.9V16.7999Z" fill="#FEC63A"/>
<path d="M14.7007 15.4H16.1007V16.8H14.7007V15.4Z" fill="#FFAF01"/>
<path d="M13.3003 15.4H14.7003V16.8H13.3003V15.4Z" fill="#FEC63A"/>
<path d="M11.9 15.4H13.3V16.8H11.9V15.4Z" fill="#FEC63A"/>
<path d="M11.9 12.5999H13.3V13.9999H11.9V12.5999Z" fill="#FEC63A"/>
<path d="M13.3003 12.6H14.7003V14H13.3003V12.6Z" fill="#FEC63A"/>
<path d="M14.7007 12.5999H16.1007V13.9999H14.7007V12.5999Z" fill="#FFAF01"/>
<path d="M11.9 11.1999H13.3V12.5999H11.9V11.1999Z" fill="#FBD679"/>
<path d="M13.3003 11.1999H14.7003V12.5999H13.3003V11.1999Z" fill="#FBD679"/>
<path d="M14.7007 11.1999H16.1007V12.5999H14.7007V11.1999Z" fill="#FFAF01"/>
<path d="M18.9 22.3999H20.3V23.7999H18.9V22.3999Z" fill="#FF92DC"/>
<path d="M17.5005 22.3999H18.9005V23.7999H17.5005V22.3999Z" fill="#FF92DC"/>
<path d="M9.10034 21H10.5003V22.4H9.10034V21Z" fill="#FF92DC"/>
<path d="M7.7 21H9.1V22.4H7.7V21Z" fill="#FF92DC"/>
<rect x="4.89966" y="21" width="1.4" height="1.4" fill="#FF92DC"/>
<rect x="6.3" y="21" width="1.4" height="1.4" fill="#FF92DC"/>
<rect x="20.3003" y="21" width="1.4" height="1.4" fill="#FF92DC"/>
<rect x="21.7" y="21" width="1.4" height="1.4" fill="#FF92DC"/>
<rect x="18.9" y="21" width="1.4" height="1.4" fill="#FF92DC"/>
<rect x="17.5005" y="21" width="1.4" height="1.4" fill="#FF92DC"/>
<path d="M9.10034 19.6H10.5003V21H9.10034V19.6Z" fill="#FF92DC"/>
<path d="M7.7 19.6H9.1V21H7.7V19.6Z" fill="#FF92DC"/>
<rect x="4.89966" y="19.6" width="1.4" height="1.4" fill="#FF92DC"/>
<rect x="6.3" y="19.6" width="1.4" height="1.4" fill="#FF92DC"/>
<path d="M20.3003 19.6H21.7003V21H20.3003V19.6Z" fill="#FF92DC"/>
<path d="M21.7 19.6H23.1V21H21.7V19.6Z" fill="#FF92DC"/>
<path d="M18.9 19.6H20.3V21H18.9V19.6Z" fill="#FF92DC"/>
<path d="M17.5005 19.6H18.9005V21H17.5005V19.6Z" fill="#FF92DC"/>
<path d="M9.10034 18.2H10.5003V19.6H9.10034V18.2Z" fill="#FF92DC"/>
<path d="M7.7 18.2H9.1V19.6H7.7V18.2Z" fill="#FF92DC"/>
<rect x="4.89966" y="18.2" width="1.4" height="1.4" fill="#FF92DC"/>
<rect x="6.3" y="18.2" width="1.4" height="1.4" fill="#FF92DC"/>
<path d="M20.3003 18.2H21.7003V19.6H20.3003V18.2Z" fill="#FF92DC"/>
<path d="M21.7 18.2H23.1V19.6H21.7V18.2Z" fill="#FF92DC"/>
<path d="M18.9 18.2H20.3V19.6H18.9V18.2Z" fill="#FF92DC"/>
<path d="M17.5005 18.2H18.9005V19.6H17.5005V18.2Z" fill="#FF92DC"/>
<path d="M9.10034 16.7999H10.5003V18.1999H9.10034V16.7999Z" fill="#FF92DC"/>
<path d="M7.7 16.7999H9.1V18.1999H7.7V16.7999Z" fill="#FF92DC"/>
<rect x="4.89966" y="16.7999" width="1.4" height="1.4" fill="#FF92DC"/>
<rect x="6.3" y="16.7999" width="1.4" height="1.4" fill="#FF92DC"/>
<path d="M20.3003 16.7999H21.7003V18.1999H20.3003V16.7999Z" fill="#FF92DC"/>
<path d="M21.7 16.7999H23.1V18.1999H21.7V16.7999Z" fill="#FF92DC"/>
<path d="M18.9 16.7999H20.3V18.1999H18.9V16.7999Z" fill="#FF92DC"/>
<path d="M17.5005 16.7999H18.9005V18.1999H17.5005V16.7999Z" fill="#FF92DC"/>
<rect x="9.10034" y="15.4" width="1.4" height="1.4" fill="#FFC2EB"/>
<rect x="4.9" y="16.8" width="1.4" height="7" fill="#FFC2EB"/>
<rect x="7.7" y="15.4" width="1.4" height="1.4" fill="#FFC2EB"/>
<rect x="4.89966" y="15.4" width="1.4" height="1.4" fill="#FFC2EB"/>
<rect x="6.3" y="15.4" width="1.4" height="1.4" fill="#FFC2EB"/>
<path d="M9.10034 12.5999H10.5003V13.9999H9.10034V12.5999Z" fill="#FF92DC"/>
<rect x="9.10034" y="11.1999" width="1.4" height="1.4" fill="#FFC2EB"/>
<path d="M7.7 12.5999H9.1V13.9999H7.7V12.5999Z" fill="#FF92DC"/>
<rect x="7.7" y="11.1999" width="1.4" height="1.4" fill="#FFC2EB"/>
<path d="M6.29966 12.5999H7.69966V13.9999H6.29966V12.5999Z" fill="#FF92DC"/>
<rect x="6.29966" y="11.1999" width="1.4" height="1.4" fill="#FFC2EB"/>
<path d="M4.90017 12.5999H6.30017V13.9999H4.90017V12.5999Z" fill="#FF92DC"/>
<rect x="4.90017" y="11.1999" width="1.4" height="1.4" fill="#FFC2EB"/>
<path d="M20.3003 15.4H21.7003V16.8H20.3003V15.4Z" fill="#FF92DC"/>
<path d="M21.7 15.4H23.1V16.8H21.7V15.4Z" fill="#FF92DC"/>
<path d="M18.9 15.4H20.3V16.8H18.9V15.4Z" fill="#FF92DC"/>
<path d="M17.5005 15.4H18.9005V16.8H17.5005V15.4Z" fill="#FF92DC"/>
<rect x="17.5005" y="12.5999" width="1.4" height="1.4" fill="#FF92DC"/>
<rect x="18.9" y="12.5999" width="1.4" height="1.4" fill="#FF92DC"/>
<rect x="18.9" y="11.1999" width="1.4" height="1.4" fill="#FFC2EB"/>
<path d="M20.3003 12.5999H21.7003V13.9999H20.3003V12.5999Z" fill="#FF92DC"/>
<rect x="20.3003" y="11.1999" width="1.4" height="1.4" fill="#FFC2EB"/>
<path d="M21.7007 12.5999H23.1007V13.9999H21.7007V12.5999Z" fill="#FF92DC"/>
<path d="M23.1 12.5999H24.5V13.9999H23.1V12.5999Z" fill="#FF92DC"/>
<path d="M3.5 12.5999H4.9V13.9999H3.5V12.5999Z" fill="#FFC2EB"/>
<path d="M6.3 16.8H7.7V18.2H6.3V16.8Z" fill="#FFC2EB"/>
<rect x="21.7007" y="11.1999" width="1.4" height="1.4" fill="#FFC2EB"/>
<rect x="23.1" y="11.1999" width="1.4" height="1.4" fill="#FFC2EB"/>
<rect x="3.5" y="11.1999" width="1.4" height="1.4" fill="#FFC2EB"/>
<rect x="17.5005" y="11.1999" width="1.4" height="1.4" fill="#FFC2EB"/>
<rect x="11.9" y="8.40012" width="1.4" height="1.4" fill="#FBD679"/>
<rect width="1.4" height="1.4" transform="matrix(-1 0 0 1 16.1003 8.40012)" fill="#FBD679"/>
<rect x="9.10017" y="8.40012" width="1.4" height="1.4" fill="#FEC63A"/>
<rect width="1.4" height="1.4" transform="matrix(-1 0 0 1 18.9002 8.40012)" fill="#FEC63A"/>
<path d="M10.5005 8.40012H11.9005V9.80012H10.5005V8.40012Z" fill="#FA500F"/>
<path d="M17.4998 8.40012H16.0998V9.80012H17.4998V8.40012Z" fill="#FA500F"/>
<path d="M7.69983 8.40012H9.09983V9.80012H7.69983V8.40012Z" fill="#FEC63A"/>
<rect width="1.4" height="1.4" transform="matrix(-1 0 0 1 20.3005 8.40012)" fill="#FEC63A"/>
<path d="M6.30034 6.99997H7.70034V8.39997H6.30034V6.99997Z" fill="#FEC63A"/>
<rect width="1.4" height="1.4" transform="matrix(-1 0 0 1 21.7 6.99997)" fill="#FBD679"/>
<path d="M6.30034 5.60004H7.70034V7.00004H6.30034V5.60004Z" fill="#FEC63A"/>
<rect width="1.4" height="1.4" transform="matrix(-1 0 0 1 21.7 5.60004)" fill="#FEC63A"/>
<path d="M6.30034 4.20001H7.70034V5.60001H6.30034V4.20001Z" fill="#FEC63A"/>
<rect width="1.4" height="1.4" transform="matrix(-1 0 0 1 21.7 4.20001)" fill="#FEC63A"/>
<rect x="7.69983" y="5.60004" width="1.4" height="1.4" fill="#FEC63A"/>
<rect width="1.4" height="1.4" transform="matrix(-1 0 0 1 20.3005 5.60004)" fill="#FEC63A"/>
<rect x="7.69983" y="4.20001" width="1.4" height="1.4" fill="#FEC63A"/>
<rect width="1.4" height="1.4" transform="matrix(-1 0 0 1 20.3005 4.20001)" fill="#FEC63A"/>
<rect x="7.69983" y="6.99997" width="1.4" height="1.4" fill="#FEC63A"/>
<rect width="1.4" height="1.4" transform="matrix(-1 0 0 1 20.3005 6.99997)" fill="#FEC63A"/>
<path d="M9.10017 6.99997H10.5002V8.39997H9.10017V6.99997Z" fill="#FA500F"/>
<path d="M18.9002 6.99997H17.5002V8.39997H18.9002V6.99997Z" fill="#FA500F"/>
<rect x="9.10017" y="5.60004" width="1.4" height="1.4" fill="#FBD679"/>
<rect x="10.5" y="5.60004" width="1.4" height="1.4" fill="#FBD679"/>
<rect width="1.4" height="1.4" transform="matrix(-1 0 0 1 18.9002 5.60004)" fill="#FBD679"/>
<rect width="1.4" height="1.4" transform="matrix(-1 0 0 1 17.5 5.60004)" fill="#FBD679"/>
<path d="M9.10017 4.20001H10.5002V5.60001H9.10017V4.20001Z" fill="#FA500F"/>
<path d="M9.10017 4.20001H10.5002V5.60001H9.10017V4.20001Z" fill="#FA500F"/>
<path d="M10.5 4.20001H11.9V5.60001H10.5V4.20001Z" fill="#FA500F"/>
<rect x="10.5005" y="6.99997" width="1.4" height="1.4" fill="#FBD679"/>
<rect width="1.4" height="1.4" transform="matrix(-1 0 0 1 17.4998 6.99997)" fill="#FBD679"/>
<rect x="7.7" y="23.8" width="1.4" height="1.4" fill="#CE1493"/>
<rect x="4.89966" y="23.8" width="1.4" height="1.4" fill="#CE1493"/>
<rect x="6.3" y="23.8" width="1.4" height="1.4" fill="#CE1493"/>
<rect x="16.1002" y="23.8" width="1.4" height="1.4" fill="#CE1493"/>
<rect x="16.1002" y="12.5999" width="1.4" height="1.4" fill="#CE1493"/>
<rect x="13.3003" y="8.40012" width="1.4" height="1.4" fill="#FA500F"/>
<path d="M11.9 6.99997H13.3V8.39997H11.9V6.99997Z" fill="#FA500F"/>
<path d="M16.1003 6.99997H14.7003V8.39997H16.1003V6.99997Z" fill="#FA500F"/>
<path d="M11.9 5.60004H13.3V7.00004H11.9V5.60004Z" fill="#FA500F"/>
<path d="M16.1 5.60004H14.7V7.00004H16.1V5.60004Z" fill="#FA500F"/>
<path d="M18.9 4.20001H17.5V5.60001H18.9V4.20001Z" fill="#FA500F"/>
<path d="M17.5 4.20001H16.1V5.60001H17.5V4.20001Z" fill="#FA500F"/>
<path d="M7.69983 2.79999H9.09983V4.19999H7.69983V2.79999Z" fill="#FA500F"/>
<path d="M20.3005 2.79999H18.9005V4.19999H20.3005V2.79999Z" fill="#FA500F"/>
<path d="M6.30034 2.79999H7.70034V4.19999H6.30034V2.79999Z" fill="#FA500F"/>
<path d="M21.7 2.79999H20.3V4.19999H21.7V2.79999Z" fill="#FA500F"/>
<rect x="4.9" y="5.60004" width="1.4" height="1.4" fill="#FA500F"/>
<rect width="1.4" height="1.4" transform="matrix(-1 0 0 1 23.1003 5.60004)" fill="#FA500F"/>
<rect x="4.9" y="4.20001" width="1.4" height="1.4" fill="#FA500F"/>
<rect width="1.4" height="1.4" transform="matrix(-1 0 0 1 23.1003 4.20001)" fill="#FA500F"/>
<rect x="4.9" y="6.99997" width="1.4" height="1.4" fill="#FA500F"/>
<rect width="1.4" height="1.4" transform="matrix(-1 0 0 1 23.1003 6.99997)" fill="#FA500F"/>
<rect x="6.30034" y="8.40012" width="1.4" height="1.4" fill="#FA500F"/>
<rect width="1.4" height="1.4" transform="matrix(-1 0 0 1 21.7 8.40012)" fill="#FA500F"/>
<rect x="13.2997" y="9.79999" width="1.4" height="1.4" fill="#CE1493"/>
<rect x="14.7" y="9.79999" width="1.4" height="1.4" fill="#CE1493"/>
<rect x="16.1003" y="9.79999" width="1.4" height="1.4" fill="#CE1493"/>
<rect x="17.4998" y="9.79999" width="1.4" height="1.4" fill="#CE1493"/>
<rect x="18.9002" y="9.79999" width="1.4" height="1.4" fill="#CE1493"/>
<rect x="20.2997" y="9.79999" width="1.4" height="1.4" fill="#CE1493"/>
<rect x="21.7" y="9.79999" width="1.4" height="1.4" fill="#CE1493"/>
<rect x="24.5" y="12.5999" width="1.4" height="1.4" fill="#CE1493"/>
<rect x="24.5" y="14" width="1.4" height="1.4" fill="#CE1493"/>
<rect x="24.5" y="11.1999" width="1.4" height="1.4" fill="#CE1493"/>
</svg>
