<svg width="48" height="48" viewBox="0 0 48 48" fill="none" xmlns="http://www.w3.org/2000/svg">
<g clip-path="url(#clip0_19105_23365)">
<rect x="4.7998" y="40.8" width="2.4" height="2.4" fill="#C4001D"/>
<rect x="4.7998" y="38.4" width="2.4" height="2.4" fill="#C4001D"/>
<rect x="4.7998" y="36" width="2.4" height="2.4" fill="#C4001D"/>
<rect x="7.2002" y="33.6" width="2.4" height="2.4" fill="#C4001D"/>
<rect x="4.7998" y="31.2" width="2.4" height="2.4" fill="#C4001D"/>
<rect x="4.7998" y="28.8" width="2.4" height="2.4" fill="#C4001D"/>
<rect x="4.7998" y="26.4" width="2.4" height="2.4" fill="#C4001D"/>
<rect x="4.7998" y="24" width="2.4" height="2.4" fill="#C4001D"/>
<rect x="4.7998" y="21.6" width="2.4" height="2.4" fill="#C4001D"/>
<rect x="2.3999" y="21.6" width="2.4" height="2.4" fill="#E61300"/>
<rect y="19.2" width="2.4" height="2.4" fill="#E61300"/>
<rect y="16.8" width="2.4" height="2.4" fill="#E61300"/>
<rect x="2.3999" y="14.4" width="2.4" height="2.4" fill="#E61300"/>
<rect x="4.7998" y="14.4" width="2.4" height="2.4" fill="#E61300"/>
<rect x="7.2002" y="16.8" width="2.4" height="2.4" fill="#E61300"/>
<rect x="7.2002" y="19.2" width="2.4" height="2.4" fill="#E61300"/>
<rect x="9.6001" y="21.6" width="2.4" height="2.4" fill="#E61300"/>
<rect x="12" y="24" width="2.4" height="2.4" fill="#E61300"/>
<rect x="14.3999" y="21.6" width="2.4" height="2.4" fill="#E61300"/>
<rect x="16.7998" y="19.2" width="2.4" height="2.4" fill="#E61300"/>
<rect x="19.2002" y="16.8" width="2.4" height="2.4" fill="#E61300"/>
<rect x="21.6001" y="14.4" width="2.4" height="2.4" fill="#E61300"/>
<rect x="19.2002" y="12" width="2.4" height="2.4" fill="#FA500F"/>
<rect x="16.7998" y="9.59998" width="2.4" height="2.4" fill="#FA500F"/>
<rect x="16.7998" y="7.19995" width="2.4" height="2.4" fill="#FA500F"/>
<rect x="19.2002" y="4.80005" width="2.4" height="2.4" fill="#FA500F"/>
<rect x="21.6001" y="2.40002" width="2.4" height="2.4" fill="#FA500F"/>
<rect x="24" y="2.40002" width="2.4" height="2.4" fill="#FA500F"/>
<rect x="26.3999" y="4.80005" width="2.4" height="2.4" fill="#E61300"/>
<rect x="28.7998" y="7.19995" width="2.4" height="2.4" fill="#E61300"/>
<rect x="28.7998" y="9.59998" width="2.4" height="2.4" fill="#E61300"/>
<rect x="26.3999" y="12" width="2.4" height="2.4" fill="#E61300"/>
<rect x="24" y="14.4" width="2.4" height="2.4" fill="#E61300"/>
<rect x="9.6001" y="40.8" width="2.4" height="2.4" fill="#C4001D"/>
<rect x="7.2002" y="40.8" width="2.4" height="2.4" fill="#C4001D"/>
<rect x="12" y="40.8" width="2.4" height="2.4" fill="#C4001D"/>
<rect x="14.3999" y="40.8" width="2.4" height="2.4" fill="#C4001D"/>
<rect x="16.7998" y="40.8" width="2.4" height="2.4" fill="#C4001D"/>
<rect x="19.2002" y="40.8" width="2.4" height="2.4" fill="#C4001D"/>
<rect x="21.6001" y="40.8" width="2.4" height="2.4" fill="#C4001D"/>
<rect x="24" y="40.8" width="2.4" height="2.4" fill="#C4001D"/>
<rect x="26.3999" y="40.8" width="2.4" height="2.4" fill="#C4001D"/>
<rect x="28.7998" y="40.8" width="2.4" height="2.4" fill="#C4001D"/>
<rect x="31.2002" y="40.8" width="2.4" height="2.4" fill="#C4001D"/>
<rect x="33.6001" y="40.8" width="2.4" height="2.4" fill="#C4001D"/>
<rect x="36" y="40.8" width="2.4" height="2.4" fill="#C4001D"/>
<rect x="38.3999" y="40.8" width="2.4" height="2.4" fill="#C4001D"/>
<rect x="40.7998" y="40.8" width="2.4" height="2.4" fill="#C4001D"/>
<rect x="40.7998" y="38.4" width="2.4" height="2.4" fill="#C4001D"/>
<rect x="40.7998" y="36" width="2.4" height="2.4" fill="#C4001D"/>
<rect x="38.3999" y="33.6" width="2.4" height="2.4" fill="#C4001D"/>
<rect x="38.3999" y="36" width="2.4" height="2.4" fill="#FF8204"/>
<rect x="38.3999" y="38.4" width="2.4" height="2.4" fill="#FF8204"/>
<rect x="36" y="36" width="2.4" height="2.4" fill="#FF8204"/>
<rect x="38.3999" y="31.2" width="2.4" height="2.4" fill="#FF8204"/>
<rect x="38.3999" y="28.8" width="2.4" height="2.4" fill="#FF8204"/>
<rect x="38.3999" y="26.4" width="2.4" height="2.4" fill="#FF8204"/>
<rect x="38.3999" y="24" width="2.4" height="2.4" fill="#FF8204"/>
<rect x="36" y="24" width="2.4" height="2.4" fill="#FFAF01"/>
<rect x="38.3999" y="21.6" width="2.4" height="2.4" fill="#FFAF01"/>
<rect x="40.7998" y="19.2" width="2.4" height="2.4" fill="#FF6529"/>
<rect x="40.7998" y="16.8" width="2.4" height="2.4" fill="#FFB598"/>
<rect x="43.2002" y="16.8" width="2.4" height="2.4" fill="#E61300"/>
<rect x="43.2002" y="19.2" width="2.4" height="2.4" fill="#E61300"/>
<rect x="36" y="31.2" width="2.4" height="2.4" fill="#FF8204"/>
<rect x="36" y="28.8" width="2.4" height="2.4" fill="#FFAF01"/>
<rect x="36" y="26.4" width="2.4" height="2.4" fill="#FFAF01"/>
<rect x="33.6001" y="31.2" width="2.4" height="2.4" fill="#FF8204"/>
<rect x="33.6001" y="28.8" width="2.4" height="2.4" fill="#FFAF01"/>
<rect x="33.6001" y="26.4" width="2.4" height="2.4" fill="#FFAF01"/>
<rect x="31.2002" y="31.2" width="2.4" height="2.4" fill="#FFAF01"/>
<rect x="31.2002" y="28.8" width="2.4" height="2.4" fill="#FFAF01"/>
<rect x="31.2002" y="26.4" width="2.4" height="2.4" fill="#FFAF01"/>
<rect x="28.7998" y="31.2" width="2.4" height="2.4" fill="#FFAF01"/>
<rect x="28.7998" y="28.8" width="2.4" height="2.4" fill="#FFAF01"/>
<rect x="28.7998" y="26.4" width="2.4" height="2.4" fill="#FFAF01"/>
<rect x="26.3999" y="31.2" width="2.4" height="2.4" fill="#E61300"/>
<rect x="26.3999" y="28.8" width="2.4" height="2.4" fill="#FFAF01"/>
<rect x="26.3999" y="26.4" width="2.4" height="2.4" fill="#FFAF01"/>
<rect x="24" y="31.2" width="2.4" height="2.4" fill="#E61300"/>
<rect x="24" y="28.8" width="2.4" height="2.4" fill="#E61300"/>
<rect x="24" y="26.4" width="2.4" height="2.4" fill="#E61300"/>
<rect x="21.6001" y="31.2" width="2.4" height="2.4" fill="#E61300"/>
<rect x="21.6001" y="28.8" width="2.4" height="2.4" fill="#FF6529"/>
<rect x="21.6001" y="26.4" width="2.4" height="2.4" fill="#FF6529"/>
<rect x="19.2002" y="31.2" width="2.4" height="2.4" fill="#E61300"/>
<rect x="19.2002" y="28.8" width="2.4" height="2.4" fill="#FFAF01"/>
<rect x="19.2002" y="26.4" width="2.4" height="2.4" fill="#FFAF01"/>
<rect x="16.7998" y="31.2" width="2.4" height="2.4" fill="#FEC63A"/>
<rect x="16.7998" y="28.8" width="2.4" height="2.4" fill="#FFAF01"/>
<rect x="16.7998" y="26.4" width="2.4" height="2.4" fill="#FFAF01"/>
<rect x="14.3999" y="31.2" width="2.4" height="2.4" fill="#FEC63A"/>
<rect x="14.3999" y="28.8" width="2.4" height="2.4" fill="#FEC63A"/>
<rect x="14.3999" y="26.4" width="2.4" height="2.4" fill="#FFAF01"/>
<rect x="14.3999" y="24" width="2.4" height="2.4" fill="#FEC63A"/>
<rect x="16.7998" y="24" width="2.4" height="2.4" fill="#FFAF01"/>
<rect x="19.2002" y="24" width="2.4" height="2.4" fill="#FFAF01"/>
<rect x="21.6001" y="24" width="2.4" height="2.4" fill="#FFAF01"/>
<rect x="24" y="24" width="2.4" height="2.4" fill="#FFAF01"/>
<rect x="26.3999" y="24" width="2.4" height="2.4" fill="#FFAF01"/>
<rect x="28.7998" y="24" width="2.4" height="2.4" fill="#FFAF01"/>
<rect x="28.7998" y="21.6" width="2.4" height="2.4" fill="#FFAF01"/>
<rect x="26.3999" y="21.6" width="2.4" height="2.4" fill="#FFAF01"/>
<rect x="24" y="21.6" width="2.4" height="2.4" fill="#FFAF01"/>
<rect x="21.6001" y="21.6" width="2.4" height="2.4" fill="#FFAF01"/>
<rect x="19.2002" y="21.6" width="2.4" height="2.4" fill="#FFAF01"/>
<rect x="19.2002" y="19.2" width="2.4" height="2.4" fill="#FEC63A"/>
<rect x="21.6001" y="19.2" width="2.4" height="2.4" fill="#FFAF01"/>
<rect x="24" y="19.2" width="2.4" height="2.4" fill="#FFAF01"/>
<rect x="24" y="16.8" width="2.4" height="2.4" fill="#FFAF01"/>
<rect x="21.6001" y="16.8" width="2.4" height="2.4" fill="#FEC63A"/>
<path d="M21.6001 12H24.0001V14.4H21.6001V12Z" fill="#FF6529"/>
<path d="M24 12H26.4V14.4H24V12Z" fill="#E61300"/>
<path d="M21.6001 7.19995H24.0001V9.59995H21.6001V7.19995Z" fill="#FF6529"/>
<path d="M21.6001 4.80005H24.0001V7.20005H21.6001V4.80005Z" fill="#FFB598"/>
<path d="M24 4.80005H26.4V7.20005H24V4.80005Z" fill="#FFB598"/>
<path d="M24 7.19995H26.4V9.59995H24V7.19995Z" fill="#FF6529"/>
<path d="M26.3999 7.19995H28.7999V9.59995H26.3999V7.19995Z" fill="#E61300"/>
<path d="M26.3999 9.59998H28.7999V12H26.3999V9.59998Z" fill="#E61300"/>
<path d="M24 9.59998H26.4V12H24V9.59998Z" fill="#FF6529"/>
<path d="M21.6001 9.59998H24.0001V12H21.6001V9.59998Z" fill="#FF6529"/>
<path d="M19.2002 9.59998H21.6002V12H19.2002V9.59998Z" fill="#FF6529"/>
<path d="M19.2002 7.19995H21.6002V9.59995H19.2002V7.19995Z" fill="#FFB598"/>
<rect x="26.3999" y="19.2" width="2.4" height="2.4" fill="#FFAF01"/>
<rect x="16.7998" y="21.6" width="2.4" height="2.4" fill="#FEC63A"/>
<rect x="31.2002" y="24" width="2.4" height="2.4" fill="#FFAF01"/>
<rect x="12" y="31.2" width="2.4" height="2.4" fill="#FEC63A"/>
<rect x="12" y="28.8" width="2.4" height="2.4" fill="#FEC63A"/>
<rect x="12" y="26.4" width="2.4" height="2.4" fill="#FEC63A"/>
<rect x="9.6001" y="31.2" width="2.4" height="2.4" fill="#FEC63A"/>
<rect x="9.6001" y="28.8" width="2.4" height="2.4" fill="#FEC63A"/>
<rect x="9.6001" y="26.4" width="2.4" height="2.4" fill="#FEC63A"/>
<rect x="7.2002" y="31.2" width="2.4" height="2.4" fill="#FBD679"/>
<rect x="7.2002" y="28.8" width="2.4" height="2.4" fill="#FBD679"/>
<rect x="7.2002" y="26.4" width="2.4" height="2.4" fill="#FBD679"/>
<rect x="7.2002" y="24" width="2.4" height="2.4" fill="#FBD679"/>
<rect x="9.6001" y="24" width="2.4" height="2.4" fill="#FEC63A"/>
<rect x="7.2002" y="21.6" width="2.4" height="2.4" fill="#FBD679"/>
<rect x="4.7998" y="19.2" width="2.4" height="2.4" fill="#E61300"/>
<rect x="4.7998" y="16.8" width="2.4" height="2.4" fill="#FF6529"/>
<rect x="2.3999" y="16.8" width="2.4" height="2.4" fill="#FFB598"/>
<rect x="2.3999" y="19.2" width="2.4" height="2.4" fill="#FF6529"/>
<rect x="36" y="38.4" width="2.4" height="2.4" fill="#FFAF01"/>
<rect x="33.6001" y="36" width="2.4" height="2.4" fill="#FFAF01"/>
<rect x="33.6001" y="38.4" width="2.4" height="2.4" fill="#FFAF01"/>
<rect x="31.2002" y="36" width="2.4" height="2.4" fill="#FFAF01"/>
<rect x="31.2002" y="38.4" width="2.4" height="2.4" fill="#FFAF01"/>
<rect x="28.7998" y="36" width="2.4" height="2.4" fill="#FFAF01"/>
<rect x="28.7998" y="38.4" width="2.4" height="2.4" fill="#FFAF01"/>
<rect x="26.3999" y="36" width="2.4" height="2.4" fill="#FFAF01"/>
<rect x="26.3999" y="38.4" width="2.4" height="2.4" fill="#FFAF01"/>
<rect x="24" y="36" width="2.4" height="2.4" fill="#FFAF01"/>
<rect x="24" y="38.4" width="2.4" height="2.4" fill="#FFAF01"/>
<rect x="21.6001" y="36" width="2.4" height="2.4" fill="#FFAF01"/>
<rect x="21.6001" y="38.4" width="2.4" height="2.4" fill="#FFAF01"/>
<rect x="19.2002" y="36" width="2.4" height="2.4" fill="#FFAF01"/>
<rect x="19.2002" y="38.4" width="2.4" height="2.4" fill="#FFAF01"/>
<rect x="16.7998" y="36" width="2.4" height="2.4" fill="#FEC63A"/>
<rect x="16.7998" y="38.4" width="2.4" height="2.4" fill="#FEC63A"/>
<rect x="14.3999" y="36" width="2.4" height="2.4" fill="#FEC63A"/>
<rect x="14.3999" y="38.4" width="2.4" height="2.4" fill="#FEC63A"/>
<rect x="12" y="36" width="2.4" height="2.4" fill="#FBD679"/>
<rect x="12" y="38.4" width="2.4" height="2.4" fill="#FEC63A"/>
<rect x="9.6001" y="36" width="2.4" height="2.4" fill="#FBD679"/>
<rect x="9.6001" y="38.4" width="2.4" height="2.4" fill="#FBD679"/>
<rect x="7.2002" y="36" width="2.4" height="2.4" fill="#FBD679"/>
<rect x="7.2002" y="38.4" width="2.4" height="2.4" fill="#FBD679"/>
<rect x="36" y="33.6" width="2.4" height="2.4" fill="#C4001D"/>
<rect x="33.6001" y="33.6" width="2.4" height="2.4" fill="#C4001D"/>
<rect x="31.2002" y="33.6" width="2.4" height="2.4" fill="#C4001D"/>
<rect x="28.7998" y="33.6" width="2.4" height="2.4" fill="#E61300"/>
<rect x="26.3999" y="33.6" width="2.4" height="2.4" fill="#E61300"/>
<rect x="24" y="33.6" width="2.4" height="2.4" fill="#E61300"/>
<rect x="21.6001" y="33.6" width="2.4" height="2.4" fill="#E61300"/>
<rect x="19.2002" y="33.6" width="2.4" height="2.4" fill="#E61300"/>
<rect x="16.7998" y="33.6" width="2.4" height="2.4" fill="#E61300"/>
<rect x="14.3999" y="33.6" width="2.4" height="2.4" fill="#E61300"/>
<rect x="12" y="33.6" width="2.4" height="2.4" fill="#FF6529"/>
<rect x="9.6001" y="33.6" width="2.4" height="2.4" fill="#FF6529"/>
<rect x="40.7998" y="31.2" width="2.4" height="2.4" fill="#C4001D"/>
<rect x="40.7998" y="28.8" width="2.4" height="2.4" fill="#C4001D"/>
<rect x="40.7998" y="26.4" width="2.4" height="2.4" fill="#C4001D"/>
<rect x="40.7998" y="24" width="2.4" height="2.4" fill="#C4001D"/>
<rect x="40.7998" y="21.6" width="2.4" height="2.4" fill="#C4001D"/>
<rect x="43.2002" y="21.6" width="2.4" height="2.4" fill="#C4001D"/>
<rect x="45.6001" y="19.2" width="2.4" height="2.4" fill="#C4001D"/>
<rect x="45.6001" y="16.8" width="2.4" height="2.4" fill="#C4001D"/>
<rect x="43.2002" y="14.4" width="2.4" height="2.4" fill="#C4001D"/>
<rect x="40.7998" y="14.4" width="2.4" height="2.4" fill="#E61300"/>
<rect x="38.3999" y="16.8" width="2.4" height="2.4" fill="#E61300"/>
<rect x="38.3999" y="19.2" width="2.4" height="2.4" fill="#E61300"/>
<rect x="36" y="21.6" width="2.4" height="2.4" fill="#E61300"/>
<rect x="33.6001" y="24" width="2.4" height="2.4" fill="#E61300"/>
<rect x="31.2002" y="21.6" width="2.4" height="2.4" fill="#E61300"/>
<rect x="28.7998" y="19.2" width="2.4" height="2.4" fill="#E61300"/>
<rect x="26.3999" y="16.8" width="2.4" height="2.4" fill="#E61300"/>
</g>
<defs>
<clipPath id="clip0_19105_23365">
<rect width="48" height="48" fill="white"/>
</clipPath>
</defs>
</svg>
