<svg width="48" height="48" viewBox="0 0 48 48" fill="none" xmlns="http://www.w3.org/2000/svg">
<g clip-path="url(#clip0_18167_25135)">
<rect x="12" y="21.5996" width="28.8" height="2.4" fill="#55B3FB"/>
<rect x="14.4" y="19.2002" width="26.4" height="2.4" fill="#55B3FB"/>
<rect x="16.8" y="16.7998" width="21.6" height="2.4" fill="#0082E6"/>
<rect x="9.59998" y="24" width="33.6" height="9.6" fill="#FA500F"/>
<rect width="7.2" height="9.6" transform="matrix(-1 0 0 1 9.59998 24)" fill="#E61300"/>
<rect width="2.4" height="9.6" transform="matrix(-1 0 0 1 45.6 24)" fill="#FA500F"/>
<rect width="2.4" height="7.2" transform="matrix(-1 0 0 1 48 24)" fill="#FA500F"/>
<rect width="4.8" height="7.2" transform="matrix(-1 0 0 1 4.79999 26.4004)" fill="#E61300"/>
<rect width="2.4" height="2.4" transform="matrix(-1 0 0 1 12 24)" fill="#E61300"/>
<rect width="2.4" height="2.4" transform="matrix(-1 0 0 1 45.6 31.2002)" fill="#E61300"/>
<rect width="2.4" height="2.4" transform="matrix(-1 0 0 1 45.6 24)" fill="#E61300"/>
<rect width="12" height="2.4" transform="matrix(-1 0 0 1 33.6 31.2002)" fill="#E61300"/>
<rect width="2.4" height="7.2" transform="matrix(-1 0 0 1 48 24)" fill="#E61300"/>
<rect width="2.4" height="2.4" transform="matrix(-1 0 0 1 12 31.2002)" fill="#E61300"/>
<rect width="2.4" height="2.4" transform="matrix(-1 0 0 1 12 21.5996)" fill="#E61300"/>
<rect width="2.4" height="2.4" transform="matrix(-1 0 0 1 21.6 21.5996)" fill="#FA500F"/>
<rect width="2.4" height="2.4" transform="matrix(-1 0 0 1 14.4 19.2002)" fill="#E61300"/>
<rect width="2.4" height="2.4" transform="matrix(-1 0 0 1 24 19.2002)" fill="#FA500F"/>
<rect width="2.4" height="2.4" transform="matrix(-1 0 0 1 16.8 16.7998)" fill="#E61300"/>
<rect width="21.6" height="2.4" transform="matrix(-1 0 0 1 38.4 14.4004)" fill="#FA500F"/>
<rect width="21.6" height="2.4" transform="matrix(-1 0 0 1 38.4 14.4004)" fill="#E61300"/>
<rect width="2.4" height="2.4" transform="matrix(-1 0 0 1 26.4 16.7998)" fill="#FA500F"/>
<rect width="2.4" height="2.4" transform="matrix(-1 0 0 1 40.8 16.7998)" fill="#E61300"/>
<rect width="2.4" height="4.8" transform="matrix(-1 0 0 1 43.2 19.2002)" fill="#E61300"/>
<rect width="2.4" height="7.2" transform="matrix(-1 0 0 1 31.2 24)" fill="#E61300"/>
<rect width="2.4" height="7.2" transform="matrix(-1 0 0 1 33.6 16.7998)" fill="#FA500F"/>
<rect width="4.8" height="2.4" transform="matrix(1 0 0 -1 14.4 36)" fill="#044298"/>
<rect width="4.8" height="2.4" transform="matrix(1 0 0 -1 7.20001 36)" fill="#044298"/>
<rect width="4.8" height="2.4" transform="matrix(1 0 0 -1 26.4 36)" fill="#044298"/>
<rect width="4.8" height="2.4" transform="matrix(1 0 0 -1 14.4 28.7998)" fill="#044298"/>
<rect width="9.6" height="4.8" transform="matrix(1 0 0 -1 12 33.6006)" fill="#044298"/>
<rect x="14.4" y="28.7998" width="4.8" height="4.8" fill="#55B3FB"/>
<rect width="4.8" height="2.4" transform="matrix(1 0 0 -1 36 36)" fill="#044298"/>
<rect width="4.8" height="2.4" transform="matrix(1 0 0 -1 36 28.7998)" fill="#044298"/>
<rect width="9.6" height="4.8" transform="matrix(1 0 0 -1 33.6 33.6006)" fill="#044298"/>
<rect x="36" y="28.7998" width="4.8" height="4.8" fill="#55B3FB"/>
<rect x="16.8" y="16.7998" width="2.4" height="2.4" fill="#0082E6"/>
<rect x="12" y="21.5996" width="2.4" height="2.4" fill="#0082E6"/>
<rect x="14.4" y="19.2002" width="2.4" height="2.4" fill="#0082E6"/>
<rect x="19.2" y="16.7998" width="4.8" height="2.4" fill="#0082E6"/>
<rect x="24" y="19.2002" width="2.4" height="2.4" fill="#0082E6"/>
<rect x="21.6" y="21.5996" width="2.4" height="2.4" fill="#0082E6"/>
<rect x="33.6" y="16.7998" width="4.8" height="2.4" fill="#0082E6"/>
<rect x="26.4" y="16.7998" width="4.8" height="2.4" fill="#0082E6"/>
<rect x="33.6" y="19.2002" width="2.4" height="4.8" fill="#0082E6"/>
<rect y="26.4004" width="2.4" height="2.4" fill="#FBD679"/>
<rect y="28.7998" width="2.4" height="2.4" fill="#FEC63A"/>
<rect x="2.40002" y="26.4004" width="4.8" height="4.8" fill="#C4001D"/>
<rect x="7.20001" y="26.4004" width="2.4" height="2.4" fill="#FBD679"/>
<rect x="7.20001" y="28.7998" width="2.4" height="2.4" fill="#FEC63A"/>
</g>
<defs>
<clipPath id="clip0_18167_25135">
<rect width="48" height="48" fill="white"/>
</clipPath>
</defs>
</svg>
