<svg width="48" height="48" viewBox="0 0 48 48" fill="none" xmlns="http://www.w3.org/2000/svg">
<rect width="4.8" height="7.2" transform="matrix(1 0 0 -1 9.6 19.1992)" fill="#044298"/>
<rect width="4.8" height="7.2" transform="matrix(1 0 0 -1 33.6 19.1992)" fill="#044298"/>
<rect width="4.8" height="2.4" transform="matrix(1 0 0 -1 12 9.59961)" fill="#044298"/>
<rect width="4.8" height="2.4" transform="matrix(1 0 0 -1 9.6 12)" fill="#044298"/>
<rect width="2.4" height="2.4" transform="matrix(1 0 0 -1 33.6 9.59961)" fill="#044298"/>
<rect width="4.8" height="2.4" transform="matrix(1 0 0 -1 33.6 12)" fill="#044298"/>
<rect width="19.2" height="2.4" transform="matrix(1 0 0 -1 14.4 7.19922)" fill="#044298"/>
<rect x="4.8" y="21.5996" width="14.4" height="14.4" fill="#044298"/>
<rect width="9.6" height="2.4" transform="matrix(1 0 0 -1 7.2 21.5996)" fill="#044298"/>
<rect width="9.6" height="2.4" transform="matrix(1 0 0 -1 7.2 38.3994)" fill="#044298"/>
<rect width="4.8" height="2.4" transform="matrix(1 0 0 -1 16.8 21.5996)" fill="#FA500F"/>
<rect width="2.4" height="2.4" transform="matrix(1 0 0 -1 14.4 21.5996)" fill="#55B3FB"/>
<rect width="4.8" height="2.4" transform="matrix(1 0 0 -1 16.8 38.3994)" fill="#FA500F"/>
<rect width="2.4" height="2.4" transform="matrix(1 0 0 -1 14.4 38.3994)" fill="#55B3FB"/>
<rect width="4.8" height="14.4" transform="matrix(1 0 0 -1 19.2 36)" fill="#FA500F"/>
<rect width="2.4" height="14.4" transform="matrix(1 0 0 -1 16.8 36)" fill="#55B3FB"/>
<rect x="26.4" y="21.5996" width="12" height="14.4" fill="#FA500F"/>
<rect width="7.2" height="2.4" transform="matrix(1 0 0 -1 28.8 21.5996)" fill="#FA500F"/>
<rect width="7.2" height="2.4" transform="matrix(1 0 0 -1 28.8 38.3994)" fill="#FA500F"/>
<rect width="2.4" height="2.4" transform="matrix(1 0 0 -1 38.4 21.5996)" fill="#044298"/>
<rect width="2.4" height="2.4" transform="matrix(1 0 0 -1 36 21.5996)" fill="#FF8204"/>
<rect width="2.4" height="2.4" transform="matrix(1 0 0 -1 38.4 38.3994)" fill="#044298"/>
<rect width="4.8" height="2.4" transform="matrix(1 0 0 -1 33.6 38.3994)" fill="#FF8204"/>
<rect width="2.4" height="14.4" transform="matrix(1 0 0 -1 40.8 36)" fill="#044298"/>
<rect width="2.4" height="14.4" transform="matrix(1 0 0 -1 38.4 36)" fill="#FF8204"/>
<rect x="31.2" y="21.5996" width="4.8" height="14.4" fill="#933800"/>
<rect x="28.8" y="21.5996" width="2.4" height="14.4" fill="#FF8204"/>
<rect x="36" y="38.3994" width="2.4" height="4.8" fill="#044298"/>
<rect x="36" y="45.5996" width="7.2" height="2.4" transform="rotate(180 36 45.5996)" fill="#044298"/>
<rect x="31.2" y="45.5996" width="4.8" height="4.8" transform="rotate(180 31.2 45.5996)" fill="#FF8204"/>
<rect x="26.4" y="45.5996" width="2.4" height="4.8" transform="rotate(180 26.4 45.5996)" fill="#933800"/>
<rect x="33.6" y="12" width="2.4" height="7.2" fill="#044298"/>
<rect x="31.2" y="9.59961" width="2.4" height="2.4" fill="#044298"/>
<rect x="16.8" y="7.19922" width="16.8" height="2.4" fill="#044298"/>
<rect x="14.4" y="9.59961" width="2.4" height="2.4" fill="#044298"/>
<rect x="7.2" y="21.5996" width="7.2" height="14.4" fill="#044298"/>
</svg>
