<svg width="40" height="40" viewBox="0 0 40 40" fill="none" xmlns="http://www.w3.org/2000/svg">
<rect x="13" y="7.98535" width="14" height="24.0146" fill="#94EACC"/>
<rect x="13" y="7.98535" width="14" height="24.0146" fill="#94EACC"/>
<rect x="13" y="7.98535" width="14" height="24.0146" fill="#94EACC"/>
<rect x="27" y="10" width="2" height="19.9854" fill="#94EACC"/>
<rect width="2" height="19.9854" transform="matrix(-1 0 0 1 13 10)" fill="#94EACC"/>
<rect x="29" y="12" width="2" height="16" fill="#94EACC"/>
<rect width="2" height="16" transform="matrix(-1 0 0 1 11 12)" fill="#94EACC"/>
<rect x="31" y="16" width="2" height="7.98535" fill="#94EACC"/>
<rect width="2" height="7.98535" transform="matrix(-1 0 0 1 9 16)" fill="#94EACC"/>
<rect x="23" y="6" width="2" height="2" fill="#44BA82"/>
<rect x="23" y="4" width="2" height="2" fill="#005737"/>
<rect x="23" y="34" width="2" height="2" fill="#005737"/>
<rect x="25" y="4" width="2" height="2" fill="#005737"/>
<rect x="25" y="6" width="2" height="2" fill="#44BA82"/>
<rect x="25" y="34" width="2" height="2" fill="#005737"/>
<rect x="21" y="4" width="2" height="2" fill="#005737"/>
<rect width="4" height="2" transform="matrix(1 0 0 -1 21 34)" fill="#44BA82"/>
<rect x="21" y="6" width="2" height="2" fill="#44BA82"/>
<rect x="21" y="34" width="2" height="2" fill="#005737"/>
<rect x="19" y="4" width="2" height="2" fill="#005737"/>
<rect width="2" height="2" transform="matrix(1 0 0 -1 19 34)" fill="#44BA82"/>
<rect width="2" height="2" transform="matrix(1 0 0 -1 25 34)" fill="#44BA82"/>
<rect x="17" y="4" width="2" height="2" fill="#005737"/>
<rect x="19" y="6" width="2" height="2" fill="#44BA82"/>
<rect x="19" y="34" width="2" height="2" fill="#005737"/>
<rect x="15" y="4" width="2" height="2" fill="#005737"/>
<rect width="2" height="2" transform="matrix(1 0 0 -1 17 34)" fill="#44BA82"/>
<rect x="17" y="6" width="2" height="2" fill="#44BA82"/>
<rect x="13" y="4" width="2" height="2" fill="#005737"/>
<rect x="17" y="34" width="2" height="2" fill="#005737"/>
<rect width="2" height="2" transform="matrix(1 0 0 -1 15 34)" fill="#44BA82"/>
<rect x="15" y="6" width="2" height="2" fill="#44BA82"/>
<rect x="15" y="34" width="2" height="2" fill="#005737"/>
<rect width="2" height="2" transform="matrix(1 0 0 -1 13 34)" fill="#44BA82"/>
<rect x="13" y="6" width="2" height="2" fill="#44BA82"/>
<rect x="13" y="34" width="2" height="2" fill="#005737"/>
<rect width="2" height="2" transform="matrix(1 0 0 -1 11 32)" fill="#44BA82"/>
<rect x="29" y="32" width="2" height="2" transform="rotate(180 29 32)" fill="#44BA82"/>
<rect x="11" y="8" width="2" height="2" fill="#44BA82"/>
<rect x="11" y="6" width="2" height="2" fill="#005737"/>
<rect width="2" height="2" transform="matrix(-1 0 0 1 29 6)" fill="#005737"/>
<rect width="2" height="2" transform="matrix(-1 0 0 1 29 8)" fill="#44BA82"/>
<rect width="2" height="2" transform="matrix(1 0 0 -1 9 30)" fill="#44BA82"/>
<rect x="31" y="30" width="2" height="2" transform="rotate(180 31 30)" fill="#44BA82"/>
<rect x="9" y="10" width="2" height="2" fill="#44BA82"/>
<rect x="9" y="8" width="2" height="2" fill="#005737"/>
<rect width="2" height="2" transform="matrix(-1 0 0 1 31 8)" fill="#005737"/>
<rect x="9" y="30" width="2" height="2" fill="#005737"/>
<rect width="2" height="2" transform="matrix(-1 0 0 1 31 30)" fill="#005737"/>
<rect width="2" height="2" transform="matrix(-1 0 0 1 31 10)" fill="#44BA82"/>
<rect width="2" height="2" transform="matrix(1 0 0 -1 7 28)" fill="#44BA82"/>
<rect x="33" y="28" width="2" height="2" transform="rotate(180 33 28)" fill="#44BA82"/>
<rect width="2" height="2" transform="matrix(1 0 0 -1 7 26)" fill="#44BA82"/>
<rect x="33" y="26" width="2" height="2" transform="rotate(180 33 26)" fill="#44BA82"/>
<rect x="7" y="12" width="2" height="2" fill="#44BA82"/>
<rect x="7" y="10" width="2" height="2" fill="#005737"/>
<rect width="2" height="2" transform="matrix(-1 0 0 1 33 10)" fill="#005737"/>
<rect x="7" y="28" width="2" height="2" fill="#005737"/>
<rect width="2" height="2" transform="matrix(-1 0 0 1 33 28)" fill="#005737"/>
<rect x="11" y="32" width="2" height="2" fill="#005737"/>
<rect width="2" height="2" transform="matrix(-1 0 0 1 29 32)" fill="#005737"/>
<rect x="5" y="12" width="2" height="4" fill="#005737"/>
<rect width="2" height="4" transform="matrix(-1 0 0 1 35 12)" fill="#005737"/>
<rect x="5" y="24" width="2" height="4" fill="#005737"/>
<rect width="2" height="4" transform="matrix(-1 0 0 1 35 24)" fill="#005737"/>
<rect x="3" y="16" width="2" height="8" fill="#005737"/>
<rect width="2" height="8" transform="matrix(-1 0 0 1 37 16)" fill="#005737"/>
<rect width="2" height="2" transform="matrix(-1 0 0 1 33 12)" fill="#44BA82"/>
<rect x="7" y="14" width="2" height="2" fill="#44BA82"/>
<rect width="2" height="2" transform="matrix(-1 0 0 1 33 14)" fill="#44BA82"/>
<rect x="5" y="16" width="2" height="2" fill="#44BA82"/>
<rect width="2" height="2" transform="matrix(-1 0 0 1 35 16)" fill="#44BA82"/>
<rect x="5" y="18" width="2" height="2" fill="#44BA82"/>
<rect width="2" height="2" transform="matrix(-1 0 0 1 35 18)" fill="#44BA82"/>
<rect x="5" y="20" width="2" height="2" fill="#44BA82"/>
<rect width="2" height="2" transform="matrix(-1 0 0 1 35 20)" fill="#44BA82"/>
<rect x="5" y="22" width="2" height="2" fill="#44BA82"/>
<rect width="2" height="2" transform="matrix(-1 0 0 1 35 22)" fill="#44BA82"/>
<rect x="19" y="8" width="2" height="24" fill="#44BA82"/>
<rect opacity="0.5" x="13" y="7.98535" width="4" height="10" fill="#F5F4EF"/>
<rect opacity="0.5" width="2" height="8.01465" transform="matrix(-1 0 0 1 19 7.98535)" fill="#F5F4EF"/>
<rect opacity="0.5" width="2" height="6.01465" transform="matrix(-1 0 0 1 23 7.98535)" fill="#F5F4EF"/>
<rect opacity="0.5" width="2" height="4" transform="matrix(-1 0 0 1 25 7.98535)" fill="#F5F4EF"/>
<rect opacity="0.5" width="2" height="2.01465" transform="matrix(-1 0 0 1 27 7.98535)" fill="#F5F4EF"/>
<rect opacity="0.5" x="11" y="9.98535" width="2" height="10" fill="#F5F4EF"/>
<rect opacity="0.5" x="9" y="11.9854" width="2" height="10" fill="#F5F4EF"/>
<rect opacity="0.5" x="7" y="15.9854" width="2" height="8" fill="#F5F4EF"/>
<rect x="17" y="15.9854" width="2" height="2" fill="#44BA82"/>
<rect width="2" height="2" transform="matrix(-1 0 0 1 23 15.9854)" fill="#44BA82"/>
<rect width="2" height="2" transform="matrix(-1 0 0 1 23 11.9854)" fill="#44BA82"/>
<rect x="17" y="11.9854" width="2" height="2" fill="#44BA82"/>
<rect width="2" height="2" transform="matrix(-1 0 0 1 25 12)" fill="#44BA82"/>
<rect x="15" y="12" width="2" height="2" fill="#44BA82"/>
<rect width="2" height="2" transform="matrix(-1 0 0 1 27 13.9854)" fill="#44BA82"/>
<rect width="2" height="2" transform="matrix(-1 0 0 1 29 12)" fill="#E61300"/>
<rect width="2" height="2" transform="matrix(-1 0 0 1 13 12)" fill="#E61300"/>
<rect width="2" height="2" transform="matrix(-1 0 0 1 23 18)" fill="#E61300"/>
<rect width="2" height="2" transform="matrix(-1 0 0 1 17 28)" fill="#E61300"/>
<rect width="2" height="2" transform="matrix(-1 0 0 1 29 25.9854)" fill="#E61300"/>
<rect x="13" y="13.9854" width="2" height="2" fill="#44BA82"/>
<rect width="2" height="2" transform="matrix(-1 0 0 1 29 21.9854)" fill="#44BA82"/>
<rect x="11" y="21.9854" width="2" height="2" fill="#44BA82"/>
<rect width="2" height="2" transform="matrix(-1 0 0 1 27 24)" fill="#44BA82"/>
<rect x="13" y="24" width="2" height="2" fill="#44BA82"/>
<rect width="2" height="2" transform="matrix(-1 0 0 1 25 26)" fill="#44BA82"/>
<rect x="15" y="26" width="2" height="2" fill="#44BA82"/>
<rect width="2" height="2" transform="matrix(-1 0 0 1 23 25.9854)" fill="#44BA82"/>
<rect x="17" y="25.9854" width="2" height="2" fill="#44BA82"/>
<rect width="2" height="6" transform="matrix(-1 0 0 1 29 16)" fill="#44BA82"/>
<rect x="11" y="16" width="2" height="6" fill="#44BA82"/>
<rect x="17" y="22" width="2" height="2" fill="#44BA82"/>
<rect width="2" height="2" transform="matrix(-1 0 0 1 23 22)" fill="#44BA82"/>
<rect x="15" y="17.9854" width="2" height="4.01465" fill="#44BA82"/>
<rect width="2" height="4.01465" transform="matrix(-1 0 0 1 25 17.9854)" fill="#44BA82"/>
<rect x="17" y="18.9854" width="2" height="10" transform="rotate(90 17 18.9854)" fill="#44BA82"/>
<rect x="35" y="18.9854" width="2" height="10" transform="rotate(90 35 18.9854)" fill="#44BA82"/>
</svg>
