<svg width="28" height="28" viewBox="0 0 28 28" fill="none" xmlns="http://www.w3.org/2000/svg">
<path d="M9.5198 9.80005H2.79999V14H14V9.80005H9.5198Z" fill="#0082E6"/>
<path d="M22.9599 15.4H19.6V18.2H25.2V15.4H22.9599Z" fill="#0082E6"/>
<path d="M12.3197 14H1.40002V18.2H19.6V14H12.3197Z" fill="#0082E6"/>
<path d="M12.6 16.7997V11.2H11.2006V12.5993H9.80001V13.9998H8.40056V12.5993H7.00001V11.2H5.59947V16.7997H4.20001V18.2002H8.40056V16.7997H7.00001V15.4003H8.40056V16.7997H9.80001V15.4003H11.2006V16.7997H9.80001V18.2002H14.0006V16.7997H12.6Z" fill="#F5F4EF"/>
<path d="M16.5196 18.2H1.40002V19.6H26.6V18.2H16.5196Z" fill="#933800"/>
<path d="M2.24 19.6H1.40002V21H2.80002V19.6H2.24Z" fill="#E61300"/>
<path d="M2.24 21H1.40002V22.4H2.80002V21H2.24Z" fill="#151524"/>
<path d="M26.04 19.6H25.2V21H26.6V19.6H26.04Z" fill="#151524"/>
<path d="M16.2396 19.6H2.79999V21H25.2V19.6H16.2396Z" fill="#F5F4EF"/>
<path d="M16.2396 21H2.79999V22.4H25.2V21H16.2396Z" fill="#151524"/>
<path d="M24.64 15.4H23.8V16.8H25.2V15.4H24.64Z" fill="#044298"/>
<path d="M26.04 15.4H25.2V16.8H26.6V15.4H26.04Z" fill="#044298"/>
<path d="M24.64 16.8H23.8V18.2H25.2V16.8H24.64Z" fill="#0082E6"/>
<path d="M26.04 16.8H25.2V18.2H26.6V16.8H26.04Z" fill="#0082E6"/>
<path d="M16.24 11.2H15.4V12.6H16.8V11.2H16.24Z" fill="#044298"/>
<path d="M13.44 9.80005H12.6V11.2H14V9.80005H13.44Z" fill="#044298"/>
<path d="M12.04 8.40002H11.2V9.80002H12.6V8.40002H12.04Z" fill="#044298"/>
<path d="M10.6487 7H9.80872V8.4H11.2087V7H10.6487Z" fill="#044298"/>
<path d="M9.24867 5.59998H8.40869V6.99998H9.80869V5.59998H9.24867Z" fill="#044298"/>
<path d="M9.24867 4.19995H8.40869V5.59995H9.80869V4.19995H9.24867Z" fill="#044298"/>
<path d="M7.84864 4.19995H7.00867V5.59995H8.40867V4.19995H7.84864Z" fill="#0082E6"/>
<path d="M7.84864 5.59998H7.00867V6.99998H8.40867V5.59998H7.84864Z" fill="#0082E6"/>
<path d="M7.84864 7H7.00867V8.4H8.40867V7H7.84864Z" fill="#0082E6"/>
<path d="M7.83998 8.40002H7V9.80002H8.4V8.40002H7.83998Z" fill="#0082E6"/>
<path d="M10.64 8.40002H9.79999V9.80002H11.2V8.40002H10.64Z" fill="#0082E6"/>
<path d="M9.24 12.6H8.40002V14H9.80002V12.6H9.24Z" fill="#044298"/>
<path d="M7.83998 11.2H7V12.6H8.4V11.2H7.83998Z" fill="#044298"/>
<path d="M10.64 11.2H9.79999V12.6H11.2V11.2H10.64Z" fill="#044298"/>
<path d="M7.83998 15.4H7V16.8H8.4V15.4H7.83998Z" fill="#044298"/>
<path d="M9.24 16.8H8.40002V18.2H9.80002V16.8H9.24Z" fill="#044298"/>
<path d="M10.64 15.4H9.79999V16.8H11.2V15.4H10.64Z" fill="#044298"/>
<path d="M13.44 15.4H12.6V16.8H14V15.4H13.44Z" fill="#044298"/>
<path d="M5.03999 15.4H4.20001V16.8H5.60001V15.4H5.03999Z" fill="#044298"/>
<path d="M12.04 9.80005H11.2V11.2H12.6V9.80005H12.04Z" fill="#0082E6"/>
<path d="M16.24 12.6H15.4V14H16.8V12.6H16.24Z" fill="#0082E6"/>
<path d="M23.24 15.4H22.4V16.8H23.8V15.4H23.24Z" fill="#0082E6"/>
<path d="M14.84 12.6H14V14H15.4V12.6H14.84Z" fill="#0082E6"/>
<path d="M17.64 14H16.8V15.4H18.2V14H17.64Z" fill="#0082E6"/>
<path d="M17.64 12.6H16.8V14H18.2V12.6H17.64Z" fill="#044298"/>
<path d="M20.44 14H19.6V15.4H21V14H20.44Z" fill="#044298"/>
<path d="M19.04 14H18.2V15.4H19.6V14H19.04Z" fill="#0082E6"/>
<path d="M19.04 12.6H18.2V14H19.6V12.6H19.04Z" fill="#044298"/>
<path d="M21.84 14H21V15.4H22.4V14H21.84Z" fill="#044298"/>
<path d="M23.24 14H22.4V15.4H23.8V14H23.24Z" fill="#044298"/>
<path d="M21.84 15.4H21V16.8H22.4V15.4H21.84Z" fill="#0082E6"/>
<path d="M9.24 8.40002H8.40002V9.80002H9.80002V8.40002H9.24Z" fill="#151524"/>
<path d="M13.44 11.2H12.6V12.6H14V11.2H13.44Z" fill="#151524"/>
<path d="M17.64 14H16.8V15.4H18.2V14H17.64Z" fill="#151524"/>
<path d="M20.44 15.4H19.6V16.8H21V15.4H20.44Z" fill="#151524"/>
<path d="M14.84 11.2H14V12.6H15.4V11.2H14.84Z" fill="#044298"/>
<path d="M6.44868 7H5.6087V8.4H7.0087V7H6.44868Z" fill="#0082E6"/>
<path d="M9.24867 7H8.40869V8.4H9.80869V7H9.24867Z" fill="#0082E6"/>
<path d="M7.84864 2.80005H7.00867V4.20005H8.40867V2.80005H7.84864Z" fill="#044298"/>
<path d="M6.44868 4.19995H5.6087V5.59995H7.0087V4.19995H6.44868Z" fill="#044298"/>
<path d="M6.44868 5.59998H5.6087V6.99998H7.0087V5.59998H6.44868Z" fill="#044298"/>
<path d="M5.04866 7H4.20868V8.4H5.60868V7H5.04866Z" fill="#0082E6"/>
<path d="M6.43995 8.40002H5.59998V9.80002H6.99998V8.40002H6.43995Z" fill="#0082E6"/>
<path d="M3.64869 7H2.80872V8.4H4.20872V7H3.64869Z" fill="#0082E6"/>
<path d="M5.03999 8.40002H4.20001V9.80002H5.60001V8.40002H5.03999Z" fill="#0082E6"/>
<path d="M2.24867 7H1.40869V8.4H2.80869V7H2.24867Z" fill="#044298"/>
<path d="M3.63996 9.80005H2.79999V11.2H4.19999V9.80005H3.63996Z" fill="#044298"/>
<path d="M3.63996 12.6H2.79999V14H4.19999V12.6H3.63996Z" fill="#044298"/>
<path d="M2.24 15.4H1.40002V16.8H2.80002V15.4H2.24Z" fill="#044298"/>
<path d="M2.24867 5.59998H1.40869V6.99998H2.80869V5.59998H2.24867Z" fill="#044298"/>
<path d="M3.63996 8.40002H2.79999V9.80002H4.19999V8.40002H3.63996Z" fill="#044298"/>
<path d="M3.63996 11.2H2.79999V12.6H4.19999V11.2H3.63996Z" fill="#044298"/>
<path d="M2.24 14H1.40002V15.4H2.80002V14H2.24Z" fill="#044298"/>
<path d="M2.24 16.8H1.40002V18.2H2.80002V16.8H2.24Z" fill="#044298"/>
<path d="M15.3 19.6H15.2H15.1H15H14.9H14.8H14.7H14.6H14.5H14.4H14.3H14.2H14.1H14H13.9H13.8H13.7H13.6H13.5H13.4H13.3H13.2H13.1H13H12.9H12.8H12.7H12.6H12.5H12.4H12.3H12.2H12.1H12H11.9H11.8H11.7H11.6H11.5H11.4H11.3H11.2V21H11.3H11.4H11.5H11.6H11.7H11.8H11.9H12H12.1H12.2H12.3H12.4H12.5H12.6H12.7H12.8H12.9H13H13.1H13.2H13.3H13.4H13.5H13.6H13.7H13.8H13.9H14H14.1H14.2H14.3H14.4H14.5H14.6H14.7H14.8H14.9H15H15.1H15.2H15.3H15.4V19.6H15.3Z" fill="#FFAF01"/>
<path d="M11.1 19.6H11H10.9H10.8H10.7H10.6H10.5H10.4H10.3H10.2H10.1H9.99998H9.89997H9.8H9.69999H9.59998H9.50001H9.39999H9.29998H9.19997H9.1H8.99999H8.89998H8.80001H8.69999H8.59998H8.49997H8.4H8.29999H8.19998H8.10001H7.99999H7.89998H7.79997H7.7H7.59999H7.49998H7.40001H7.29999H7.19998H7.09997H7V21H7.09997H7.19998H7.29999H7.40001H7.49998H7.59999H7.7H7.79997H7.89998H7.99999H8.10001H8.19998H8.29999H8.4H8.49997H8.59998H8.69999H8.80001H8.89998H8.99999H9.1H9.19997H9.29998H9.39999H9.50001H9.59998H9.69999H9.8H9.89997H9.99998H10.1H10.2H10.3H10.4H10.5H10.6H10.7H10.8H10.9H11H11.1H11.2V19.6H11.1Z" fill="#FF8204"/>
<path d="M6.89998 19.6H6.79996H6.69999H6.59998H6.49997H6.39996H6.29999H6.19998H6.09996H5.99999H5.89998H5.79997H5.69996H5.59999H5.49998H5.39996H5.29999H5.19998H5.09997H4.99996H4.89999H4.79998H4.69996H4.59999H4.49998H4.39997H4.29996H4.19999H4.09998H3.99996H3.89999H3.79998H3.69997H3.59996H3.49999H3.39998H3.29996H3.19999H3.09998H2.99997H2.89996H2.79999V21H2.89996H2.99997H3.09998H3.19999H3.29996H3.39998H3.49999H3.59996H3.69997H3.79998H3.89999H3.99996H4.09998H4.19999H4.29996H4.39997H4.49998H4.59999H4.69996H4.79998H4.89999H4.99996H5.09997H5.19998H5.29999H5.39996H5.49998H5.59999H5.69996H5.79997H5.89998H5.99999H6.09996H6.19998H6.29999H6.39996H6.49997H6.59998H6.69999H6.79996H6.89998H6.99999V19.6H6.89998Z" fill="#FA500F"/>
</svg>
