<svg width="56" height="56" viewBox="0 0 56 56" fill="none" xmlns="http://www.w3.org/2000/svg">
<rect x="14" y="19.6174" width="28" height="25.1826" fill="#B9DAFF"/>
<rect x="14" y="25.2" width="28" height="14" fill="#044298"/>
<path d="M34.0006 14.4204L34.0006 4.90002L31.5991 4.90002L31.5991 7.28166L29.1997 7.28166L29.1997 9.66125L26.8003 9.66125L26.8003 7.28166L24.4009 7.28166L24.4009 4.90002L22.0014 4.90002L22.0014 14.4204L19.6 14.4204L19.6 16.8L26.8003 16.8L26.8003 14.4204L24.4009 14.4204L24.4009 12.0408L26.8003 12.0408L26.8003 14.4204L29.1997 14.4204L29.1997 12.0408L31.5991 12.0408L31.5991 14.4204L29.1997 14.4204L29.1997 16.8L36.4 16.8L36.4 14.4204L34.0006 14.4204Z" fill="#044298"/>
<rect x="11.2" y="42" width="2.8" height="19.6" transform="rotate(180 11.2 42)" fill="#0082E6"/>
<rect x="14" y="42" width="2.8" height="19.6" transform="rotate(180 14 42)" fill="#B9DAFF"/>
<rect x="44.8" y="42" width="2.8" height="19.6" transform="rotate(180 44.8 42)" fill="#0082E6"/>
<rect x="5.59998" y="39.2" width="2.8" height="11.2" transform="rotate(180 5.59998 39.2)" fill="#0082E6"/>
<rect x="8.40002" y="35" width="2.8" height="2.8" transform="rotate(180 8.40002 35)" fill="#0082E6"/>
<rect x="50.4" y="35" width="2.8" height="2.8" transform="rotate(180 50.4 35)" fill="#044298"/>
<rect x="53.2" y="39.2" width="2.8" height="11.2" transform="rotate(180 53.2 39.2)" fill="#044298"/>
<rect x="44.8" y="22.4" width="2.8" height="19.6" fill="#044298"/>
<rect x="42" y="16.8" width="2.8" height="28" transform="rotate(90 42 16.8)" fill="#0082E6"/>
<rect x="42" y="44.8" width="2.8" height="28" transform="rotate(90 42 44.8)" fill="#044298"/>
<rect x="14" y="22.4" width="2.8" height="2.8" transform="rotate(180 14 22.4)" fill="#0082E6"/>
<rect x="42" y="42" width="2.8" height="2.8" fill="#044298"/>
<rect x="14" y="44.8" width="2.8" height="2.8" transform="rotate(180 14 44.8)" fill="#044298"/>
<rect x="42" y="19.6" width="2.8" height="2.8" fill="#0082E6"/>
<rect x="19.6" y="28" width="5.6" height="5.6" fill="#94EACC"/>
<rect x="30.8" y="28" width="5.6" height="5.6" fill="#94EACC"/>
<rect x="14" y="19.5258" width="28" height="2.87417" fill="#B9DAFF"/>
</svg>
