<svg width="56" height="56" viewBox="0 0 56 56" fill="none" xmlns="http://www.w3.org/2000/svg">
<path d="M15.75 14H46.55V53.2H15.75V14Z" fill="#B9DAFF"/>
<path d="M15.75 11.2002H46.55V14.0002H15.75V11.2002Z" fill="#55B3FB"/>
<path d="M10.15 11.2002H15.75V14.0002H10.15V11.2002Z" fill="#0082E6"/>
<path d="M18.55 11.2002H49.35V5.6002H18.55V11.2002Z" fill="#6F6F84"/>
<path d="M15.75 14H7.35V53.2H15.75V14Z" fill="#55B3FB"/>
<path d="M15.75 5.59961H7.35V11.1996H15.75V5.59961Z" fill="#4D4D61"/>
<path d="M18.55 2.7998H15.75V53.1998H18.55V2.7998Z" fill="#044298"/>
<path d="M49.35 11.2002H46.55V53.2002H49.35V11.2002Z" fill="#044298"/>
<path d="M10.15 11.2002H7.35002V53.2002H10.15V11.2002Z" fill="#044298"/>
<path d="M7.34998 2.7998H49.35V5.5998H7.34998V2.7998Z" fill="#044298"/>
<path d="M3.84998 50.4004H52.15V53.2004H3.84998V50.4004Z" fill="#044298"/>
<path d="M4.54999 8.40039H49.35V11.2004H4.54999V8.40039Z" fill="#044298"/>
<path d="M4.54999 8.40039H7.34999V11.2004H4.54999V8.40039Z" fill="#044298"/>
<path d="M49.35 8.40039H52.15V11.2004H49.35V8.40039Z" fill="#044298"/>
<path d="M4.54999 5.59961H7.34999V8.39961H4.54999V5.59961Z" fill="#044298"/>
<path d="M49.35 5.59961H52.15V8.39961H49.35V5.59961Z" fill="#044298"/>
<path d="M29.75 39.2002H35.35V50.4002H29.75V39.2002Z" fill="#FA500F"/>
<path d="M21.35 16.7998H26.95V25.1998H21.35V16.7998Z" fill="#0082E6"/>
<path d="M21.35 28H26.95V36.4H21.35V28Z" fill="#0082E6"/>
<path d="M21.35 39.2002H26.95V47.6002H21.35V39.2002Z" fill="#0082E6"/>
<path d="M29.75 16.7998H35.35V25.1998H29.75V16.7998Z" fill="#0082E6"/>
<path d="M29.75 28H35.35V36.4H29.75V28Z" fill="#0082E6"/>
<path d="M38.15 16.7998H43.75V25.1998H38.15V16.7998Z" fill="#0082E6"/>
<path d="M38.15 28H43.75V36.4H38.15V28Z" fill="#0082E6"/>
<path d="M38.15 39.2002H43.75V47.6002H38.15V39.2002Z" fill="#0082E6"/>
<path d="M21.35 16.7998H24.15V19.5998H21.35V16.7998Z" fill="#55B3FB"/>
<path d="M21.35 28H24.15V30.8H21.35V28Z" fill="#55B3FB"/>
<path d="M21.35 39.2002H24.15V42.0002H21.35V39.2002Z" fill="#55B3FB"/>
<path d="M29.75 16.7998H32.55V19.5998H29.75V16.7998Z" fill="#55B3FB"/>
<path d="M29.75 28H32.55V30.8H29.75V28Z" fill="#55B3FB"/>
<path d="M38.15 16.7998H40.95V19.5998H38.15V16.7998Z" fill="#55B3FB"/>
<path d="M38.15 28H40.95V30.8H38.15V28Z" fill="#55B3FB"/>
<path d="M38.15 39.2002H40.95V42.0002H38.15V39.2002Z" fill="#55B3FB"/>
<path d="M24.15 22.4004H26.95V25.2004H24.15V22.4004Z" fill="#55B3FB"/>
<path d="M24.15 33.5996H26.95V36.3996H24.15V33.5996Z" fill="#55B3FB"/>
<path d="M24.15 44.7998H26.95V47.5998H24.15V44.7998Z" fill="#55B3FB"/>
<path d="M32.55 22.4004H35.35V25.2004H32.55V22.4004Z" fill="#55B3FB"/>
<path d="M32.55 33.5996H35.35V36.3996H32.55V33.5996Z" fill="#55B3FB"/>
<path d="M40.95 22.4004H43.75V25.2004H40.95V22.4004Z" fill="#55B3FB"/>
<path d="M40.95 33.5996H43.75V36.3996H40.95V33.5996Z" fill="#55B3FB"/>
<path d="M40.95 44.7998H43.75V47.5998H40.95V44.7998Z" fill="#55B3FB"/>
<rect x="29.75" y="39.2002" width="2.8" height="11.2" fill="#E61300"/>
</svg>
