<svg width="56" height="56" viewBox="0 0 56 56" fill="none" xmlns="http://www.w3.org/2000/svg">
<rect x="14" y="33.6001" width="28" height="2.8" fill="#FF8204"/>
<rect x="14" y="36.3999" width="28" height="2.8" fill="#FF8204"/>
<rect x="16.8" y="39.2" width="22.4" height="2.8" fill="#933800"/>
<rect x="16.8" y="42" width="22.4" height="2.8" fill="#FF8204"/>
<rect x="16.8" y="44.8" width="22.4" height="2.8" fill="#FF8204"/>
<rect x="16.8" y="47.6001" width="22.4" height="2.8" fill="#FF8204"/>
<rect x="19.6" y="50.3999" width="16.8" height="2.8" fill="#FA500F"/>
<rect x="28" y="33.6001" width="11.2" height="5.6" fill="#FA500F"/>
<rect x="30.8" y="42" width="5.6" height="8.4" fill="#FA500F"/>
<rect x="33.6" y="42" width="2.8" height="8.4" fill="#E61300"/>
<rect x="30.8" y="50.3999" width="2.8" height="2.8" fill="#E61300"/>
<rect x="36.4" y="33.6001" width="2.8" height="5.6" fill="#E61300"/>
<rect x="36.4" y="42" width="2.8" height="8.4" fill="#933800"/>
<rect x="39.2" y="33.6001" width="2.8" height="5.6" fill="#933800"/>
<rect x="33.6" y="50.3999" width="2.8" height="2.8" fill="#933800"/>
<rect x="18.2" y="34.3" width="2.8" height="2.8" transform="rotate(90 18.2 34.3)" fill="#FEC63A"/>
<rect x="21" y="43.3999" width="2.8" height="2.8" transform="rotate(90 21 43.3999)" fill="#FEC63A"/>
<rect x="26.6" y="25.2" width="2.8" height="8.4" fill="#55B3FB"/>
<rect x="29.4" y="25.2" width="11.2" height="2.8" fill="#55B3FB"/>
<rect x="21" y="16.8" width="14" height="2.8" fill="#55B3FB"/>
<rect x="15.4" y="25.2" width="11.2" height="2.8" fill="#55B3FB"/>
<rect x="26.6" y="11.2" width="2.8" height="14" fill="#55B3FB"/>
<rect x="37.8" y="22.3999" width="2.8" height="2.8" fill="#55B3FB"/>
<rect x="15.4" y="22.3999" width="2.8" height="2.8" fill="#55B3FB"/>
<rect x="23.8" y="2.80005" width="8.4" height="8.4" fill="#55B3FB"/>
<rect x="35" y="14" width="8.4" height="8.4" fill="#55B3FB"/>
<rect x="12.6" y="14" width="8.4" height="8.4" fill="#55B3FB"/>
<rect x="26.6" y="5.6001" width="2.8" height="2.8" fill="#F5F4EF"/>
<rect x="37.8" y="16.8" width="2.8" height="2.8" fill="#F5F4EF"/>
<rect x="15.4" y="16.8" width="2.8" height="2.8" fill="#F5F4EF"/>
<rect x="40.6" y="19.6001" width="2.8" height="2.8" fill="#044298"/>
<rect x="37.8" y="22.3999" width="2.8" height="2.8" fill="#044298"/>
<rect x="15.4" y="22.3999" width="2.8" height="2.8" fill="#044298"/>
<rect x="26.6" y="11.2" width="2.8" height="2.8" fill="#044298"/>
<rect x="21" y="16.8" width="2.8" height="2.8" fill="#044298"/>
<rect x="32.2" y="16.8" width="2.8" height="2.8" fill="#044298"/>
<rect x="26.6" y="28" width="2.8" height="2.8" fill="#55B3FB"/>
<rect x="23.8" y="30.8" width="2.8" height="2.8" fill="#044298"/>
<rect x="29.4" y="30.8" width="2.8" height="2.8" fill="#044298"/>
<rect x="26.6" y="25.2" width="2.8" height="2.8" fill="#044298"/>
<rect x="29.4" y="8.3999" width="2.8" height="2.8" fill="#044298"/>
<rect x="23.8" y="2.80005" width="2.8" height="2.8" fill="#B9DAFF"/>
<rect x="12.6" y="14" width="2.8" height="2.8" fill="#B9DAFF"/>
<rect x="35" y="14" width="2.8" height="2.8" fill="#B9DAFF"/>
</svg>
