<svg width="48" height="48" viewBox="0 0 48 48" fill="none" xmlns="http://www.w3.org/2000/svg">
<rect width="31.2" height="4.8" transform="matrix(1 0 0 -1 9.59998 21.6001)" fill="#B8B8CC"/>
<rect width="21.6" height="4.8" transform="matrix(1 0 0 -1 14.4 16.7998)" fill="#B8B8CC"/>
<rect width="12" height="2.4" transform="matrix(1 0 0 -1 19.2 12)" fill="#B8B8CC"/>
<rect width="26.4" height="9.6" transform="matrix(1 0 0 -1 9.59998 40.7998)" fill="#B8B8CC"/>
<rect x="7.19995" y="21.6001" width="33.6" height="9.6" fill="#B8B8CC"/>
<rect x="4.80005" y="21.6001" width="2.4" height="12" fill="#4D4D61"/>
<rect x="7.19995" y="33.6001" width="2.4" height="7.2" fill="#4D4D61"/>
<rect x="9.59998" y="40.7998" width="9.6" height="2.4" fill="#4D4D61"/>
<rect x="24" y="40.7998" width="12" height="2.4" fill="#4D4D61"/>
<rect x="19.2" y="38.3999" width="4.8" height="2.4" fill="#4D4D61"/>
<rect x="7.19995" y="19.2002" width="2.4" height="2.4" fill="#4D4D61"/>
<rect x="9.59998" y="16.7998" width="2.4" height="2.4" fill="#4D4D61"/>
<rect x="12" y="14.3999" width="2.4" height="2.4" fill="#4D4D61"/>
<rect x="14.4" y="12" width="2.4" height="2.4" fill="#4D4D61"/>
<rect x="16.8" y="9.6001" width="2.4" height="2.4" fill="#4D4D61"/>
<rect x="31.2" y="9.6001" width="2.4" height="2.4" fill="#4D4D61"/>
<rect x="33.6" y="12" width="2.4" height="2.4" fill="#4D4D61"/>
<rect x="40.8" y="16.7998" width="2.4" height="19.2" fill="#4D4D61"/>
<rect x="38.4" y="31.2002" width="2.4" height="7.2" fill="#4D4D61"/>
<rect x="36" y="36" width="2.4" height="4.8" fill="#4D4D61"/>
<rect x="36" y="14.3999" width="4.8" height="2.4" fill="#4D4D61"/>
<rect x="19.2" y="7.2002" width="12" height="2.4" fill="#4D4D61"/>
<rect x="31.2" y="12" width="2.4" height="2.4" fill="#4D4D61"/>
<rect x="31.2" y="14.3999" width="2.4" height="2.4" fill="#4D4D61"/>
<rect x="28.8" y="16.7998" width="2.4" height="2.4" fill="#4D4D61"/>
<rect x="31.2" y="16.7998" width="2.4" height="2.4" fill="#4D4D61"/>
<rect x="31.2" y="19.2002" width="2.4" height="2.4" fill="#4D4D61"/>
<rect x="28.8" y="19.2002" width="2.4" height="2.4" fill="#4D4D61"/>
<rect x="28.8" y="21.6001" width="2.4" height="2.4" fill="#4D4D61"/>
<rect x="26.4" y="19.2002" width="2.4" height="2.4" fill="#4D4D61"/>
<rect x="24" y="21.6001" width="2.4" height="2.4" fill="#4D4D61"/>
<rect x="21.6" y="24" width="2.4" height="2.4" fill="#4D4D61"/>
<rect x="19.2" y="26.3999" width="2.4" height="2.4" fill="#4D4D61"/>
<rect x="26.4" y="21.6001" width="2.4" height="2.4" fill="#4D4D61"/>
<rect x="26.4" y="24" width="2.4" height="2.4" fill="#4D4D61"/>
<rect x="24" y="24" width="2.4" height="2.4" fill="#4D4D61"/>
<rect x="24" y="26.3999" width="2.4" height="2.4" fill="#4D4D61"/>
<rect x="21.6" y="26.3999" width="2.4" height="7.2" fill="#4D4D61"/>
<rect x="19.2" y="28.7998" width="2.4" height="2.4" fill="#4D4D61"/>
<rect x="19.2" y="36" width="2.4" height="2.4" fill="#4D4D61"/>
<rect x="16.8" y="38.3999" width="2.4" height="2.4" fill="#4D4D61"/>
<rect x="21.6" y="36" width="2.4" height="2.4" fill="#4D4D61"/>
<rect x="21.6" y="33.6001" width="2.4" height="2.4" fill="#4D4D61"/>
<rect x="33.6" y="38.3999" width="2.4" height="2.4" fill="#4D4D61"/>
<rect x="33.6" y="36" width="2.4" height="2.4" fill="#4D4D61"/>
<rect x="31.2" y="33.6001" width="2.4" height="2.4" fill="#4D4D61"/>
<rect x="31.2" y="38.3999" width="2.4" height="2.4" fill="#4D4D61"/>
<rect x="36" y="33.6001" width="2.4" height="2.4" fill="#4D4D61"/>
<rect x="36" y="31.2002" width="2.4" height="2.4" fill="#6F6F84"/>
<rect x="38.4" y="16.7998" width="2.4" height="2.4" fill="#4D4D61"/>
<rect x="36" y="16.7998" width="2.4" height="2.4" fill="#4D4D61"/>
<rect x="9.59998" y="38.3999" width="7.2" height="2.4" fill="#6F6F84"/>
<rect x="14.4" y="36" width="4.8" height="2.4" fill="#6F6F84"/>
<rect x="9.59998" y="36" width="2.4" height="2.4" fill="#6F6F84"/>
<rect x="9.59998" y="31.2002" width="2.4" height="2.4" fill="#6F6F84"/>
<rect x="7.19995" y="31.2002" width="2.4" height="2.4" fill="#6F6F84"/>
<rect x="31.2" y="36" width="2.4" height="2.4" fill="#6F6F84"/>
<rect x="33.6" y="33.6001" width="2.4" height="2.4" fill="#6F6F84"/>
<rect x="33.6" y="31.2002" width="2.4" height="2.4" fill="#6F6F84"/>
<rect x="36" y="28.7998" width="2.4" height="2.4" fill="#6F6F84"/>
<rect x="38.4" y="19.2002" width="2.4" height="12" fill="#6F6F84"/>
<rect x="33.6" y="19.2002" width="4.8" height="2.4" fill="#6F6F84"/>
<rect x="19.2" y="33.6001" width="2.4" height="2.4" fill="#6F6F84"/>
<rect x="24" y="33.6001" width="7.2" height="7.2" fill="#6F6F84"/>
<rect x="7.19995" y="26.3999" width="12" height="4.8" fill="#6F6F84"/>
<rect x="12" y="31.2002" width="7.2" height="2.4" fill="#DCDCE8"/>
<rect x="7.19995" y="21.6001" width="2.4" height="2.4" fill="#DCDCE8"/>
<rect x="9.59998" y="19.2002" width="2.4" height="2.4" fill="#DCDCE8"/>
<rect x="12" y="16.7998" width="2.4" height="2.4" fill="#DCDCE8"/>
<rect x="14.4" y="14.3999" width="2.4" height="2.4" fill="#DCDCE8"/>
<rect x="16.8" y="12" width="2.4" height="2.4" fill="#DCDCE8"/>
<rect x="31.2" y="31.2002" width="2.4" height="2.4" fill="#DCDCE8"/>
<rect x="33.6" y="28.7998" width="2.4" height="2.4" fill="#DCDCE8"/>
<rect x="19.2" y="9.6001" width="12" height="2.4" fill="#DCDCE8"/>
<rect x="24" y="31.2002" width="7.2" height="2.4" fill="#DCDCE8"/>
</svg>
