<svg width="28" height="28" viewBox="0 0 28 28" fill="none" xmlns="http://www.w3.org/2000/svg">
<rect x="12.6001" y="2.79999" width="1.4" height="1.4" fill="#FF92DC"/>
<rect x="14" y="2.79999" width="1.4" height="1.4" fill="#F5F4EF"/>
<rect x="15.3999" y="4.20001" width="1.4" height="1.4" fill="#83075C"/>
<rect x="15.3999" y="5.60001" width="1.4" height="1.4" fill="#83075C"/>
<rect x="15.3999" y="7" width="1.4" height="1.4" fill="#83075C"/>
<rect x="16.8" y="8.39999" width="1.4" height="1.4" fill="#83075C"/>
<rect x="16.8" y="9.79999" width="1.4" height="1.4" fill="#83075C"/>
<rect x="16.8" y="11.2" width="1.4" height="1.4" fill="#83075C"/>
<rect x="16.8" y="12.6" width="1.4" height="1.4" fill="#83075C"/>
<rect x="16.8" y="14" width="1.4" height="1.4" fill="#83075C"/>
<rect x="18.2" y="14" width="1.4" height="1.4" fill="#CE1493"/>
<rect x="19.6001" y="12.6" width="1.4" height="1.4" fill="#FF92DC"/>
<rect x="21" y="12.6" width="1.4" height="1.4" fill="#FF92DC"/>
<rect x="22.3999" y="12.6" width="1.4" height="1.4" fill="#FF92DC"/>
<rect x="23.8" y="12.6" width="1.4" height="1.4" fill="#CE1493"/>
<rect x="23.8" y="14" width="1.4" height="1.4" fill="#CE1493"/>
<rect x="23.8" y="15.4" width="1.4" height="1.4" fill="#CE1493"/>
<rect x="23.8" y="16.8" width="1.4" height="1.4" fill="#83075C"/>
<rect x="23.8" y="18.2" width="1.4" height="1.4" fill="#83075C"/>
<rect x="22.3999" y="19.6" width="1.4" height="1.4" fill="#83075C"/>
<rect x="21" y="21" width="1.4" height="1.4" fill="#83075C"/>
<rect x="19.6001" y="22.4" width="1.4" height="1.4" fill="#83075C"/>
<rect x="18.2" y="23.8" width="1.4" height="1.4" fill="#83075C"/>
<rect x="16.8" y="23.8" width="1.4" height="1.4" fill="#83075C"/>
<rect x="15.3999" y="23.8" width="1.4" height="1.4" fill="#83075C"/>
<rect x="11.2" y="4.20001" width="1.4" height="1.4" fill="#CE1493"/>
<rect x="9.80005" y="5.60001" width="1.4" height="1.4" fill="#CE1493"/>
<rect x="9.80005" y="7" width="1.4" height="1.4" fill="#CE1493"/>
<rect x="9.80005" y="8.39999" width="1.4" height="1.4" fill="#CE1493"/>
<rect x="8.3999" y="9.79999" width="1.4" height="1.4" fill="#CE1493"/>
<rect x="8.3999" y="11.2" width="1.4" height="1.4" fill="#CE1493"/>
<rect x="8.3999" y="12.6" width="1.4" height="1.4" fill="#CE1493"/>
<rect x="8.3999" y="14" width="1.4" height="1.4" fill="#CE1493"/>
<rect x="8.3999" y="15.4" width="1.4" height="1.4" fill="#83075C"/>
<rect x="9.80005" y="16.8" width="1.4" height="1.4" fill="#83075C"/>
<rect x="11.2" y="18.2" width="1.4" height="1.4" fill="#83075C"/>
<rect x="12.6001" y="19.6" width="1.4" height="1.4" fill="#83075C"/>
<rect x="16.8" y="15.4" width="1.4" height="1.4" fill="#83075C"/>
<rect x="15.3999" y="16.8" width="1.4" height="1.4" fill="#83075C"/>
<rect x="14" y="18.2" width="1.4" height="1.4" fill="#83075C"/>
<rect x="14" y="21" width="1.4" height="1.4" fill="#83075C"/>
<rect x="15.3999" y="22.4" width="1.4" height="1.4" fill="#83075C"/>
<rect x="7" y="14" width="1.4" height="1.4" fill="#83075C"/>
<rect x="5.6001" y="12.6" width="1.4" height="1.4" fill="#83075C"/>
<rect x="4.19995" y="11.2" width="1.4" height="1.4" fill="#FF92DC"/>
<rect x="2.80005" y="11.2" width="1.4" height="1.4" fill="#FF92DC"/>
<rect x="1.3999" y="11.2" width="1.4" height="1.4" fill="#CE1493"/>
<rect x="1.3999" y="12.6" width="1.4" height="1.4" fill="#CE1493"/>
<rect x="1.3999" y="14" width="1.4" height="1.4" fill="#CE1493"/>
<rect x="1.3999" y="15.4" width="1.4" height="1.4" fill="#CE1493"/>
<rect x="1.3999" y="16.8" width="1.4" height="1.4" fill="#CE1493"/>
<rect x="2.80005" y="18.2" width="1.4" height="1.4" fill="#83075C"/>
<rect x="4.19995" y="19.6" width="1.4" height="1.4" fill="#83075C"/>
<rect x="5.6001" y="21" width="1.4" height="1.4" fill="#83075C"/>
<rect x="4.19995" y="21" width="1.4" height="1.4" fill="#CE1493"/>
<rect x="2.80005" y="22.4" width="1.4" height="1.4" fill="#CE1493"/>
<rect x="2.80005" y="23.8" width="1.4" height="1.4" fill="#83075C"/>
<rect x="4.19995" y="23.8" width="1.4" height="1.4" fill="#83075C"/>
<rect x="5.6001" y="23.8" width="1.4" height="1.4" fill="#83075C"/>
<rect x="7" y="23.8" width="1.4" height="1.4" fill="#83075C"/>
<rect x="7" y="22.4" width="1.4" height="1.4" fill="#83075C"/>
<rect x="8.3999" y="23.8" width="1.4" height="1.4" fill="#83075C"/>
<rect x="8.3999" y="22.4" width="1.4" height="1.4" fill="#FF92DC"/>
<rect x="5.6001" y="22.4" width="1.4" height="1.4" fill="#FFC2EB"/>
<rect x="4.19995" y="22.4" width="1.4" height="1.4" fill="#FFC2EB"/>
<rect x="7" y="21" width="1.4" height="1.4" fill="#FF92DC"/>
<rect x="5.6001" y="19.6" width="1.4" height="1.4" fill="#FF92DC"/>
<rect x="4.19995" y="18.2" width="1.4" height="1.4" fill="#FF92DC"/>
<rect x="2.80005" y="16.8" width="1.4" height="1.4" fill="#FF92DC"/>
<rect x="2.80005" y="15.4" width="1.4" height="1.4" fill="#FF92DC"/>
<rect x="2.80005" y="14" width="1.4" height="1.4" fill="#FF92DC"/>
<rect x="2.80005" y="12.6" width="1.4" height="1.4" fill="#FFC2EB"/>
<rect x="4.19995" y="12.6" width="1.4" height="1.4" fill="#FFC2EB"/>
<rect x="9.80005" y="22.4" width="1.4" height="1.4" fill="#FF92DC"/>
<rect x="8.3999" y="21" width="1.4" height="1.4" fill="#FF92DC"/>
<rect x="7" y="19.6" width="1.4" height="1.4" fill="#FF92DC"/>
<rect x="5.6001" y="18.2" width="1.4" height="1.4" fill="#FF92DC"/>
<rect x="4.19995" y="16.8" width="1.4" height="1.4" fill="#FF92DC"/>
<rect x="4.19995" y="15.4" width="1.4" height="1.4" fill="#CE1493"/>
<rect x="4.19995" y="14" width="1.4" height="1.4" fill="#CE1493"/>
<rect x="11.2" y="22.4" width="1.4" height="1.4" fill="#CE1493"/>
<rect x="9.80005" y="21" width="1.4" height="1.4" fill="#CE1493"/>
<rect x="8.3999" y="19.6" width="1.4" height="1.4" fill="#CE1493"/>
<rect x="7" y="18.2" width="1.4" height="1.4" fill="#CE1493"/>
<rect x="5.6001" y="16.8" width="1.4" height="1.4" fill="#CE1493"/>
<rect x="5.6001" y="15.4" width="1.4" height="1.4" fill="#FFC2EB"/>
<rect x="5.6001" y="14" width="1.4" height="1.4" fill="#CE1493"/>
<rect x="12.6001" y="22.4" width="1.4" height="1.4" fill="#CE1493"/>
<rect x="11.2" y="21" width="1.4" height="1.4" fill="#CE1493"/>
<rect x="9.80005" y="19.6" width="1.4" height="1.4" fill="#CE1493"/>
<rect x="8.3999" y="18.2" width="1.4" height="1.4" fill="#CE1493"/>
<rect x="7" y="16.8" width="1.4" height="1.4" fill="#FFC2EB"/>
<rect x="7" y="15.4" width="1.4" height="1.4" fill="#CE1493"/>
<rect x="14" y="22.4" width="1.4" height="1.4" fill="#CE1493"/>
<rect x="9.80005" y="15.4" width="1.4" height="1.4" fill="#FF92DC"/>
<rect x="11.2" y="16.8" width="1.4" height="1.4" fill="#FF92DC"/>
<rect x="12.6001" y="18.2" width="1.4" height="1.4" fill="#FF92DC"/>
<rect x="14" y="19.6" width="1.4" height="1.4" fill="#FF92DC"/>
<rect x="15.3999" y="21" width="1.4" height="1.4" fill="#CE1493"/>
<rect x="15.3999" y="19.6" width="1.4" height="1.4" fill="#CE1493"/>
<rect x="15.3999" y="18.2" width="1.4" height="1.4" fill="#FF92DC"/>
<rect x="16.8" y="22.4" width="1.4" height="1.4" fill="#CE1493"/>
<rect x="16.8" y="21" width="1.4" height="1.4" fill="#CE1493"/>
<rect x="18.2" y="21" width="1.4" height="1.4" fill="#CE1493"/>
<rect x="19.6001" y="21" width="1.4" height="1.4" fill="#CE1493"/>
<rect x="21" y="19.6" width="1.4" height="1.4" fill="#CE1493"/>
<rect x="22.3999" y="18.2" width="1.4" height="1.4" fill="#CE1493"/>
<rect x="16.8" y="19.6" width="1.4" height="1.4" fill="#CE1493"/>
<rect x="18.2" y="19.6" width="1.4" height="1.4" fill="#CE1493"/>
<rect x="19.6001" y="19.6" width="1.4" height="1.4" fill="#CE1493"/>
<rect x="21" y="18.2" width="1.4" height="1.4" fill="#FFC2EB"/>
<rect x="22.3999" y="16.8" width="1.4" height="1.4" fill="#CE1493"/>
<rect x="16.8" y="18.2" width="1.4" height="1.4" fill="#CE1493"/>
<rect x="18.2" y="18.2" width="1.4" height="1.4" fill="#CE1493"/>
<rect x="19.6001" y="18.2" width="1.4" height="1.4" fill="#CE1493"/>
<rect x="21" y="16.8" width="1.4" height="1.4" fill="#FFC2EB"/>
<rect x="22.3999" y="15.4" width="1.4" height="1.4" fill="#FFC2EB"/>
<rect x="16.8" y="16.8" width="1.4" height="1.4" fill="#FF92DC"/>
<rect x="18.2" y="16.8" width="1.4" height="1.4" fill="#FF92DC"/>
<rect x="19.6001" y="16.8" width="1.4" height="1.4" fill="#CE1493"/>
<rect x="19.6001" y="15.4" width="1.4" height="1.4" fill="#CE1493"/>
<rect x="18.2" y="15.4" width="1.4" height="1.4" fill="#FF92DC"/>
<rect x="19.6001" y="14" width="1.4" height="1.4" fill="#FFC2EB"/>
<rect x="21" y="15.4" width="1.4" height="1.4" fill="#CE1493"/>
<rect x="21" y="14" width="1.4" height="1.4" fill="#FFC2EB"/>
<rect x="22.3999" y="14" width="1.4" height="1.4" fill="#FFC2EB"/>
<rect x="18.2" y="22.4" width="1.4" height="1.4" fill="#CE1493"/>
<rect x="11.2" y="11.2" width="1.4" height="1.4" fill="#CE1493"/>
<rect x="12.6001" y="12.6" width="1.4" height="1.4" fill="#FF92DC"/>
<rect x="9.80005" y="14" width="1.4" height="1.4" fill="#FF92DC"/>
<rect x="11.2" y="15.4" width="1.4" height="1.4" fill="#CE1493"/>
<rect x="12.6001" y="16.8" width="1.4" height="1.4" fill="#CE1493"/>
<rect x="11.2" y="9.79999" width="1.4" height="1.4" fill="#CE1493"/>
<rect x="12.6001" y="11.2" width="1.4" height="1.4" fill="#CE1493"/>
<rect x="9.80005" y="12.6" width="1.4" height="1.4" fill="#F5F4EF"/>
<rect x="11.2" y="14" width="1.4" height="1.4" fill="#CE1493"/>
<rect x="12.6001" y="15.4" width="1.4" height="1.4" fill="#CE1493"/>
<rect x="11.2" y="8.39999" width="1.4" height="1.4" fill="#FF92DC"/>
<rect x="12.6001" y="9.79999" width="1.4" height="1.4" fill="#CE1493"/>
<rect x="9.80005" y="11.2" width="1.4" height="1.4" fill="#FBFBF8"/>
<rect x="11.2" y="12.6" width="1.4" height="1.4" fill="#CE1493"/>
<rect x="12.6001" y="14" width="1.4" height="1.4" fill="#FF92DC"/>
<rect x="11.2" y="7" width="1.4" height="1.4" fill="#FF92DC"/>
<rect x="12.6001" y="8.39999" width="1.4" height="1.4" fill="#CE1493"/>
<rect x="9.80005" y="9.79999" width="1.4" height="1.4" fill="#FF92DC"/>
<rect x="11.2" y="5.60001" width="1.4" height="1.4" fill="#FF92DC"/>
<rect x="12.6001" y="7" width="1.4" height="1.4" fill="#CE1493"/>
<rect x="12.6001" y="5.60001" width="1.4" height="1.4" fill="#CE1493"/>
<rect x="12.6001" y="4.20001" width="1.4" height="1.4" fill="#FFC2EB"/>
<rect x="14" y="4.20001" width="1.4" height="1.4" fill="#FFC2EB"/>
<rect x="14" y="5.60001" width="1.4" height="1.4" fill="#CE1493"/>
<rect x="14" y="7" width="1.4" height="1.4" fill="#CE1493"/>
<rect x="14" y="8.39999" width="1.4" height="1.4" fill="#CE1493"/>
<rect x="14" y="9.79999" width="1.4" height="1.4" fill="#FFC2EB"/>
<rect x="14" y="11.2" width="1.4" height="1.4" fill="#FFC2EB"/>
<rect x="14" y="12.6" width="1.4" height="1.4" fill="#CE1493"/>
<rect x="14" y="14" width="1.4" height="1.4" fill="#CE1493"/>
<rect x="14" y="15.4" width="1.4" height="1.4" fill="#CE1493"/>
<rect x="14" y="16.8" width="1.4" height="1.4" fill="#CE1493"/>
<rect x="15.3999" y="15.4" width="1.4" height="1.4" fill="#CE1493"/>
<rect x="15.3999" y="14" width="1.4" height="1.4" fill="#CE1493"/>
<rect x="15.3999" y="12.6" width="1.4" height="1.4" fill="#CE1493"/>
<rect x="15.3999" y="11.2" width="1.4" height="1.4" fill="#CE1493"/>
<rect x="15.3999" y="9.79999" width="1.4" height="1.4" fill="#CE1493"/>
<rect x="15.3999" y="8.39999" width="1.4" height="1.4" fill="#CE1493"/>
<rect x="12.6001" y="21" width="1.4" height="1.4" fill="#CE1493"/>
<rect x="11.2" y="19.6" width="1.4" height="1.4" fill="#CE1493"/>
<rect x="9.80005" y="18.2" width="1.4" height="1.4" fill="#CE1493"/>
<rect x="8.3999" y="16.8" width="1.4" height="1.4" fill="#CE1493"/>
<rect x="9.80005" y="23.8" width="1.4" height="1.4" fill="#83075C"/>
<rect x="11.2" y="23.8" width="1.4" height="1.4" fill="#83075C"/>
<rect x="12.6001" y="23.8" width="1.4" height="1.4" fill="#83075C"/>
<rect x="14" y="23.8" width="1.4" height="1.4" fill="#83075C"/>
</svg>
