<svg width="48" height="48" viewBox="0 0 48 48" fill="none" xmlns="http://www.w3.org/2000/svg">
<rect x="6" y="28.7998" width="14.4" height="7.2" fill="#55B3FB"/>
<rect x="15.6" y="33.6001" width="16.8" height="7.2" fill="#55B3FB"/>
<rect x="15.6" y="24" width="14.4" height="9.6" fill="#55B3FB"/>
<rect x="25.2" y="28.7998" width="16.8" height="7.2" fill="#55B3FB"/>
<rect width="2.4" height="2.4" transform="matrix(-1 0 0 1 22.8 21.6001)" fill="#044298"/>
<rect width="2.4" height="2.4" transform="matrix(-1 0 0 1 32.4 26.3999)" fill="#0082E6"/>
<rect width="2.4" height="2.4" transform="matrix(-1 0 0 1 25.2 21.6001)" fill="#044298"/>
<rect width="2.4" height="2.4" transform="matrix(-1 0 0 1 44.4 31.2002)" fill="#044298"/>
<rect width="2.4" height="2.4" transform="matrix(-1 0 0 1 34.8 26.3999)" fill="#044298"/>
<rect width="2.4" height="2.4" transform="matrix(-1 0 0 1 20.4 24)" fill="#044298"/>
<rect width="2.4" height="2.4" transform="matrix(-1 0 0 1 39.6 33.6001)" fill="#044298"/>
<rect width="2.4" height="2.4" transform="matrix(-1 0 0 1 15.6 26.3999)" fill="#044298"/>
<rect width="2.4" height="2.4" transform="matrix(-1 0 0 1 34.8 36)" fill="#044298"/>
<rect width="2.4" height="2.4" transform="matrix(-1 0 0 1 8.39996 33.6001)" fill="#044298"/>
<rect width="2.4" height="2.4" transform="matrix(-1 0 0 1 25.2 21.6001)" fill="#044298"/>
<rect width="2.4" height="2.4" transform="matrix(-1 0 0 1 18 38.3999)" fill="#044298"/>
<rect width="2.4" height="2.4" transform="matrix(-1 0 0 1 34.8 26.3999)" fill="#044298"/>
<rect width="2.4" height="2.4" transform="matrix(-1 0 0 1 13.2 36)" fill="#044298"/>
<rect width="2.4" height="2.4" transform="matrix(-1 0 0 1 30 24)" fill="#044298"/>
<rect width="2.4" height="2.4" transform="matrix(-1 0 0 1 22.8 40.7998)" fill="#044298"/>
<rect width="2.4" height="2.4" transform="matrix(-1 0 0 1 39.6 28.7998)" fill="#044298"/>
<rect width="2.4" height="2.4" transform="matrix(-1 0 0 1 10.8 33.6001)" fill="#044298"/>
<rect width="2.4" height="2.4" transform="matrix(-1 0 0 1 27.6 21.6001)" fill="#044298"/>
<rect width="2.4" height="2.4" transform="matrix(-1 0 0 1 20.4 38.3999)" fill="#044298"/>
<rect width="2.4" height="2.4" transform="matrix(-1 0 0 1 37.2 26.3999)" fill="#044298"/>
<rect width="2.4" height="2.4" transform="matrix(-1 0 0 1 15.6 36)" fill="#044298"/>
<rect width="2.4" height="2.4" transform="matrix(-1 0 0 1 32.4 24)" fill="#044298"/>
<rect width="4.8" height="2.4" transform="matrix(-1 0 0 1 27.6 40.7998)" fill="#044298"/>
<rect width="2.4" height="2.4" transform="matrix(-1 0 0 1 42 28.7998)" fill="#044298"/>
<rect width="2.4" height="2.4" transform="matrix(-1 0 0 1 10.8 28.7998)" fill="#044298"/>
<rect width="4.8" height="2.4" transform="matrix(-1 0 0 1 32.4 38.3999)" fill="#044298"/>
<rect width="2.4" height="2.4" transform="matrix(-1 0 0 1 6 31.2002)" fill="#044298"/>
<rect width="2.4" height="2.4" transform="matrix(-1 0 0 1 18 24)" fill="#044298"/>
<rect width="2.4" height="2.4" transform="matrix(-1 0 0 1 42 33.6001)" fill="#044298"/>
<rect width="2.4" height="2.4" transform="matrix(-1 0 0 1 13.2 26.3999)" fill="#044298"/>
<rect width="2.4" height="2.4" transform="matrix(-1 0 0 1 37.2 36)" fill="#044298"/>
<rect width="2.4" height="2.4" transform="matrix(-1 0 0 1 8.39996 28.7998)" fill="#044298"/>
<rect x="6" y="20.3999" width="14.4" height="7.2" fill="#44BA82"/>
<rect x="15.6" y="25.2002" width="16.8" height="7.2" fill="#44BA82"/>
<rect x="15.6" y="15.6001" width="14.4" height="9.6" fill="#44BA82"/>
<rect x="25.2" y="20.3999" width="16.8" height="7.2" fill="#44BA82"/>
<rect width="2.4" height="2.4" transform="matrix(-1 0 0 1 22.8 13.2002)" fill="#044298"/>
<rect width="2.4" height="2.4" transform="matrix(-1 0 0 1 32.4 18)" fill="#55B3FB"/>
<rect width="2.4" height="2.4" transform="matrix(-1 0 0 1 25.2 13.2002)" fill="#044298"/>
<rect width="2.4" height="2.4" transform="matrix(-1 0 0 1 44.4 22.7998)" fill="#044298"/>
<rect width="2.4" height="2.4" transform="matrix(-1 0 0 1 34.8 18)" fill="#044298"/>
<rect width="2.4" height="2.4" transform="matrix(-1 0 0 1 20.4 15.6001)" fill="#044298"/>
<rect width="2.4" height="2.4" transform="matrix(-1 0 0 1 39.6 25.2002)" fill="#044298"/>
<rect width="2.4" height="2.4" transform="matrix(-1 0 0 1 15.6 18)" fill="#044298"/>
<rect width="2.4" height="2.4" transform="matrix(-1 0 0 1 34.8 27.6001)" fill="#044298"/>
<rect width="2.4" height="2.4" transform="matrix(-1 0 0 1 8.39996 25.2002)" fill="#044298"/>
<rect width="2.4" height="2.4" transform="matrix(-1 0 0 1 25.2 13.2002)" fill="#044298"/>
<rect width="2.4" height="2.4" transform="matrix(-1 0 0 1 18 30)" fill="#044298"/>
<rect width="2.4" height="2.4" transform="matrix(-1 0 0 1 34.8 18)" fill="#044298"/>
<rect width="2.4" height="2.4" transform="matrix(-1 0 0 1 13.2 27.6001)" fill="#044298"/>
<rect width="2.4" height="2.4" transform="matrix(-1 0 0 1 30 15.6001)" fill="#044298"/>
<rect width="2.4" height="2.4" transform="matrix(-1 0 0 1 22.8 32.3999)" fill="#044298"/>
<rect width="2.4" height="2.4" transform="matrix(-1 0 0 1 39.6 20.3999)" fill="#044298"/>
<rect width="2.4" height="2.4" transform="matrix(-1 0 0 1 10.8 25.2002)" fill="#044298"/>
<rect width="2.4" height="2.4" transform="matrix(-1 0 0 1 27.6 13.2002)" fill="#044298"/>
<rect width="2.4" height="2.4" transform="matrix(-1 0 0 1 20.4 30)" fill="#044298"/>
<rect width="2.4" height="2.4" transform="matrix(-1 0 0 1 37.2 18)" fill="#044298"/>
<rect width="2.4" height="2.4" transform="matrix(-1 0 0 1 15.6 27.6001)" fill="#044298"/>
<rect width="2.4" height="2.4" transform="matrix(-1 0 0 1 32.4 15.6001)" fill="#044298"/>
<rect width="4.8" height="2.4" transform="matrix(-1 0 0 1 27.6 32.3999)" fill="#044298"/>
<rect width="2.4" height="2.4" transform="matrix(-1 0 0 1 42 20.3999)" fill="#044298"/>
<rect width="2.4" height="2.4" transform="matrix(-1 0 0 1 10.8 20.3999)" fill="#044298"/>
<rect width="4.8" height="2.4" transform="matrix(-1 0 0 1 32.4 30)" fill="#044298"/>
<rect width="2.4" height="2.4" transform="matrix(-1 0 0 1 6 22.7998)" fill="#044298"/>
<rect width="2.4" height="2.4" transform="matrix(-1 0 0 1 18 15.6001)" fill="#044298"/>
<rect width="2.4" height="2.4" transform="matrix(-1 0 0 1 42 25.2002)" fill="#044298"/>
<rect width="2.4" height="2.4" transform="matrix(-1 0 0 1 13.2 18)" fill="#044298"/>
<rect width="2.4" height="2.4" transform="matrix(-1 0 0 1 37.2 27.6001)" fill="#044298"/>
<rect width="2.4" height="2.4" transform="matrix(-1 0 0 1 8.39996 20.3999)" fill="#044298"/>
<rect x="6" y="12" width="14.4" height="7.2" fill="#B9DAFF"/>
<rect x="15.6" y="16.7998" width="16.8" height="7.2" fill="#B9DAFF"/>
<rect x="15.6" y="7.2002" width="14.4" height="9.6" fill="#B9DAFF"/>
<rect x="25.2" y="12" width="16.8" height="7.2" fill="#B9DAFF"/>
<rect width="2.4" height="2.4" transform="matrix(-1 0 0 1 22.8 4.7998)" fill="#044298"/>
<rect width="2.4" height="2.4" transform="matrix(-1 0 0 1 32.4 9.6001)" fill="#B9DAFF"/>
<rect width="2.4" height="2.4" transform="matrix(-1 0 0 1 25.2 4.7998)" fill="#044298"/>
<rect width="2.4" height="2.4" transform="matrix(-1 0 0 1 44.4 14.3999)" fill="#044298"/>
<rect width="2.4" height="2.4" transform="matrix(-1 0 0 1 34.8 9.6001)" fill="#044298"/>
<rect width="2.4" height="2.4" transform="matrix(-1 0 0 1 20.4 7.2002)" fill="#044298"/>
<rect width="2.4" height="2.4" transform="matrix(-1 0 0 1 39.6 16.7998)" fill="#044298"/>
<rect width="2.4" height="2.4" transform="matrix(-1 0 0 1 15.6 9.6001)" fill="#044298"/>
<rect width="2.4" height="2.4" transform="matrix(-1 0 0 1 34.8 19.2002)" fill="#044298"/>
<rect width="2.4" height="2.4" transform="matrix(-1 0 0 1 8.39996 16.7998)" fill="#044298"/>
<rect width="2.4" height="2.4" transform="matrix(-1 0 0 1 25.2 4.7998)" fill="#044298"/>
<rect width="2.4" height="2.4" transform="matrix(-1 0 0 1 18 21.6001)" fill="#044298"/>
<rect width="2.4" height="2.4" transform="matrix(-1 0 0 1 34.8 9.6001)" fill="#044298"/>
<rect width="2.4" height="2.4" transform="matrix(-1 0 0 1 13.2 19.2002)" fill="#044298"/>
<rect width="2.4" height="2.4" transform="matrix(-1 0 0 1 30 7.2002)" fill="#044298"/>
<rect width="2.4" height="2.4" transform="matrix(-1 0 0 1 22.8 24)" fill="#044298"/>
<rect width="2.4" height="2.4" transform="matrix(-1 0 0 1 39.6 12)" fill="#044298"/>
<rect width="2.4" height="2.4" transform="matrix(-1 0 0 1 10.8 16.7998)" fill="#044298"/>
<rect width="2.4" height="2.4" transform="matrix(-1 0 0 1 27.6 4.7998)" fill="#044298"/>
<rect width="2.4" height="2.4" transform="matrix(-1 0 0 1 20.4 21.6001)" fill="#044298"/>
<rect width="2.4" height="2.4" transform="matrix(-1 0 0 1 37.2 9.6001)" fill="#044298"/>
<rect width="2.4" height="2.4" transform="matrix(-1 0 0 1 15.6 19.2002)" fill="#044298"/>
<rect width="2.4" height="2.4" transform="matrix(-1 0 0 1 32.4 7.2002)" fill="#044298"/>
<rect width="4.8" height="2.4" transform="matrix(-1 0 0 1 27.6 24)" fill="#044298"/>
<rect width="2.4" height="2.4" transform="matrix(-1 0 0 1 42 12)" fill="#044298"/>
<rect width="2.4" height="2.4" transform="matrix(-1 0 0 1 10.8 12)" fill="#044298"/>
<rect width="4.8" height="2.4" transform="matrix(-1 0 0 1 32.4 21.6001)" fill="#044298"/>
<rect width="2.4" height="2.4" transform="matrix(-1 0 0 1 6 14.3999)" fill="#044298"/>
<rect width="2.4" height="2.4" transform="matrix(-1 0 0 1 18 7.2002)" fill="#044298"/>
<rect width="2.4" height="2.4" transform="matrix(-1 0 0 1 42 16.7998)" fill="#044298"/>
<rect width="2.4" height="2.4" transform="matrix(-1 0 0 1 13.2 9.6001)" fill="#044298"/>
<rect width="2.4" height="2.4" transform="matrix(-1 0 0 1 37.2 19.2002)" fill="#044298"/>
<rect width="2.4" height="2.4" transform="matrix(-1 0 0 1 8.39996 12)" fill="#044298"/>
<rect x="6" y="14.3999" width="4.8" height="2.4" fill="#55B3FB"/>
<rect x="37.2" y="14.3999" width="4.8" height="2.4" fill="#55B3FB"/>
<rect x="15.6" y="19.2002" width="4.8" height="2.4" fill="#55B3FB"/>
<rect x="15.6" y="27.6001" width="4.8" height="2.4" fill="#318E68"/>
<rect x="15.6" y="36" width="4.8" height="2.4" fill="#0082E6"/>
<rect x="10.8" y="16.7998" width="4.8" height="2.4" fill="#55B3FB"/>
<rect x="10.8" y="25.2002" width="4.8" height="2.4" fill="#318E68"/>
<rect x="10.8" y="33.6001" width="4.8" height="2.4" fill="#0082E6"/>
<rect x="27.6" y="19.2002" width="4.8" height="2.4" fill="#55B3FB"/>
<rect x="27.6" y="27.6001" width="4.8" height="2.4" fill="#318E68"/>
<rect x="27.6" y="36" width="4.8" height="2.4" fill="#0082E6"/>
<rect x="32.4" y="16.7998" width="4.8" height="2.4" fill="#55B3FB"/>
<rect x="32.4" y="25.2002" width="4.8" height="2.4" fill="#318E68"/>
<rect x="32.4" y="33.6001" width="4.8" height="2.4" fill="#0082E6"/>
<rect x="20.4" y="21.6001" width="7.2" height="2.4" fill="#55B3FB"/>
<rect x="20.4" y="30" width="7.2" height="2.4" fill="#318E68"/>
<rect x="20.4" y="38.3999" width="7.2" height="2.4" fill="#0082E6"/>
</svg>
