<svg width="48" height="48" viewBox="0 0 48 48" fill="none" xmlns="http://www.w3.org/2000/svg">
<rect x="19.2" y="7.2002" width="2.4" height="2.4" fill="#044298"/>
<rect x="19.2" y="9.59961" width="2.4" height="2.4" fill="#B9DAFF"/>
<rect x="36" y="26.4004" width="2.4" height="2.4" fill="#55B3FB"/>
<rect x="24" y="14.4004" width="2.4" height="2.4" fill="#B9DAFF"/>
<rect x="24" y="16.7998" width="2.4" height="2.4" fill="#B9DAFF"/>
<rect x="26.4" y="16.7998" width="2.4" height="2.4" fill="#B9DAFF"/>
<rect x="31.2" y="21.5996" width="2.4" height="9.6" fill="#55B3FB"/>
<rect x="33.6" y="24" width="2.4" height="7.2" fill="#55B3FB"/>
<rect x="19.2" y="24" width="2.4" height="2.4" fill="#B9DAFF"/>
<rect x="21.6" y="24" width="2.4" height="2.4" fill="#B9DAFF"/>
<rect x="21.6" y="26.4004" width="2.4" height="2.4" fill="#55B3FB"/>
<rect x="16.8" y="28.7998" width="2.4" height="2.4" fill="#55B3FB"/>
<rect x="16.8" y="9.59961" width="2.4" height="2.4" fill="#044298"/>
<rect x="14.4" y="12" width="2.4" height="2.4" fill="#044298"/>
<rect x="14.4" y="14.4004" width="2.4" height="9.6" fill="#044298"/>
<rect x="21.6" y="9.59961" width="2.4" height="2.4" fill="#044298"/>
<rect x="24" y="12" width="2.4" height="2.4" fill="#044298"/>
<rect x="26.4" y="14.4004" width="2.4" height="2.4" fill="#044298"/>
<rect x="28.8" y="16.7998" width="2.4" height="2.4" fill="#044298"/>
<rect x="31.2" y="14.4004" width="2.4" height="2.4" fill="#044298"/>
<rect x="33.6" y="12" width="2.4" height="2.4" fill="#044298"/>
<rect x="33.6" y="9.59961" width="2.4" height="2.4" fill="#044298"/>
<rect x="33.6" y="7.2002" width="2.4" height="2.4" fill="#044298"/>
<rect x="36" y="7.2002" width="2.4" height="2.4" fill="#044298"/>
<rect x="38.4" y="7.2002" width="2.4" height="2.4" fill="#044298"/>
<rect x="38.4" y="9.59961" width="2.4" height="2.4" fill="#044298"/>
<rect x="38.4" y="12" width="2.4" height="2.4" fill="#044298"/>
<rect x="36" y="12" width="2.4" height="2.4" fill="#044298"/>
<rect x="36" y="9.59961" width="2.4" height="2.4" fill="#FA500F"/>
<rect x="16.8" y="24" width="2.4" height="2.4" fill="#044298"/>
<rect x="16.8" y="31.2002" width="2.4" height="2.4" fill="#044298"/>
<rect x="21.6" y="36" width="2.4" height="2.4" fill="#044298"/>
<rect x="19.2" y="33.5996" width="2.4" height="2.4" fill="#044298"/>
<rect x="14.4" y="33.5996" width="2.4" height="2.4" fill="#044298"/>
<rect x="12" y="36" width="2.4" height="2.4" fill="#044298"/>
<rect x="14.4" y="36" width="2.4" height="2.4" fill="#044298"/>
<rect x="16.8" y="36" width="2.4" height="2.4" fill="#044298"/>
<rect x="16.8" y="33.5996" width="2.4" height="2.4" fill="#044298"/>
<rect x="19.2" y="36" width="2.4" height="2.4" fill="#044298"/>
<rect x="9.60001" y="38.4004" width="16.8" height="2.4" fill="#044298"/>
<rect x="31.2" y="19.2002" width="2.4" height="2.4" fill="#044298"/>
<rect x="19.2" y="26.4004" width="2.4" height="2.4" fill="#044298"/>
<rect x="16.8" y="26.4004" width="2.4" height="2.4" fill="#044298"/>
<rect x="14.4" y="28.7998" width="2.4" height="2.4" fill="#044298"/>
<rect x="19.2" y="28.7998" width="2.4" height="2.4" fill="#044298"/>
<rect x="33.6" y="21.5996" width="2.4" height="2.4" fill="#044298"/>
<rect x="21.6" y="28.7998" width="2.4" height="2.4" fill="#044298"/>
<rect x="36" y="24" width="2.4" height="2.4" fill="#044298"/>
<rect x="38.4" y="26.4004" width="2.4" height="2.4" fill="#044298"/>
<rect x="36" y="28.7998" width="2.4" height="2.4" fill="#044298"/>
<rect x="33.6" y="31.2002" width="2.4" height="2.4" fill="#044298"/>
<rect x="31.2" y="31.2002" width="2.4" height="2.4" fill="#044298"/>
<rect x="24" y="31.2002" width="7.2" height="2.4" fill="#044298"/>
<rect x="16.8" y="12" width="7.2" height="12" fill="#B9DAFF"/>
<rect x="24" y="26.4004" width="7.2" height="4.8" fill="#55B3FB"/>
<rect x="24" y="19.2002" width="7.2" height="7.2" fill="#B9DAFF"/>
</svg>
