<svg width="160" height="160" viewBox="0 0 160 160" fill="none" xmlns="http://www.w3.org/2000/svg">
<path d="M108 12H52V60H108V12Z" fill="#B9DAFF"/>
<path d="M52 148H44V156H52V148Z" fill="#044298"/>
<path d="M52 140H44V148H52V140Z" fill="#044298"/>
<path d="M60 132H52V140H60V132Z" fill="#044298"/>
<path d="M60 148H52V156H60V148Z" fill="#044298"/>
<path d="M60 148H52V156H60V148Z" fill="#044298"/>
<path d="M68 148H60V156H68V148Z" fill="#044298"/>
<path d="M76 148H68V156H76V148Z" fill="#044298"/>
<path d="M84 148H76V156H84V148Z" fill="#044298"/>
<path d="M92 148H84V156H92V148Z" fill="#044298"/>
<path d="M100 148H92V156H100V148Z" fill="#044298"/>
<path d="M108 148H100V156H108V148Z" fill="#044298"/>
<path d="M108 148H100V156H108V148Z" fill="#044298"/>
<path d="M60 140H52V148H60V140Z" fill="#B9DAFF"/>
<path d="M60 140H52V148H60V140Z" fill="#0082E6"/>
<path d="M68 140H60V148H68V140Z" fill="#0082E6"/>
<path d="M76 140H68V148H76V140Z" fill="#B9DAFF"/>
<path d="M84 140H76V148H84V140Z" fill="#B9DAFF"/>
<path d="M92 140H84V148H92V140Z" fill="#B9DAFF"/>
<path d="M100 140H92V148H100V140Z" fill="#B9DAFF"/>
<path d="M108 140H100V148H108V140Z" fill="#B9DAFF"/>
<path d="M108 140H100V148H108V140Z" fill="#B9DAFF"/>
<path d="M116 148H108V156H116V148Z" fill="#044298"/>
<path d="M116 140H108V148H116V140Z" fill="#044298"/>
<path d="M108 132H100V140H108V132Z" fill="#044298"/>
<path d="M108 132H100V140H108V132Z" fill="#044298"/>
<path d="M100 132H92V140H100V132Z" fill="#044298"/>
<path d="M92 124H84V132H92V124Z" fill="#044298"/>
<path d="M76 132H68V140H76V132Z" fill="#044298"/>
<path d="M92 116H84V124H92V116Z" fill="#044298"/>
<path d="M84 132H76V140H84V132Z" fill="#044298"/>
<path d="M92 132H84V140H92V132Z" fill="#044298"/>
<path d="M68 132H60V140H68V132Z" fill="#044298"/>
<path d="M76 124H68V132H76V124Z" fill="#044298"/>
<path d="M84 124H76V132H84V124Z" fill="#B9DAFF"/>
<path d="M76 116H68V124H76V116Z" fill="#044298"/>
<path d="M84 116H76V124H84V116Z" fill="#B9DAFF"/>
<path d="M84 100H76V108H84V100Z" fill="#B9DAFF"/>
<path d="M76 100H68V108H76V100Z" fill="#044298"/>
<path d="M92 100H84V108H92V100Z" fill="#044298"/>
<path d="M76 108H68V116H76V108Z" fill="#044298"/>
<path d="M60 108H52V116H60V108Z" fill="#044298"/>
<path d="M68 108H60V116H68V108Z" fill="#044298"/>
<path d="M84 108H76V116H84V108Z" fill="#044298"/>
<path d="M92 108H84V116H92V108Z" fill="#044298"/>
<path d="M100 108H92V116H100V108Z" fill="#044298"/>
<path d="M108 108H100V116H108V108Z" fill="#044298"/>
<path d="M116 100H108V108H116V100Z" fill="#044298"/>
<path d="M124 92H116V100H124V92Z" fill="#044298"/>
<path d="M124 84H116V92H124V84Z" fill="#044298"/>
<path d="M124 76H116V84H124V76Z" fill="#044298"/>
<path d="M124 68H116V76H124V68Z" fill="#044298"/>
<path d="M124 60H116V68H124V60Z" fill="#044298"/>
<path d="M116 52H108V60H116V52Z" fill="#044298"/>
<path d="M116 44H108V52H116V44Z" fill="#044298"/>
<path d="M116 36H108V44H116V36Z" fill="#044298"/>
<path d="M116 28H108V36H116V28Z" fill="#044298"/>
<path d="M116 20H108V28H116V20Z" fill="#044298"/>
<path d="M132 60H124V68H132V60Z" fill="#044298"/>
<path d="M44 92H36V100H44V92Z" fill="#044298"/>
<path d="M52 100H44V108H52V100Z" fill="#044298"/>
<path d="M44 84H36V92H44V84Z" fill="#044298"/>
<path d="M44 76H36V84H44V76Z" fill="#044298"/>
<path d="M44 68H36V76H44V68Z" fill="#044298"/>
<path d="M44 60H36V68H44V60Z" fill="#044298"/>
<path d="M52 60H44V68H52V60Z" fill="#044298"/>
<path d="M52 68H44V76H52V68Z" fill="#044298"/>
<path d="M76 92H68V100H76V92Z" fill="#044298"/>
<path d="M52 76H44V84H52V76Z" fill="#044298"/>
<path d="M60 84H52V92H60V84Z" fill="#044298"/>
<path d="M68 92H60V100H68V92Z" fill="#044298"/>
<path d="M84 92H76V100H84V92Z" fill="#044298"/>
<path d="M92 92H84V100H92V92Z" fill="#044298"/>
<path d="M100 92H92V100H100V92Z" fill="#044298"/>
<path d="M108 84H100V92H108V84Z" fill="#044298"/>
<path d="M116 76H108V84H116V76Z" fill="#044298"/>
<path d="M116 68H108V76H116V68Z" fill="#044298"/>
<path d="M52 52H44V60H52V52Z" fill="#044298"/>
<path d="M66.4589 54.3287H60.7876V60H66.4589V54.3287Z" fill="#044298"/>
<path d="M72.1288 54.3287H66.4575V60H72.1288V54.3287Z" fill="#044298"/>
<path d="M72.1288 48.6573H66.4575V54.3286H72.1288V48.6573Z" fill="#044298"/>
<path d="M72.1288 42.986H66.4575V48.6573H72.1288V42.986Z" fill="#044298"/>
<path d="M72.1288 37.3148H66.4575V42.9861H72.1288V37.3148Z" fill="#044298"/>
<path d="M72.1288 31.6435H66.4575V37.3148H72.1288V31.6435Z" fill="#044298"/>
<path d="M77.8007 37.3148H72.1294V42.9861H77.8007V37.3148Z" fill="#044298"/>
<path d="M89.142 54.3287H83.4707V60H89.142V54.3287Z" fill="#044298"/>
<path d="M77.8007 54.3287H72.1294V60H77.8007V54.3287Z" fill="#044298"/>
<path d="M94.8144 54.3287H89.1431V60H94.8144V54.3287Z" fill="#044298"/>
<path d="M77.8007 42.986H72.1294V48.6573H77.8007V42.986Z" fill="#044298"/>
<path d="M94.8144 48.6573H89.1431V54.3286H94.8144V48.6573Z" fill="#044298"/>
<path d="M94.8144 42.986H89.1431V48.6573H94.8144V42.986Z" fill="#044298"/>
<path d="M94.8144 37.3148H89.1431V42.9861H94.8144V37.3148Z" fill="#044298"/>
<path d="M94.8139 31.6435H89.1426V37.3148H94.8139V31.6435Z" fill="#044298"/>
<path d="M104.729 30.2859H99.0581V35.9572H104.729V30.2859Z" fill="#0082E6"/>
<path d="M94.4262 18.5103H88.7549V24.1816H94.4262V18.5103Z" fill="#0082E6"/>
<path d="M81.1781 24.3981H75.5068V30.0694H81.1781V24.3981Z" fill="#0082E6"/>
<path d="M72.3466 15.5664H66.6753V21.2377H72.3466V15.5664Z" fill="#0082E6"/>
<path d="M64.9867 24.3981H59.3154V30.0694H64.9867V24.3981Z" fill="#0082E6"/>
<path d="M104.729 43.5334H99.0581V49.2047H104.729V43.5334Z" fill="#0082E6"/>
<path d="M63.515 43.5334H57.8438V49.2047H63.515V43.5334Z" fill="#0082E6"/>
<path d="M59.099 33.2298H53.4277V38.9011H59.099V33.2298Z" fill="#044298"/>
<path d="M89.142 37.3148H83.4707V42.9861H89.142V37.3148Z" fill="#044298"/>
<path d="M83.4706 42.986H77.7993V48.6573H83.4706V42.986Z" fill="#044298"/>
<path d="M83.4706 48.6573H77.7993V54.3286H83.4706V48.6573Z" fill="#044298"/>
<path d="M89.142 42.986H83.4707V48.6573H89.142V42.986Z" fill="#044298"/>
<path d="M100.484 54.3287H94.813V60H100.484V54.3287Z" fill="#044298"/>
<path d="M52 44H44V52H52V44Z" fill="#044298"/>
<path d="M52 36H44V44H52V36Z" fill="#044298"/>
<path d="M76 4H68V12H76V4Z" fill="#0082E6"/>
<path d="M52 28H44V36H52V28Z" fill="#044298"/>
<path d="M52 20H44V28H52V20Z" fill="#044298"/>
<path d="M60 12H52V20H60V12Z" fill="#0082E6"/>
<path d="M68 4H60V12H68V4Z" fill="#0082E6"/>
<path d="M84 4H76V12H84V4Z" fill="#0082E6"/>
<path d="M76 60H68V68H76V60Z" fill="#044298"/>
<path d="M76 68H68V76H76V68Z" fill="#B9DAFF"/>
<path d="M76 68H68V76H76V68Z" fill="#B9DAFF"/>
<path d="M76 76H68V84H76V76Z" fill="#B9DAFF"/>
<path d="M76 84H68V92H76V84Z" fill="#B9DAFF"/>
<path d="M92 4H84V12H92V4Z" fill="#0082E6"/>
<path d="M100 4H92V12H100V4Z" fill="#0082E6"/>
<path d="M60 60H52V68H60V60Z" fill="#044298"/>
<path d="M68 60H60V68H68V60Z" fill="#044298"/>
<path d="M84 60H76V68H84V60Z" fill="#044298"/>
<path d="M92 60H84V68H92V60Z" fill="#044298"/>
<path d="M100 60H92V68H100V60Z" fill="#044298"/>
<path d="M108 60H100V68H108V60Z" fill="#044298"/>
<path d="M108 12H100V20H108V12Z" fill="#0082E6"/>
<path d="M60 68H52V76H60V68Z" fill="#B9DAFF"/>
<path d="M60 68H52V76H60V68Z" fill="#0082E6"/>
<path d="M68 68H60V76H68V68Z" fill="#B9DAFF"/>
<path d="M60 76H52V84H60V76Z" fill="#0082E6"/>
<path d="M84 68H76V76H84V68Z" fill="#B9DAFF"/>
<path d="M68 68H60V76H68V68Z" fill="#B9DAFF"/>
<path d="M68 76H60V84H68V76Z" fill="#B9DAFF"/>
<path d="M68 84H60V92H68V84Z" fill="#0082E6"/>
<path d="M92 68H84V76H92V68Z" fill="#B9DAFF"/>
<path d="M84 68H76V76H84V68Z" fill="#B9DAFF"/>
<path d="M100 68H92V76H100V68Z" fill="#B9DAFF"/>
<path d="M84 76H76V84H84V76Z" fill="#FA500F"/>
<path d="M84 84H76V92H84V84Z" fill="#B9DAFF"/>
<path d="M108 68H100V76H108V68Z" fill="#B9DAFF"/>
<path d="M92 68H84V76H92V68Z" fill="#B9DAFF"/>
<path d="M92 76H84V84H92V76Z" fill="#B9DAFF"/>
<path d="M92 84H84V92H92V84Z" fill="#B9DAFF"/>
<path d="M100 68H92V76H100V68Z" fill="#B9DAFF"/>
<path d="M100 76H92V84H100V76Z" fill="#B9DAFF"/>
<path d="M100 84H92V92H100V84Z" fill="#B9DAFF"/>
<path d="M108 68H100V76H108V68Z" fill="#B9DAFF"/>
<path d="M108 76H100V84H108V76Z" fill="#B9DAFF"/>
<path d="M116 60H108V68H116V60Z" fill="#044298"/>
<path d="M36 60H28V68H36V60Z" fill="#044298"/>
<path d="M60 132H52V140H60V132Z" fill="#044298"/>
</svg>
