<svg width="160" height="160" viewBox="0 0 160 160" fill="none" xmlns="http://www.w3.org/2000/svg">
<rect x="32" y="24" width="96" height="80" fill="#FFCC9A"/>
<rect x="40" y="32" width="80" height="64" fill="#151524"/>
<rect width="80" height="8" transform="matrix(1 0 0 -1 40 112)" fill="#B75002"/>
<rect width="96" height="24" transform="matrix(1 0 0 -1 32 136)" fill="#FFCC9A"/>
<rect width="32" height="8" transform="matrix(1 0 0 -1 40 128)" fill="#B75002"/>
<rect width="8" height="8" transform="matrix(1 0 0 -1 112 128)" fill="#B75002"/>
<g clip-path="url(#clip0_241_9596)">
<path d="M69.9985 45.9992H61.9985V53.9992H69.9985V45.9992Z" fill="#FFAF01"/>
<path d="M89.9985 45.9992H81.9985V53.9992H89.9985V45.9992Z" fill="#FFAF01"/>
<path d="M82 38H70V46H82V38Z" fill="#FEC63A"/>
<path d="M89.9985 65.9992H81.9985V73.9992H89.9985V65.9992Z" fill="#FA500F"/>
<path d="M97.9985 73.9992H89.9985V81.9992H97.9985V73.9992Z" fill="#E61300"/>
<path d="M105.999 81.9992H97.9985V89.9992H105.999V81.9992Z" fill="#E61300"/>
<path d="M69.9985 65.9992H61.9985V73.9992H69.9985V65.9992Z" fill="#FA500F"/>
<path d="M82 74H70V82H82V74Z" fill="#FA500F"/>
<path d="M62 54H54V66H62V54Z" fill="#FF8204"/>
<path d="M98 54H90V66H98V54Z" fill="#FF8204"/>
</g>
<defs>
<clipPath id="clip0_241_9596">
<rect width="52" height="52" fill="white" transform="translate(54 38)"/>
</clipPath>
</defs>
</svg>
