<svg width="56" height="56" viewBox="0 0 56 56" fill="none" xmlns="http://www.w3.org/2000/svg">
<rect x="8.40002" y="15.4" width="39.2" height="25.2" fill="#933800"/>
<rect x="8.40002" y="18.2" width="39.2" height="28" fill="#B75002"/>
<path d="M8.39998 15.4H5.59998V43.4H8.39998V15.4Z" fill="#933800"/>
<path d="M50.4 15.4H47.6V43.4H50.4V15.4Z" fill="#933800"/>
<path d="M44.8 49L44.8 46.2L11.2 46.1999L11.2 49L44.8 49Z" fill="#933800"/>
<path d="M36.4 9.8L36.4 7L19.6 7L19.6 9.8L36.4 9.8Z" fill="#933800"/>
<path d="M47.6 15.4L47.6 12.6L8.39997 12.6L8.39997 15.4L47.6 15.4Z" fill="#933800"/>
<path d="M44.8 32.2L44.8 29.4L11.2 29.4L11.2 32.2L44.8 32.2Z" fill="#933800"/>
<path d="M35.0007 35.0005L35.0007 23.8L32.199 23.8L32.199 26.6019L29.3997 26.6019L29.3997 29.4014L26.6004 29.4014L26.6004 26.6019L23.801 26.6019L23.801 23.8L21.0017 23.8L21.0017 35.0005L18.2 35.0005L18.2 37.8L26.6004 37.8L26.6004 35.0005L23.801 35.0005L23.801 32.201L26.6004 32.201L26.6004 35.0005L29.3997 35.0005L29.3997 32.201L32.199 32.201L32.199 35.0005L29.3997 35.0005L29.3997 37.8L37.8 37.8L37.8 35.0005L35.0007 35.0005Z" fill="#FEC63A"/>
<path d="M11.2 43.4H8.40002V46.2H11.2V43.4Z" fill="#933800"/>
<path d="M11.2 26.6H8.40002V29.4H11.2V26.6Z" fill="#933800"/>
<path d="M19.6 9.79999H16.8V12.6H19.6V9.79999Z" fill="#933800"/>
<path d="M39.2 9.79999H36.4V12.6H39.2V9.79999Z" fill="#933800"/>
<path d="M47.6 26.6H44.8V29.4H47.6V26.6Z" fill="#933800"/>
<path d="M47.6 43.4H44.8V46.2H47.6V43.4Z" fill="#933800"/>
<rect x="8.40002" y="15.4" width="2.8" height="11.2" fill="#FF8204"/>
<rect x="44.8" y="15.4" width="2.8" height="11.2" fill="#FF8204"/>
<rect x="8.40002" y="29.4" width="2.8" height="14" fill="#FF8204"/>
<rect x="11.2" y="26.6" width="2.8" height="2.8" fill="#FF8204"/>
<rect x="42" y="26.6" width="2.8" height="2.8" fill="#FF8204"/>
<rect x="44.8" y="29.4" width="2.8" height="14" fill="#FF8204"/>
<rect x="47.6" y="15.4" width="2.8" height="36.4" transform="rotate(90 47.6 15.4)" fill="#FF8204"/>
<rect x="11.2" y="43.4" width="33.6" height="2.8" fill="#B75002"/>
</svg>
