<svg width="56" height="56" viewBox="0 0 56 56" fill="none" xmlns="http://www.w3.org/2000/svg">
<rect x="21" y="7" width="14" height="42" fill="#0082E6"/>
<rect x="15.4" y="9.79999" width="5.6" height="36.4" fill="#0082E6"/>
<rect width="5.6" height="36.4" transform="matrix(-1 0 0 1 40.6 9.79999)" fill="#0082E6"/>
<rect x="9.79999" y="15.4" width="2.8" height="25.2" fill="#0082E6"/>
<rect width="2.8" height="25.2" transform="matrix(-1 0 0 1 46.2 15.4)" fill="#0082E6"/>
<rect x="12.6" y="12.6" width="2.8" height="30.8" fill="#0082E6"/>
<rect width="2.8" height="30.8" transform="matrix(-1 0 0 1 43.4 12.6)" fill="#0082E6"/>
<rect x="7" y="21" width="2.8" height="14" fill="#0082E6"/>
<rect width="2.8" height="14" transform="matrix(-1 0 0 1 49 21)" fill="#0082E6"/>
<rect x="21" y="4.20001" width="14" height="2.8" fill="#044298"/>
<rect x="21" y="49" width="14" height="2.8" fill="#044298"/>
<rect x="15.4" y="7" width="5.6" height="2.8" fill="#044298"/>
<rect width="5.6" height="2.8" transform="matrix(-1 0 0 1 40.6 7)" fill="#044298"/>
<rect width="5.6" height="2.8" transform="matrix(1 0 0 -1 15.4 49)" fill="#044298"/>
<rect x="40.6" y="49" width="5.6" height="2.8" transform="rotate(180 40.6 49)" fill="#044298"/>
<rect x="12.6" y="9.79999" width="2.8" height="2.8" fill="#044298"/>
<rect width="2.8" height="2.8" transform="matrix(-1 0 0 1 43.4 9.79999)" fill="#044298"/>
<rect width="2.8" height="2.8" transform="matrix(1 0 0 -1 12.6 46.2)" fill="#044298"/>
<rect x="43.4" y="46.2" width="2.8" height="2.8" transform="rotate(180 43.4 46.2)" fill="#044298"/>
<rect x="9.79999" y="12.6" width="2.8" height="2.8" fill="#044298"/>
<rect width="2.8" height="2.8" transform="matrix(-1 0 0 1 46.2 12.6)" fill="#044298"/>
<rect width="2.8" height="2.8" transform="matrix(1 0 0 -1 9.79999 43.4)" fill="#044298"/>
<rect x="46.2" y="43.4" width="2.8" height="2.8" transform="rotate(180 46.2 43.4)" fill="#044298"/>
<rect x="7" y="15.4" width="2.8" height="5.6" fill="#044298"/>
<rect width="2.8" height="5.6" transform="matrix(-1 0 0 1 49 15.4)" fill="#044298"/>
<rect width="2.8" height="5.6" transform="matrix(1 0 0 -1 7 40.6)" fill="#044298"/>
<rect x="49" y="40.6" width="2.8" height="5.6" transform="rotate(180 49 40.6)" fill="#044298"/>
<rect x="4.20001" y="21" width="2.8" height="14" fill="#044298"/>
<rect width="2.8" height="14" transform="matrix(-1 0 0 1 51.8 21)" fill="#044298"/>
<rect x="9.79999" y="15.4" width="16.8" height="2.8" fill="#94EACC"/>
<rect x="23.8" y="12.6" width="5.6" height="2.8" fill="#94EACC"/>
<rect x="18.2" y="32.2" width="2.8" height="2.8" fill="#94EACC"/>
<rect x="37.8" y="21" width="2.8" height="2.8" fill="#94EACC"/>
<rect x="37.8" y="9.79999" width="2.8" height="2.8" fill="#94EACC"/>
<rect x="23.8" y="29.4" width="2.8" height="2.8" fill="#94EACC"/>
<rect x="12.6" y="35" width="2.8" height="5.6" fill="#94EACC"/>
<rect x="9.79999" y="32.2" width="5.6" height="2.8" fill="#94EACC"/>
<rect x="15.4" y="37.8" width="5.6" height="2.8" fill="#94EACC"/>
<rect x="18.2" y="43.4" width="5.6" height="2.8" fill="#94EACC"/>
<rect x="35" y="18.2" width="5.6" height="2.8" fill="#94EACC"/>
<rect x="37.8" y="15.4" width="8.4" height="2.8" fill="#94EACC"/>
<rect x="37.8" y="12.6" width="5.6" height="2.8" fill="#94EACC"/>
<rect x="15.4" y="40.6" width="8.4" height="2.8" fill="#94EACC"/>
<rect x="15.4" y="29.4" width="5.6" height="2.8" fill="#94EACC"/>
<rect x="12.6" y="18.2" width="14" height="2.8" fill="#94EACC"/>
<rect x="9.79999" y="21" width="14" height="8.4" fill="#94EACC"/>
<rect x="43.4" y="37.8" width="2.8" height="2.8" fill="#94EACC"/>
<rect x="46.2" y="21" width="2.8" height="2.8" fill="#94EACC"/>
<rect x="40.6" y="29.4" width="2.8" height="2.8" fill="#94EACC"/>
<rect x="35" y="29.4" width="2.8" height="2.8" fill="#94EACC"/>
<rect x="46.2" y="29.4" width="2.8" height="2.8" fill="#94EACC"/>
<rect x="35" y="23.8" width="5.6" height="2.8" fill="#94EACC"/>
<rect x="32.2" y="32.2" width="8.4" height="2.8" fill="#94EACC"/>
<rect x="43.4" y="32.2" width="5.6" height="2.8" fill="#94EACC"/>
<rect x="35" y="26.6" width="14" height="2.8" fill="#94EACC"/>
<rect x="43.4" y="23.8" width="5.6" height="2.8" fill="#94EACC"/>
</svg>
