<svg width="28" height="28" viewBox="0 0 28 28" fill="none" xmlns="http://www.w3.org/2000/svg">
<rect x="4.2002" y="23.8" width="1.4" height="1.4" fill="#005737"/>
<rect x="2.7998" y="23.8" width="1.4" height="1.4" fill="#005737"/>
<rect x="2.7998" y="22.4" width="1.4" height="1.4" fill="#005737"/>
<rect x="2.7998" y="21" width="1.4" height="1.4" fill="#005737"/>
<rect x="2.7998" y="19.6" width="1.4" height="1.4" fill="#005737"/>
<rect x="2.7998" y="18.2" width="1.4" height="1.4" fill="#005737"/>
<rect x="4.2002" y="18.2" width="1.4" height="1.4" fill="#005737"/>
<rect x="5.6001" y="18.2" width="1.4" height="1.4" fill="#005737"/>
<rect x="7" y="16.8" width="1.4" height="1.4" fill="#005737"/>
<rect x="7" y="15.4" width="1.4" height="1.4" fill="#005737"/>
<rect x="7" y="14" width="1.4" height="1.4" fill="#005737"/>
<rect x="4.2002" y="12.6" width="1.4" height="1.4" fill="#005737"/>
<rect x="5.6001" y="12.6" width="1.4" height="1.4" fill="#005737"/>
<rect x="2.7998" y="12.6" width="1.4" height="1.4" fill="#005737"/>
<rect x="2.7998" y="11.2" width="1.4" height="1.4" fill="#005737"/>
<rect x="2.7998" y="9.79999" width="1.4" height="1.4" fill="#005737"/>
<rect x="2.7998" y="8.39999" width="1.4" height="1.4" fill="#005737"/>
<rect x="2.7998" y="7" width="1.4" height="1.4" fill="#005737"/>
<rect x="4.2002" y="7" width="1.4" height="1.4" fill="#005737"/>
<rect x="5.6001" y="7" width="1.4" height="1.4" fill="#005737"/>
<rect x="7" y="7" width="1.4" height="1.4" fill="#005737"/>
<rect x="8.3999" y="7" width="1.4" height="1.4" fill="#005737"/>
<rect x="8.3999" y="5.60001" width="1.4" height="1.4" fill="#005737"/>
<rect x="8.3999" y="4.20001" width="1.4" height="1.4" fill="#005737"/>
<rect x="9.7998" y="4.20001" width="1.4" height="1.4" fill="#44BA82"/>
<rect x="9.7998" y="5.60001" width="1.4" height="1.4" fill="#44BA82"/>
<rect x="9.7998" y="7" width="1.4" height="1.4" fill="#44BA82"/>
<rect x="9.7998" y="8.39999" width="1.4" height="1.4" fill="#44BA82"/>
<rect x="14" y="8.39999" width="1.4" height="1.4" fill="#44BA82"/>
<rect x="9.7998" y="9.79999" width="1.4" height="1.4" fill="#318E68"/>
<rect x="14" y="9.79999" width="1.4" height="1.4" fill="#318E68"/>
<rect x="9.7998" y="11.2" width="1.4" height="1.4" fill="#318E68"/>
<rect x="14" y="11.2" width="1.4" height="1.4" fill="#318E68"/>
<rect x="9.7998" y="12.6" width="1.4" height="1.4" fill="#318E68"/>
<rect x="14" y="12.6" width="1.4" height="1.4" fill="#318E68"/>
<rect x="9.7998" y="14" width="1.4" height="1.4" fill="#318E68"/>
<rect x="14" y="14" width="1.4" height="1.4" fill="#318E68"/>
<rect x="9.7998" y="15.4" width="1.4" height="1.4" fill="#318E68"/>
<rect x="14" y="15.4" width="1.4" height="1.4" fill="#318E68"/>
<rect x="9.7998" y="16.8" width="1.4" height="1.4" fill="#318E68"/>
<rect x="14" y="16.8" width="1.4" height="1.4" fill="#318E68"/>
<path d="M9.7998 18.2H11.1998V19.6H9.7998V18.2Z" fill="#318E68"/>
<rect x="14" y="18.2" width="1.4" height="1.4" fill="#318E68"/>
<path d="M14 19.6H15.4V21H14V19.6Z" fill="#318E68"/>
<rect x="4.2002" y="22.4" width="1.4" height="1.4" fill="#44BA82"/>
<rect x="4.2002" y="21" width="1.4" height="1.4" fill="#44BA82"/>
<rect x="4.2002" y="19.6" width="1.4" height="1.4" fill="#44BA82"/>
<rect x="4.2002" y="11.2" width="1.4" height="1.4" fill="#44BA82"/>
<rect x="4.2002" y="9.79999" width="1.4" height="1.4" fill="#44BA82"/>
<rect x="4.2002" y="8.39999" width="1.4" height="1.4" fill="#44BA82"/>
<rect x="11.2002" y="4.20001" width="1.4" height="1.4" fill="#44BA82"/>
<rect x="11.2002" y="5.60001" width="1.4" height="1.4" fill="#318E68"/>
<rect x="11.2002" y="7" width="1.4" height="1.4" fill="#318E68"/>
<rect x="11.2002" y="8.39999" width="1.4" height="1.4" fill="#318E68"/>
<rect x="15.3999" y="8.39999" width="1.4" height="1.4" fill="#44BA82"/>
<rect x="11.2002" y="9.79999" width="1.4" height="1.4" fill="#318E68"/>
<rect x="15.3999" y="9.79999" width="1.4" height="1.4" fill="#318E68"/>
<rect x="11.2002" y="11.2" width="1.4" height="1.4" fill="#318E68"/>
<rect x="15.3999" y="11.2" width="1.4" height="1.4" fill="#318E68"/>
<rect x="11.2002" y="12.6" width="1.4" height="1.4" fill="#318E68"/>
<rect x="15.3999" y="12.6" width="1.4" height="1.4" fill="#318E68"/>
<rect x="11.2002" y="14" width="1.4" height="1.4" fill="#318E68"/>
<rect x="15.3999" y="14" width="1.4" height="1.4" fill="#318E68"/>
<path d="M19.6001 14H21.0001V15.4H19.6001V14Z" fill="#318E68"/>
<rect x="11.2002" y="15.4" width="1.4" height="1.4" fill="#318E68"/>
<rect x="15.3999" y="15.4" width="1.4" height="1.4" fill="#318E68"/>
<rect x="19.6001" y="15.4" width="1.4" height="1.4" fill="#318E68"/>
<rect x="11.2002" y="16.8" width="1.4" height="1.4" fill="#318E68"/>
<rect x="15.3999" y="16.8" width="1.4" height="1.4" fill="#318E68"/>
<rect x="19.6001" y="16.8" width="1.4" height="1.4" fill="#318E68"/>
<path d="M11.2002 18.2H12.6002V19.6H11.2002V18.2Z" fill="#318E68"/>
<rect x="15.3999" y="18.2" width="1.4" height="1.4" fill="#318E68"/>
<path d="M15.3999 19.6H16.7999V21H15.3999V19.6Z" fill="#318E68"/>
<rect x="15.3999" y="21" width="1.4" height="1.4" fill="#318E68"/>
<rect x="15.3999" y="22.4" width="1.4" height="1.4" fill="#318E68"/>
<rect x="5.6001" y="22.4" width="1.4" height="1.4" fill="#318E68"/>
<rect x="5.6001" y="21" width="1.4" height="1.4" fill="#318E68"/>
<rect x="5.6001" y="19.6" width="1.4" height="1.4" fill="#44BA82"/>
<rect x="5.6001" y="11.2" width="1.4" height="1.4" fill="#318E68"/>
<rect x="5.6001" y="9.79999" width="1.4" height="1.4" fill="#318E68"/>
<rect x="5.6001" y="8.39999" width="1.4" height="1.4" fill="#44BA82"/>
<rect x="12.6001" y="4.20001" width="1.4" height="1.4" fill="#44BA82"/>
<rect x="12.6001" y="5.60001" width="1.4" height="1.4" fill="#318E68"/>
<rect x="12.6001" y="7" width="1.4" height="1.4" fill="#318E68"/>
<rect x="12.6001" y="8.39999" width="1.4" height="1.4" fill="#318E68"/>
<rect x="16.7998" y="8.39999" width="1.4" height="1.4" fill="#44BA82"/>
<rect x="18.2002" y="8.39999" width="1.4" height="1.4" fill="#44BA82"/>
<rect x="12.6001" y="9.79999" width="1.4" height="1.4" fill="#318E68"/>
<rect x="16.7998" y="9.79999" width="1.4" height="1.4" fill="#318E68"/>
<rect x="18.2002" y="9.79999" width="1.4" height="1.4" fill="#318E68"/>
<rect x="12.6001" y="11.2" width="1.4" height="1.4" fill="#318E68"/>
<rect x="16.7998" y="11.2" width="1.4" height="1.4" fill="#318E68"/>
<rect x="18.2002" y="11.2" width="1.4" height="1.4" fill="#318E68"/>
<rect x="12.6001" y="12.6" width="1.4" height="1.4" fill="#318E68"/>
<rect x="16.7998" y="12.6" width="1.4" height="1.4" fill="#318E68"/>
<path d="M18.2002 12.6H19.6002V14H18.2002V12.6Z" fill="#318E68"/>
<rect x="12.6001" y="14" width="1.4" height="1.4" fill="#318E68"/>
<rect x="16.7998" y="14" width="1.4" height="1.4" fill="#318E68"/>
<rect x="21" y="14" width="1.4" height="1.4" fill="#318E68"/>
<path d="M18.2002 14H19.6002V15.4H18.2002V14Z" fill="#318E68"/>
<rect x="22.3999" y="14" width="1.4" height="1.4" fill="#318E68"/>
<rect x="12.6001" y="15.4" width="1.4" height="1.4" fill="#318E68"/>
<rect x="16.7998" y="15.4" width="1.4" height="1.4" fill="#318E68"/>
<rect x="21" y="15.4" width="1.4" height="1.4" fill="#318E68"/>
<rect x="18.2002" y="15.4" width="1.4" height="1.4" fill="#318E68"/>
<rect x="22.3999" y="15.4" width="1.4" height="1.4" fill="#318E68"/>
<rect x="12.6001" y="16.8" width="1.4" height="1.4" fill="#318E68"/>
<rect x="16.7998" y="16.8" width="1.4" height="1.4" fill="#318E68"/>
<rect x="21" y="16.8" width="1.4" height="1.4" fill="#318E68"/>
<rect x="18.2002" y="16.8" width="1.4" height="1.4" fill="#318E68"/>
<rect x="22.3999" y="16.8" width="1.4" height="1.4" fill="#318E68"/>
<rect x="12.6001" y="18.2" width="1.4" height="1.4" fill="#318E68"/>
<rect x="16.7998" y="18.2" width="1.4" height="1.4" fill="#318E68"/>
<rect x="16.7998" y="19.6" width="1.4" height="1.4" fill="#318E68"/>
<rect x="16.7998" y="21" width="1.4" height="1.4" fill="#318E68"/>
<rect x="16.7998" y="22.4" width="1.4" height="1.4" fill="#318E68"/>
<rect x="18.2002" y="18.2" width="1.4" height="1.4" fill="#318E68"/>
<rect x="18.2002" y="19.6" width="1.4" height="1.4" fill="#318E68"/>
<rect x="18.2002" y="21" width="1.4" height="1.4" fill="#318E68"/>
<rect x="18.2002" y="22.4" width="1.4" height="1.4" fill="#318E68"/>
<rect x="7" y="22.4" width="1.4" height="1.4" fill="#318E68"/>
<rect x="7" y="21" width="1.4" height="1.4" fill="#318E68"/>
<rect x="7" y="19.6" width="1.4" height="1.4" fill="#318E68"/>
<rect x="7" y="18.2" width="1.4" height="1.4" fill="#318E68"/>
<rect x="7" y="11.2" width="1.4" height="1.4" fill="#318E68"/>
<rect x="7" y="12.6" width="1.4" height="1.4" fill="#318E68"/>
<rect x="7" y="9.79999" width="1.4" height="1.4" fill="#318E68"/>
<rect x="7" y="8.39999" width="1.4" height="1.4" fill="#44BA82"/>
<rect x="8.3999" y="8.39999" width="1.4" height="1.4" fill="#44BA82"/>
<rect x="8.3999" y="9.79999" width="1.4" height="1.4" fill="#318E68"/>
<rect x="8.3999" y="11.2" width="1.4" height="1.4" fill="#318E68"/>
<rect x="8.3999" y="12.6" width="1.4" height="1.4" fill="#318E68"/>
<rect x="8.3999" y="14" width="1.4" height="1.4" fill="#318E68"/>
<rect x="8.3999" y="15.4" width="1.4" height="1.4" fill="#318E68"/>
<rect x="8.3999" y="16.8" width="1.4" height="1.4" fill="#318E68"/>
<rect x="8.3999" y="18.2" width="1.4" height="1.4" fill="#318E68"/>
<rect x="8.3999" y="19.6" width="1.4" height="1.4" fill="#318E68"/>
<rect x="9.7998" y="2.79999" width="1.4" height="1.4" fill="#005737"/>
<rect x="11.2002" y="2.79999" width="1.4" height="1.4" fill="#005737"/>
<rect x="12.6001" y="2.79999" width="1.4" height="1.4" fill="#005737"/>
<rect x="14" y="4.20001" width="1.4" height="1.4" fill="#005737"/>
<rect x="14" y="5.60001" width="1.4" height="1.4" fill="#005737"/>
<rect x="14" y="7" width="1.4" height="1.4" fill="#005737"/>
<rect x="15.3999" y="7" width="1.4" height="1.4" fill="#005737"/>
<rect x="16.7998" y="7" width="1.4" height="1.4" fill="#005737"/>
<rect x="18.2002" y="7" width="1.4" height="1.4" fill="#005737"/>
<rect x="19.6001" y="7" width="1.4" height="1.4" fill="#005737"/>
<rect x="19.6001" y="8.39999" width="1.4" height="1.4" fill="#005737"/>
<rect x="19.6001" y="9.79999" width="1.4" height="1.4" fill="#005737"/>
<rect x="19.6001" y="11.2" width="1.4" height="1.4" fill="#005737"/>
<rect x="19.6001" y="12.6" width="1.4" height="1.4" fill="#005737"/>
<rect x="21" y="12.6" width="1.4" height="1.4" fill="#005737"/>
<rect x="22.3999" y="12.6" width="1.4" height="1.4" fill="#005737"/>
<rect x="23.7998" y="14" width="1.4" height="1.4" fill="#005737"/>
<rect x="23.7998" y="15.4" width="1.4" height="1.4" fill="#005737"/>
<rect x="23.7998" y="16.8" width="1.4" height="1.4" fill="#005737"/>
<rect x="22.3999" y="18.2" width="1.4" height="1.4" fill="#005737"/>
<rect x="21" y="18.2" width="1.4" height="1.4" fill="#005737"/>
<rect x="19.6001" y="18.2" width="1.4" height="1.4" fill="#005737"/>
<rect x="19.6001" y="19.6" width="1.4" height="1.4" fill="#005737"/>
<rect x="19.6001" y="21" width="1.4" height="1.4" fill="#005737"/>
<rect x="19.6001" y="22.4" width="1.4" height="1.4" fill="#005737"/>
<rect x="19.6001" y="23.8" width="1.4" height="1.4" fill="#005737"/>
<rect x="18.2002" y="23.8" width="1.4" height="1.4" fill="#005737"/>
<rect x="16.7998" y="23.8" width="1.4" height="1.4" fill="#005737"/>
<rect x="15.3999" y="23.8" width="1.4" height="1.4" fill="#005737"/>
<rect x="14" y="22.4" width="1.4" height="1.4" fill="#005737"/>
<rect x="14" y="21" width="1.4" height="1.4" fill="#005737"/>
<rect x="12.6001" y="19.6" width="1.4" height="1.4" fill="#005737"/>
<rect x="11.2002" y="19.6" width="1.4" height="1.4" fill="#005737"/>
<rect x="9.7998" y="19.6" width="1.4" height="1.4" fill="#005737"/>
<rect x="8.3999" y="21" width="1.4" height="1.4" fill="#005737"/>
<rect x="8.3999" y="22.4" width="1.4" height="1.4" fill="#005737"/>
<rect x="14" y="23.8" width="1.4" height="1.4" fill="#005737"/>
<rect x="8.3999" y="23.8" width="1.4" height="1.4" fill="#005737"/>
<rect x="7" y="23.8" width="1.4" height="1.4" fill="#005737"/>
<rect x="5.6001" y="23.8" width="1.4" height="1.4" fill="#005737"/>
</svg>
