<svg width="28" height="28" viewBox="0 0 28 28" fill="none" xmlns="http://www.w3.org/2000/svg">
<g clip-path="url(#clip0_17298_8752)">
<rect x="4.90039" y="11.9" width="18.2" height="9.8" fill="#044298"/>
<rect x="7.7002" y="21.7" width="12.6" height="1.4" fill="#044298"/>
<rect x="9.80029" y="23.1" width="8.4" height="1.4" fill="#044298"/>
<rect x="11.9004" y="4.89999" width="2.8" height="1.4" fill="#0082E6"/>
<rect x="11.9004" y="14.7" width="2.8" height="1.4" fill="#0082E6"/>
<rect width="2.8" height="1.4" transform="matrix(1 0 0 -1 11.9004 14.7)" fill="#0082E6"/>
<rect x="9.1001" y="6.29999" width="8.4" height="1.4" fill="#0082E6"/>
<rect width="14" height="1.4" transform="matrix(1 0 0 -1 9.1001 13.3)" fill="#0082E6"/>
<rect width="2.8" height="1.4" transform="matrix(1 0 0 -1 9.1001 14.7)" fill="#0082E6"/>
<rect x="17.5" y="14.7" width="2.8" height="1.4" transform="rotate(180 17.5 14.7)" fill="#0082E6"/>
<rect width="4.2" height="1.4" transform="matrix(1 0 0 -1 4.90039 13.3)" fill="#0082E6"/>
<rect width="2.8" height="1.4" transform="matrix(-1 0 0 1 18.9004 6.29999)" fill="#044298"/>
<rect x="23.1001" y="13.3" width="2.8" height="1.4" transform="rotate(180 23.1001 13.3)" fill="#0082E6"/>
<rect x="20.3003" y="14.7" width="2.8" height="1.4" transform="rotate(180 20.3003 14.7)" fill="#0082E6"/>
<rect x="17.5" y="16.1" width="2.8" height="1.4" transform="rotate(180 17.5 16.1)" fill="#0082E6"/>
<rect x="14.7002" y="17.5" width="2.8" height="1.4" transform="rotate(180 14.7002 17.5)" fill="#0082E6"/>
<rect x="11.9004" y="16.1" width="2.8" height="1.4" transform="rotate(180 11.9004 16.1)" fill="#0082E6"/>
<rect x="9.1001" y="14.7" width="2.8" height="1.4" transform="rotate(180 9.1001 14.7)" fill="#0082E6"/>
<rect x="6.30029" y="7.69998" width="2.8" height="1.4" fill="#0082E6"/>
<rect width="2.8" height="1.4" transform="matrix(1 0 0 -1 6.30029 11.9)" fill="#0082E6"/>
<rect width="11.2" height="1.4" transform="matrix(-1 0 0 1 20.3003 7.69998)" fill="#0082E6"/>
<rect x="25.9004" y="11.9" width="16.8" height="1.4" transform="rotate(180 25.9004 11.9)" fill="#0082E6"/>
<rect x="25.9004" y="11.9" width="2.8" height="1.4" transform="rotate(180 25.9004 11.9)" fill="#0082E6"/>
<rect x="3.5" y="9.10001" width="2.8" height="1.4" fill="#0082E6"/>
<rect x="3.5" y="10.5" width="2.8" height="1.4" fill="#55B3FB"/>
<rect x="3.5" y="11.9" width="2.8" height="1.4" fill="#044298"/>
<rect x="6.30029" y="13.3" width="2.8" height="1.4" fill="#044298"/>
<rect x="9.1001" y="14.7" width="2.8" height="1.4" fill="#044298"/>
<rect x="11.9004" y="16.1" width="2.8" height="1.4" fill="#044298"/>
<rect x="14.7002" y="16.1" width="2.8" height="1.4" fill="#044298"/>
<rect x="16.1001" y="14.7" width="2.8" height="1.4" fill="#044298"/>
<rect x="18.9004" y="13.3" width="2.8" height="1.4" fill="#044298"/>
<rect x="21.7002" y="11.9" width="2.8" height="1.4" fill="#044298"/>
<rect width="2.8" height="1.4" transform="matrix(-1 0 0 1 27.3003 10.5)" fill="#044298"/>
<rect width="4.2" height="1.4" transform="matrix(-1 0 0 1 23.1001 9.10001)" fill="#0082E6"/>
<rect x="23.1001" y="10.5" width="2.8" height="1.4" transform="rotate(180 23.1001 10.5)" fill="#0082E6"/>
<rect x="20.3003" y="9.10001" width="2.8" height="1.4" transform="rotate(180 20.3003 9.10001)" fill="#0082E6"/>
<rect width="2.8" height="1.4" transform="matrix(-1 0 0 1 21.7002 7.69998)" fill="#044298"/>
<rect x="16.1001" y="6.29999" width="4.2" height="1.4" transform="rotate(180 16.1001 6.29999)" fill="#044298"/>
<rect x="11.9004" y="7.69998" width="2.8" height="1.4" transform="rotate(180 11.9004 7.69998)" fill="#044298"/>
<rect x="9.1001" y="9.10001" width="2.8" height="1.4" transform="rotate(180 9.1001 9.10001)" fill="#044298"/>
<rect x="6.30029" y="10.5" width="2.8" height="1.4" transform="rotate(180 6.30029 10.5)" fill="#044298"/>
<rect x="3.5" y="11.9" width="2.8" height="1.4" transform="rotate(180 3.5 11.9)" fill="#044298"/>
<rect width="2.8" height="1.4" transform="matrix(-1 0 0 1 24.5 9.10001)" fill="#044298"/>
<rect x="6.30029" y="9.10001" width="9.8" height="1.4" fill="#0082E6"/>
<rect x="6.30029" y="9.10001" width="2.8" height="1.4" fill="#55B3FB"/>
<rect x="9.1001" y="7.69998" width="2.8" height="1.4" fill="#55B3FB"/>
<rect x="11.9004" y="6.29999" width="4.2" height="1.4" fill="#55B3FB"/>
<rect width="2.8" height="1.4" transform="matrix(-1 0 0 1 18.9004 9.10001)" fill="#0082E6"/>
<rect x="9.1001" y="10.5" width="2.8" height="1.4" fill="#FA500F"/>
<rect x="11.9004" y="9.10001" width="2.8" height="1.4" fill="#FA500F"/>
<rect x="6.30029" y="11.9" width="2.8" height="1.4" fill="#FA500F"/>
<rect x="4.90039" y="13.3" width="1.4" height="1.4" fill="#FA500F"/>
<rect x="3.5" y="13.3" width="2.8" height="1.4" fill="#FA500F"/>
<rect x="2.1001" y="14.7" width="1.4" height="4.2" fill="#FA500F"/>
<rect x="2.1001" y="18.9" width="1.4" height="1.4" fill="#FEC63A"/>
<rect x="0.700195" y="20.3" width="4.2" height="4.2" fill="#E61300"/>
<rect x="2.1001" y="21.7" width="1.4" height="2.8" fill="#FA500F"/>
<rect x="7.7002" y="14.7" width="1.4" height="7" fill="#0082E6"/>
<rect x="6.30029" y="14.7" width="1.4" height="5.6" fill="#0082E6"/>
<rect x="9.1001" y="16.1" width="1.4" height="5.6" fill="#0082E6"/>
<rect x="10.5" y="17.5" width="1.4" height="5.775" fill="#0082E6"/>
</g>
<defs>
<clipPath id="clip0_17298_8752">
<rect width="28" height="28" fill="white"/>
</clipPath>
</defs>
</svg>
