<svg width="28" height="28" viewBox="0 0 28 28" fill="none" xmlns="http://www.w3.org/2000/svg">
<path d="M18.9 2.1001H9.09998V10.5001H18.9V2.1001Z" fill="#B9DAFF"/>
<path d="M9.10001 25.8999H7.70001V27.2999H9.10001V25.8999Z" fill="#044298"/>
<path d="M9.10001 24.5H7.70001V25.9H9.10001V24.5Z" fill="#044298"/>
<path d="M10.5 23.1001H9.09998V24.5001H10.5V23.1001Z" fill="#044298"/>
<path d="M10.5 25.8999H9.09998V27.2999H10.5V25.8999Z" fill="#044298"/>
<path d="M10.5 25.8999H9.09998V27.2999H10.5V25.8999Z" fill="#044298"/>
<path d="M11.9 25.8999H10.5V27.2999H11.9V25.8999Z" fill="#044298"/>
<path d="M13.3 25.8999H11.9V27.2999H13.3V25.8999Z" fill="#044298"/>
<path d="M14.7 25.8999H13.3V27.2999H14.7V25.8999Z" fill="#044298"/>
<path d="M16.1 25.8999H14.7V27.2999H16.1V25.8999Z" fill="#044298"/>
<path d="M17.5 25.8999H16.1V27.2999H17.5V25.8999Z" fill="#044298"/>
<path d="M18.9 25.8999H17.5V27.2999H18.9V25.8999Z" fill="#044298"/>
<path d="M18.9 25.8999H17.5V27.2999H18.9V25.8999Z" fill="#044298"/>
<path d="M10.5 24.5H9.09998V25.9H10.5V24.5Z" fill="#B9DAFF"/>
<path d="M10.5 24.5H9.09998V25.9H10.5V24.5Z" fill="#0082E6"/>
<path d="M11.9 24.5H10.5V25.9H11.9V24.5Z" fill="#0082E6"/>
<path d="M13.3 24.5H11.9V25.9H13.3V24.5Z" fill="#B9DAFF"/>
<path d="M14.7 24.5H13.3V25.9H14.7V24.5Z" fill="#B9DAFF"/>
<path d="M16.1 24.5H14.7V25.9H16.1V24.5Z" fill="#B9DAFF"/>
<path d="M17.5 24.5H16.1V25.9H17.5V24.5Z" fill="#B9DAFF"/>
<path d="M18.9 24.5H17.5V25.9H18.9V24.5Z" fill="#B9DAFF"/>
<path d="M18.9 24.5H17.5V25.9H18.9V24.5Z" fill="#B9DAFF"/>
<path d="M20.3 25.8999H18.9V27.2999H20.3V25.8999Z" fill="#044298"/>
<path d="M20.3 24.5H18.9V25.9H20.3V24.5Z" fill="#044298"/>
<path d="M18.9 23.1001H17.5V24.5001H18.9V23.1001Z" fill="#044298"/>
<path d="M18.9 23.1001H17.5V24.5001H18.9V23.1001Z" fill="#044298"/>
<path d="M17.5 23.1001H16.1V24.5001H17.5V23.1001Z" fill="#044298"/>
<path d="M16.1 21.7H14.7V23.1H16.1V21.7Z" fill="#044298"/>
<path d="M13.3 23.1001H11.9V24.5001H13.3V23.1001Z" fill="#044298"/>
<path d="M16.1 20.3H14.7V21.7H16.1V20.3Z" fill="#044298"/>
<path d="M14.7 23.1001H13.3V24.5001H14.7V23.1001Z" fill="#044298"/>
<path d="M16.1 23.1001H14.7V24.5001H16.1V23.1001Z" fill="#044298"/>
<path d="M11.9 23.1001H10.5V24.5001H11.9V23.1001Z" fill="#044298"/>
<path d="M13.3 21.7H11.9V23.1H13.3V21.7Z" fill="#044298"/>
<path d="M14.7 21.7H13.3V23.1H14.7V21.7Z" fill="#B9DAFF"/>
<path d="M13.3 20.3H11.9V21.7H13.3V20.3Z" fill="#044298"/>
<path d="M14.7 20.3H13.3V21.7H14.7V20.3Z" fill="#B9DAFF"/>
<path d="M14.7 17.5H13.3V18.9H14.7V17.5Z" fill="#B9DAFF"/>
<path d="M13.3 17.5H11.9V18.9H13.3V17.5Z" fill="#044298"/>
<path d="M16.1 17.5H14.7V18.9H16.1V17.5Z" fill="#044298"/>
<path d="M13.3 18.8999H11.9V20.2999H13.3V18.8999Z" fill="#044298"/>
<path d="M10.5 18.8999H9.09998V20.2999H10.5V18.8999Z" fill="#044298"/>
<path d="M11.9 18.8999H10.5V20.2999H11.9V18.8999Z" fill="#044298"/>
<path d="M14.7 18.8999H13.3V20.2999H14.7V18.8999Z" fill="#044298"/>
<path d="M16.1 18.8999H14.7V20.2999H16.1V18.8999Z" fill="#044298"/>
<path d="M17.5 18.8999H16.1V20.2999H17.5V18.8999Z" fill="#044298"/>
<path d="M18.9 18.8999H17.5V20.2999H18.9V18.8999Z" fill="#044298"/>
<path d="M20.3 17.5H18.9V18.9H20.3V17.5Z" fill="#044298"/>
<path d="M21.7 16.1001H20.3V17.5001H21.7V16.1001Z" fill="#044298"/>
<path d="M21.7 14.7H20.3V16.1H21.7V14.7Z" fill="#044298"/>
<path d="M21.7 13.3H20.3V14.7H21.7V13.3Z" fill="#044298"/>
<path d="M21.7 11.8999H20.3V13.2999H21.7V11.8999Z" fill="#044298"/>
<path d="M21.7 10.5H20.3V11.9H21.7V10.5Z" fill="#044298"/>
<path d="M20.3 9.1001H18.9V10.5001H20.3V9.1001Z" fill="#044298"/>
<path d="M20.3 7.69995H18.9V9.09995H20.3V7.69995Z" fill="#044298"/>
<path d="M20.3 6.30005H18.9V7.70005H20.3V6.30005Z" fill="#044298"/>
<path d="M20.3 4.8999H18.9V6.2999H20.3V4.8999Z" fill="#044298"/>
<path d="M20.3 3.5H18.9V4.9H20.3V3.5Z" fill="#044298"/>
<path d="M23.1 10.5H21.7V11.9H23.1V10.5Z" fill="#044298"/>
<path d="M7.69999 16.1001H6.29999V17.5001H7.69999V16.1001Z" fill="#044298"/>
<path d="M9.10001 17.5H7.70001V18.9H9.10001V17.5Z" fill="#044298"/>
<path d="M7.69999 14.7H6.29999V16.1H7.69999V14.7Z" fill="#044298"/>
<path d="M7.69999 13.3H6.29999V14.7H7.69999V13.3Z" fill="#044298"/>
<path d="M7.69999 11.8999H6.29999V13.2999H7.69999V11.8999Z" fill="#044298"/>
<path d="M7.69999 10.5H6.29999V11.9H7.69999V10.5Z" fill="#044298"/>
<path d="M9.10001 10.5H7.70001V11.9H9.10001V10.5Z" fill="#044298"/>
<path d="M9.10001 11.8999H7.70001V13.2999H9.10001V11.8999Z" fill="#044298"/>
<path d="M13.3 16.1001H11.9V17.5001H13.3V16.1001Z" fill="#044298"/>
<path d="M9.10001 13.3H7.70001V14.7H9.10001V13.3Z" fill="#044298"/>
<path d="M10.5 14.7H9.09998V16.1H10.5V14.7Z" fill="#044298"/>
<path d="M11.9 16.1001H10.5V17.5001H11.9V16.1001Z" fill="#044298"/>
<path d="M14.7 16.1001H13.3V17.5001H14.7V16.1001Z" fill="#044298"/>
<path d="M16.1 16.1001H14.7V17.5001H16.1V16.1001Z" fill="#044298"/>
<path d="M17.5 16.1001H16.1V17.5001H17.5V16.1001Z" fill="#044298"/>
<path d="M18.9 14.7H17.5V16.1H18.9V14.7Z" fill="#044298"/>
<path d="M20.3 13.3H18.9V14.7H20.3V13.3Z" fill="#044298"/>
<path d="M20.3 11.8999H18.9V13.2999H20.3V11.8999Z" fill="#044298"/>
<path d="M9.10001 9.1001H7.70001V10.5001H9.10001V9.1001Z" fill="#044298"/>
<path d="M11.6304 9.50757H10.6379V10.5H11.6304V9.50757Z" fill="#044298"/>
<path d="M12.6226 9.50757H11.6301V10.5H12.6226V9.50757Z" fill="#044298"/>
<path d="M12.6226 8.51514H11.6301V9.50761H12.6226V8.51514Z" fill="#044298"/>
<path d="M12.6226 7.52246H11.6301V8.51494H12.6226V7.52246Z" fill="#044298"/>
<path d="M12.6226 6.53003H11.6301V7.52251H12.6226V6.53003Z" fill="#044298"/>
<path d="M12.6226 5.5376H11.6301V6.53008H12.6226V5.5376Z" fill="#044298"/>
<path d="M13.6152 6.53003H12.6227V7.52251H13.6152V6.53003Z" fill="#044298"/>
<path d="M15.6 9.50757H14.6075V10.5H15.6V9.50757Z" fill="#044298"/>
<path d="M13.6152 9.50757H12.6227V10.5H13.6152V9.50757Z" fill="#044298"/>
<path d="M16.5926 9.50757H15.6001V10.5H16.5926V9.50757Z" fill="#044298"/>
<path d="M13.6152 7.52246H12.6227V8.51494H13.6152V7.52246Z" fill="#044298"/>
<path d="M16.5926 8.51514H15.6001V9.50761H16.5926V8.51514Z" fill="#044298"/>
<path d="M16.5926 7.52246H15.6001V8.51494H16.5926V7.52246Z" fill="#044298"/>
<path d="M16.5926 6.53003H15.6001V7.52251H16.5926V6.53003Z" fill="#044298"/>
<path d="M16.5925 5.5376H15.6V6.53008H16.5925V5.5376Z" fill="#044298"/>
<path d="M18.3277 5.30005H17.3353V6.29253H18.3277V5.30005Z" fill="#0082E6"/>
<path d="M16.5246 3.23926H15.5321V4.23174H16.5246V3.23926Z" fill="#0082E6"/>
<path d="M14.2063 4.26978H13.2138V5.26225H14.2063V4.26978Z" fill="#0082E6"/>
<path d="M12.6608 2.72412H11.6683V3.7166H12.6608V2.72412Z" fill="#0082E6"/>
<path d="M11.3727 4.26978H10.3802V5.26225H11.3727V4.26978Z" fill="#0082E6"/>
<path d="M18.3277 7.61841H17.3353V8.61089H18.3277V7.61841Z" fill="#0082E6"/>
<path d="M11.1152 7.61841H10.1227V8.61089H11.1152V7.61841Z" fill="#0082E6"/>
<path d="M10.3424 5.81519H9.34991V6.80766H10.3424V5.81519Z" fill="#044298"/>
<path d="M15.6 6.53003H14.6075V7.52251H15.6V6.53003Z" fill="#044298"/>
<path d="M14.6074 7.52246H13.6149V8.51494H14.6074V7.52246Z" fill="#044298"/>
<path d="M14.6074 8.51514H13.6149V9.50761H14.6074V8.51514Z" fill="#044298"/>
<path d="M15.6 7.52246H14.6075V8.51494H15.6V7.52246Z" fill="#044298"/>
<path d="M17.5848 9.50757H16.5923V10.5H17.5848V9.50757Z" fill="#044298"/>
<path d="M9.10001 7.69995H7.70001V9.09995H9.10001V7.69995Z" fill="#044298"/>
<path d="M9.10001 6.30005H7.70001V7.70005H9.10001V6.30005Z" fill="#044298"/>
<path d="M13.3 0.699951H11.9V2.09995H13.3V0.699951Z" fill="#0082E6"/>
<path d="M9.10001 4.8999H7.70001V6.2999H9.10001V4.8999Z" fill="#044298"/>
<path d="M9.10001 3.5H7.70001V4.9H9.10001V3.5Z" fill="#044298"/>
<path d="M10.5 2.1001H9.09998V3.5001H10.5V2.1001Z" fill="#0082E6"/>
<path d="M11.9 0.699951H10.5V2.09995H11.9V0.699951Z" fill="#0082E6"/>
<path d="M14.7 0.699951H13.3V2.09995H14.7V0.699951Z" fill="#0082E6"/>
<path d="M13.3 10.5H11.9V11.9H13.3V10.5Z" fill="#044298"/>
<path d="M13.3 11.8999H11.9V13.2999H13.3V11.8999Z" fill="#B9DAFF"/>
<path d="M13.3 11.8999H11.9V13.2999H13.3V11.8999Z" fill="#B9DAFF"/>
<path d="M13.3 13.3H11.9V14.7H13.3V13.3Z" fill="#B9DAFF"/>
<path d="M13.3 14.7H11.9V16.1H13.3V14.7Z" fill="#B9DAFF"/>
<path d="M16.1 0.699951H14.7V2.09995H16.1V0.699951Z" fill="#0082E6"/>
<path d="M17.5 0.699951H16.1V2.09995H17.5V0.699951Z" fill="#0082E6"/>
<path d="M10.5 10.5H9.09998V11.9H10.5V10.5Z" fill="#044298"/>
<path d="M11.9 10.5H10.5V11.9H11.9V10.5Z" fill="#044298"/>
<path d="M14.7 10.5H13.3V11.9H14.7V10.5Z" fill="#044298"/>
<path d="M16.1 10.5H14.7V11.9H16.1V10.5Z" fill="#044298"/>
<path d="M17.5 10.5H16.1V11.9H17.5V10.5Z" fill="#044298"/>
<path d="M18.9 10.5H17.5V11.9H18.9V10.5Z" fill="#044298"/>
<path d="M18.9 2.1001H17.5V3.5001H18.9V2.1001Z" fill="#0082E6"/>
<path d="M10.5 11.8999H9.09998V13.2999H10.5V11.8999Z" fill="#B9DAFF"/>
<path d="M10.5 11.8999H9.09998V13.2999H10.5V11.8999Z" fill="#0082E6"/>
<path d="M11.9 11.8999H10.5V13.2999H11.9V11.8999Z" fill="#B9DAFF"/>
<path d="M10.5 13.3H9.09998V14.7H10.5V13.3Z" fill="#0082E6"/>
<path d="M14.7 11.8999H13.3V13.2999H14.7V11.8999Z" fill="#B9DAFF"/>
<path d="M11.9 11.8999H10.5V13.2999H11.9V11.8999Z" fill="#B9DAFF"/>
<path d="M11.9 13.3H10.5V14.7H11.9V13.3Z" fill="#B9DAFF"/>
<path d="M11.9 14.7H10.5V16.1H11.9V14.7Z" fill="#0082E6"/>
<path d="M16.1 11.8999H14.7V13.2999H16.1V11.8999Z" fill="#B9DAFF"/>
<path d="M14.7 11.8999H13.3V13.2999H14.7V11.8999Z" fill="#B9DAFF"/>
<path d="M17.5 11.8999H16.1V13.2999H17.5V11.8999Z" fill="#B9DAFF"/>
<path d="M14.7 13.3H13.3V14.7H14.7V13.3Z" fill="#FA500F"/>
<path d="M14.7 14.7H13.3V16.1H14.7V14.7Z" fill="#B9DAFF"/>
<path d="M18.9 11.8999H17.5V13.2999H18.9V11.8999Z" fill="#B9DAFF"/>
<path d="M16.1 11.8999H14.7V13.2999H16.1V11.8999Z" fill="#B9DAFF"/>
<path d="M16.1 13.3H14.7V14.7H16.1V13.3Z" fill="#B9DAFF"/>
<path d="M16.1 14.7H14.7V16.1H16.1V14.7Z" fill="#B9DAFF"/>
<path d="M17.5 11.8999H16.1V13.2999H17.5V11.8999Z" fill="#B9DAFF"/>
<path d="M17.5 13.3H16.1V14.7H17.5V13.3Z" fill="#B9DAFF"/>
<path d="M17.5 14.7H16.1V16.1H17.5V14.7Z" fill="#B9DAFF"/>
<path d="M18.9 11.8999H17.5V13.2999H18.9V11.8999Z" fill="#B9DAFF"/>
<path d="M18.9 13.3H17.5V14.7H18.9V13.3Z" fill="#B9DAFF"/>
<path d="M20.3 10.5H18.9V11.9H20.3V10.5Z" fill="#044298"/>
<path d="M6.30002 10.5H4.90002V11.9H6.30002V10.5Z" fill="#044298"/>
<path d="M10.5 23.1001H9.09998V24.5001H10.5V23.1001Z" fill="#044298"/>
</svg>
