<svg width="28" height="28" viewBox="0 0 28 28" fill="none" xmlns="http://www.w3.org/2000/svg">
<path d="M17.5002 11.9003V6.30005H16.1003V7.70041H14.6999V9.10017H13.3001V7.70041H11.9003V6.30005H10.4998V11.9003H9.10001V13.3H13.3001V11.9003H11.9003V10.4999H13.3001V11.9003H14.6999V10.4999H16.1003V11.9003H14.6999V13.3H18.9V11.9003H17.5002Z" fill="#FF92DC"/>
<path d="M20.3002 16.1002V17.5H17.5V18.9004H16.1003V20.3002H14.6999V13.3H13.3001V20.3002H11.9003V18.9004H10.4999V17.5H7.70037V16.1002H6.29999V18.9004H7.70037V20.3002H10.4999V21.7H17.5V20.3002H20.3002V18.9004H21.7V16.1002H20.3002Z" fill="#44BA82"/>
<rect width="1.4" height="1.4" transform="matrix(-4.37114e-08 1 1 4.37114e-08 14.7 18.8999)" fill="#005737"/>
<rect width="1.4" height="1.4" transform="matrix(-4.37114e-08 1 1 4.37114e-08 17.5 20.3)" fill="#005737"/>
<rect width="1.4" height="1.4" transform="matrix(-4.37114e-08 1 1 4.37114e-08 18.9 20.3)" fill="#005737"/>
<rect width="1.4" height="1.4" transform="matrix(-4.37114e-08 1 1 4.37114e-08 20.3 18.8999)" fill="#005737"/>
<rect width="1.4" height="1.4" transform="matrix(-4.37114e-08 1 1 4.37114e-08 6.29999 18.8999)" fill="#005737"/>
<rect width="1.4" height="1.4" transform="matrix(-4.37114e-08 1 1 4.37114e-08 4.89999 17.5)" fill="#005737"/>
<rect width="1.4" height="1.4" transform="matrix(-4.37114e-08 1 1 4.37114e-08 21.7 17.5)" fill="#005737"/>
<rect width="1.4" height="1.4" transform="matrix(-4.37114e-08 1 1 4.37114e-08 4.89999 16.1001)" fill="#005737"/>
<rect width="1.4" height="1.4" transform="matrix(-4.37114e-08 1 1 4.37114e-08 21.7 16.1001)" fill="#005737"/>
<rect width="1.4" height="1.4" transform="matrix(-4.37114e-08 1 1 4.37114e-08 9.10001 20.3)" fill="#005737"/>
<rect width="1.4" height="1.4" transform="matrix(-4.37114e-08 1 1 4.37114e-08 7.70001 20.3)" fill="#005737"/>
<rect width="1.4" height="1.4" transform="matrix(-4.37114e-08 1 1 4.37114e-08 10.5 17.5)" fill="#318E68"/>
<rect width="1.4" height="1.4" transform="matrix(-4.37114e-08 1 1 4.37114e-08 7.70001 16.1001)" fill="#318E68"/>
<rect width="1.4" height="1.4" transform="matrix(-4.37114e-08 1 1 4.37114e-08 9.10001 16.1001)" fill="#318E68"/>
<rect width="1.4" height="1.4" transform="matrix(-4.37114e-08 1 1 4.37114e-08 6.29999 14.7)" fill="#318E68"/>
<rect width="1.4" height="1.4" transform="matrix(-4.37114e-08 1 1 4.37114e-08 16.1 17.5)" fill="#318E68"/>
<rect width="1.4" height="1.4" transform="matrix(-4.37114e-08 1 1 4.37114e-08 18.9 16.1001)" fill="#318E68"/>
<rect width="1.4" height="1.4" transform="matrix(-4.37114e-08 1 1 4.37114e-08 17.5 16.1001)" fill="#318E68"/>
<rect width="1.4" height="1.4" transform="matrix(-4.37114e-08 1 1 4.37114e-08 20.3 14.7)" fill="#318E68"/>
<rect width="5.6" height="1.4" transform="matrix(-4.37114e-08 1 1 4.37114e-08 14.7 13.3)" fill="#005737"/>
<rect width="5.6" height="1.4" transform="matrix(-4.37114e-08 1 1 4.37114e-08 11.9 13.3)" fill="#005737"/>
<rect width="1.4" height="7" transform="matrix(-4.37114e-08 1 1 4.37114e-08 10.5 21.7)" fill="#005737"/>
<rect width="1.4" height="1.4" transform="matrix(-4.37114e-08 1 1 4.37114e-08 11.9 18.8999)" fill="#005737"/>
<rect x="11.9" y="10.5" width="1.4" height="1.4" fill="#83075C"/>
<rect x="10.5" y="4.8999" width="1.4" height="1.4" fill="#CE1493"/>
<rect x="11.9" y="6.30005" width="1.4" height="1.4" fill="#CE1493"/>
<rect x="13.3" y="7.69995" width="1.4" height="1.4" fill="#CE1493"/>
<rect x="14.7" y="6.30005" width="1.4" height="1.4" fill="#CE1493"/>
<rect x="16.1" y="4.8999" width="1.4" height="1.4" fill="#CE1493"/>
<rect x="17.5" y="6.30005" width="1.4" height="5.6" fill="#CE1493"/>
<rect x="7.70001" y="11.8999" width="1.4" height="1.4" fill="#83075C"/>
<rect x="18.9" y="11.8999" width="1.4" height="1.4" fill="#83075C"/>
<rect x="9.10001" y="6.30005" width="1.4" height="5.6" fill="#CE1493"/>
<rect x="14.7" y="10.5" width="1.4" height="1.4" fill="#83075C"/>
<rect x="13.3" y="11.8999" width="1.4" height="1.4" fill="#83075C"/>
<rect x="9.10001" y="13.3" width="2.8" height="1.4" fill="#83075C"/>
<rect x="16.1" y="13.3" width="2.8" height="1.4" fill="#83075C"/>
<rect x="11.9" y="13.3" width="4.2" height="1.4" fill="#005737"/>
<rect x="13.3" y="14.7" width="1.4" height="1.4" fill="#94EACC"/>
<rect x="13.3" y="16.1001" width="1.4" height="1.4" fill="#44BA82"/>
<rect x="6.29999" y="16.1001" width="1.4" height="1.4" fill="#94EACC"/>
<rect x="20.3" y="16.1001" width="1.4" height="1.4" fill="#94EACC"/>
</svg>
