<svg width="48" height="48" viewBox="0 0 48 48" fill="none" xmlns="http://www.w3.org/2000/svg">
<rect x="12" y="31.2002" width="2.4" height="2.4" fill="#55B3FB"/>
<rect x="9.59998" y="31.2002" width="2.4" height="2.4" fill="#55B3FB"/>
<rect x="7.20001" y="31.2002" width="2.4" height="2.4" fill="#55B3FB"/>
<rect x="4.79999" y="28.7998" width="2.4" height="2.4" fill="#55B3FB"/>
<rect x="2.40002" y="28.7998" width="2.4" height="2.4" fill="#55B3FB"/>
<rect y="26.3999" width="2.4" height="2.4" fill="#55B3FB"/>
<rect x="38.4" y="28.7998" width="2.4" height="2.4" fill="#55B3FB"/>
<rect y="24" width="2.4" height="2.4" fill="#55B3FB"/>
<rect y="21.6001" width="2.4" height="2.4" fill="#55B3FB"/>
<rect x="2.40002" y="19.2002" width="2.4" height="2.4" fill="#55B3FB"/>
<rect x="2.40002" y="16.7998" width="2.4" height="2.4" fill="#55B3FB"/>
<rect x="4.79999" y="14.3999" width="2.4" height="2.4" fill="#55B3FB"/>
<rect x="7.20001" y="12" width="2.4" height="2.4" fill="#55B3FB"/>
<rect x="9.59998" y="12" width="2.4" height="2.4" fill="#55B3FB"/>
<rect x="12" y="12" width="2.4" height="2.4" fill="#55B3FB"/>
<rect x="14.4" y="14.3999" width="2.4" height="2.4" fill="#55B3FB"/>
<rect x="16.8" y="16.7998" width="2.4" height="2.4" fill="#55B3FB"/>
<rect x="16.8" y="19.2002" width="2.4" height="2.4" fill="#B9DAFF"/>
<rect x="14.4" y="12" width="2.4" height="2.4" fill="#B9DAFF"/>
<rect x="16.8" y="9.6001" width="2.4" height="2.4" fill="#B9DAFF"/>
<rect x="19.2" y="9.6001" width="2.4" height="2.4" fill="#B9DAFF"/>
<rect x="21.6" y="9.6001" width="2.4" height="2.4" fill="#B9DAFF"/>
<rect x="24" y="9.6001" width="2.4" height="2.4" fill="#B9DAFF"/>
<rect x="26.4" y="9.6001" width="2.4" height="2.4" fill="#B9DAFF"/>
<rect x="28.8" y="12" width="2.4" height="2.4" fill="#B9DAFF"/>
<rect x="2.40002" y="26.3999" width="2.4" height="2.4" fill="#B9DAFF"/>
<path d="M2.40002 24H4.80002V26.4H2.40002V24Z" fill="#B9DAFF"/>
<path d="M2.40002 21.6001H4.80002V24.0001H2.40002V21.6001Z" fill="#B9DAFF"/>
<path d="M4.79999 26.3999H7.19999V28.7999H4.79999V26.3999Z" fill="#B9DAFF"/>
<path d="M12 28.7998H14.4V31.1998H12V28.7998Z" fill="white"/>
<path d="M19.2 28.7998H21.6V31.1998H19.2V28.7998Z" fill="white"/>
<path d="M26.4 28.7998H28.8V31.1998H26.4V28.7998Z" fill="white"/>
<rect x="4.79999" y="24" width="2.4" height="2.4" fill="white"/>
<rect x="4.79999" y="21.6001" width="2.4" height="2.4" fill="white"/>
<rect x="4.79999" y="19.2002" width="2.4" height="2.4" fill="white"/>
<path d="M4.79999 16.7998H7.19999V19.1998H4.79999V16.7998Z" fill="#B9DAFF"/>
<path d="M7.20001 26.3999H9.60001V28.7999H7.20001V26.3999Z" fill="#B9DAFF"/>
<path d="M7.20001 28.7998H9.60001V31.1998H7.20001V28.7998Z" fill="#B9DAFF"/>
<path d="M14.4 28.7998H16.8V31.1998H14.4V28.7998Z" fill="white"/>
<path d="M21.6 28.7998H24V31.1998H21.6V28.7998Z" fill="white"/>
<path d="M28.8 28.7998H31.2V31.1998H28.8V28.7998Z" fill="#B9DAFF"/>
<path d="M33.6 28.7998H36V31.1998H33.6V28.7998Z" fill="#B9DAFF"/>
<path d="M7.20001 24H9.60001V26.4H7.20001V24Z" fill="#B9DAFF"/>
<rect x="7.20001" y="21.6001" width="2.4" height="2.4" fill="white"/>
<rect x="7.20001" y="19.2002" width="2.4" height="2.4" fill="white"/>
<rect x="7.20001" y="16.7998" width="2.4" height="2.4" fill="white"/>
<path d="M7.20001 14.3999H9.60001V16.7999H7.20001V14.3999Z" fill="#B9DAFF"/>
<path d="M9.59998 26.3999H12V28.7999H9.59998V26.3999Z" fill="#B9DAFF"/>
<rect x="9.59998" y="28.7998" width="2.4" height="2.4" fill="white"/>
<rect x="16.8" y="28.7998" width="2.4" height="2.4" fill="white"/>
<rect x="24" y="28.7998" width="2.4" height="2.4" fill="white"/>
<path d="M31.2 28.7998H33.6V31.1998H31.2V28.7998Z" fill="#B9DAFF"/>
<path d="M36 28.7998H38.4V31.1998H36V28.7998Z" fill="#B9DAFF"/>
<path d="M9.59998 24H12V26.4H9.59998V24Z" fill="#B9DAFF"/>
<path d="M9.59998 21.6001H12V24.0001H9.59998V21.6001Z" fill="#B9DAFF"/>
<rect x="9.59998" y="19.2002" width="2.4" height="2.4" fill="white"/>
<rect x="9.59998" y="16.7998" width="2.4" height="2.4" fill="white"/>
<path d="M9.59998 14.3999H12V16.7999H9.59998V14.3999Z" fill="#B9DAFF"/>
<path d="M12 26.3999H14.4V28.7999H12V26.3999Z" fill="white"/>
<path d="M12 24H14.4V26.4H12V24Z" fill="#B9DAFF"/>
<path d="M12 21.6001H14.4V24.0001H12V21.6001Z" fill="#B9DAFF"/>
<path d="M12 19.2002H14.4V21.6002H12V19.2002Z" fill="#B9DAFF"/>
<rect x="12" y="16.7998" width="2.4" height="2.4" fill="white"/>
<path d="M12 14.3999H14.4V16.7999H12V14.3999Z" fill="#B9DAFF"/>
<path d="M14.4 26.3999H16.8V28.7999H14.4V26.3999Z" fill="white"/>
<rect x="14.4" y="24" width="2.4" height="2.4" fill="white"/>
<rect x="14.4" y="21.6001" width="2.4" height="2.4" fill="white"/>
<rect x="14.4" y="19.2002" width="2.4" height="2.4" fill="white"/>
<path d="M14.4 16.7998H16.8V19.1998H14.4V16.7998Z" fill="#B9DAFF"/>
<path d="M16.8 26.3999H19.2V28.7999H16.8V26.3999Z" fill="white"/>
<rect x="16.8" y="24" width="2.4" height="2.4" fill="white"/>
<rect x="16.8" y="21.6001" width="2.4" height="2.4" fill="white"/>
<path d="M19.2 26.3999H21.6V28.7999H19.2V26.3999Z" fill="white"/>
<rect x="19.2" y="24" width="2.4" height="2.4" fill="white"/>
<path d="M19.2 21.6001H21.6V24.0001H19.2V21.6001Z" fill="#B9DAFF"/>
<rect x="16.8" y="12" width="2.4" height="2.4" fill="white"/>
<rect x="16.8" y="14.3999" width="2.4" height="2.4" fill="white"/>
<path d="M21.6 26.3999H24V28.7999H21.6V26.3999Z" fill="white"/>
<rect x="21.6" y="24" width="2.4" height="2.4" fill="white"/>
<rect x="21.6" y="21.6001" width="2.4" height="2.4" fill="white"/>
<rect x="19.2" y="12" width="2.4" height="2.4" fill="white"/>
<path d="M19.2 14.3999H21.6V16.7999H19.2V14.3999Z" fill="#B9DAFF"/>
<path d="M24 26.3999H26.4V28.7999H24V26.3999Z" fill="white"/>
<rect x="24" y="24" width="2.4" height="2.4" fill="white"/>
<rect x="24" y="21.6001" width="2.4" height="2.4" fill="white"/>
<rect x="21.6" y="12" width="2.4" height="2.4" fill="white"/>
<path d="M21.6 14.3999H24V16.7999H21.6V14.3999Z" fill="#B9DAFF"/>
<rect x="24" y="12" width="2.4" height="2.4" fill="white"/>
<path d="M26.4 12H28.8V14.4H26.4V12Z" fill="#B9DAFF"/>
<path d="M24 14.3999H26.4V16.7999H24V14.3999Z" fill="#B9DAFF"/>
<path d="M26.4 14.3999H28.8V16.7999H26.4V14.3999Z" fill="#B9DAFF"/>
<path d="M26.4 16.7998H28.8V19.1998H26.4V16.7998Z" fill="#B9DAFF"/>
<rect x="26.4" y="19.2002" width="2.4" height="2.4" fill="white"/>
<path d="M26.4 21.6001H28.8V24.0001H26.4V21.6001Z" fill="white"/>
<rect x="26.4" y="24" width="2.4" height="2.4" fill="white"/>
<rect x="26.4" y="26.3999" width="2.4" height="2.4" fill="white"/>
<path d="M28.8 14.3999H31.2V16.7999H28.8V14.3999Z" fill="#B9DAFF"/>
<path d="M28.8 16.7998H31.2V19.1998H28.8V16.7998Z" fill="#B9DAFF"/>
<path d="M24 16.7998H26.4V19.1998H24V16.7998Z" fill="#B9DAFF"/>
<rect x="24" y="19.2002" width="2.4" height="2.4" fill="white"/>
<path d="M21.6 16.7998H24V19.1998H21.6V16.7998Z" fill="#B9DAFF"/>
<path d="M21.6 19.2002H24V21.6002H21.6V19.2002Z" fill="#B9DAFF"/>
<path d="M19.2 16.7998H21.6V19.1998H19.2V16.7998Z" fill="#B9DAFF"/>
<path d="M19.2 19.2002H21.6V21.6002H19.2V19.2002Z" fill="#B9DAFF"/>
<rect x="28.8" y="26.3999" width="2.4" height="2.4" fill="#B9DAFF"/>
<rect x="28.8" y="24" width="2.4" height="2.4" fill="white"/>
<path d="M28.8 21.6001H31.2V24.0001H28.8V21.6001Z" fill="white"/>
<path d="M31.2 26.3999H33.6V28.7999H31.2V26.3999Z" fill="#B9DAFF"/>
<rect x="31.2" y="24" width="2.4" height="2.4" fill="white"/>
<path d="M31.2 21.6001H33.6V24.0001H31.2V21.6001Z" fill="white"/>
<rect x="31.2" y="19.2002" width="2.4" height="2.4" fill="white"/>
<rect x="33.6" y="26.3999" width="2.4" height="2.4" fill="#B9DAFF"/>
<path d="M33.6 24H36V26.4H33.6V24Z" fill="#B9DAFF"/>
<rect x="33.6" y="21.6001" width="2.4" height="2.4" fill="white"/>
<rect x="33.6" y="19.2002" width="2.4" height="2.4" fill="white"/>
<rect x="36" y="26.3999" width="2.4" height="2.4" fill="#B9DAFF"/>
<path d="M36 24H38.4V26.4H36V24Z" fill="#B9DAFF"/>
<path d="M36 21.6001H38.4V24.0001H36V21.6001Z" fill="#B9DAFF"/>
<rect x="28.8" y="19.2002" width="2.4" height="2.4" fill="#55B3FB"/>
<rect x="14.4" y="9.6001" width="2.4" height="2.4" fill="#55B3FB"/>
<rect x="16.8" y="7.2002" width="2.4" height="2.4" fill="#55B3FB"/>
<rect x="19.2" y="7.2002" width="2.4" height="2.4" fill="#55B3FB"/>
<rect x="21.6" y="7.2002" width="2.4" height="2.4" fill="#55B3FB"/>
<rect x="24" y="7.2002" width="2.4" height="2.4" fill="#55B3FB"/>
<rect x="26.4" y="7.2002" width="2.4" height="2.4" fill="#55B3FB"/>
<rect x="28.8" y="9.6001" width="2.4" height="2.4" fill="#55B3FB"/>
<rect x="31.2" y="12" width="2.4" height="2.4" fill="#55B3FB"/>
<rect x="31.2" y="14.3999" width="2.4" height="2.4" fill="#55B3FB"/>
<rect x="31.2" y="16.7998" width="2.4" height="2.4" fill="#55B3FB"/>
<rect x="38.4" y="24" width="2.4" height="2.4" fill="#55B3FB"/>
<rect x="38.4" y="26.3999" width="2.4" height="2.4" fill="#55B3FB"/>
<rect x="14.4" y="31.2002" width="2.4" height="2.4" fill="#55B3FB"/>
<rect x="16.8" y="31.2002" width="2.4" height="2.4" fill="#55B3FB"/>
<rect x="19.2" y="31.2002" width="2.4" height="2.4" fill="#55B3FB"/>
<rect x="21.6" y="31.2002" width="2.4" height="2.4" fill="#55B3FB"/>
<rect x="24" y="31.2002" width="2.4" height="2.4" fill="#55B3FB"/>
<rect x="28.8" y="31.2002" width="2.4" height="2.4" fill="#55B3FB"/>
<rect x="26.4" y="31.2002" width="2.4" height="2.4" fill="#55B3FB"/>
<rect x="31.2" y="31.2002" width="2.4" height="2.4" fill="#55B3FB"/>
<rect x="33.6" y="31.2002" width="2.4" height="2.4" fill="#55B3FB"/>
<rect x="36" y="31.2002" width="2.4" height="2.4" fill="#55B3FB"/>
<rect x="12" y="28.8003" width="2.4" height="2.4" fill="#B9DAFF"/>
<rect x="14.4" y="28.8003" width="2.4" height="2.4" fill="#B9DAFF"/>
<path d="M14.4 26.4004H16.8V28.8004H14.4V26.4004Z" fill="white"/>
<rect x="14.4" y="24" width="2.4" height="2.4" fill="#B9DAFF"/>
<rect x="14.4" y="21.6001" width="2.4" height="2.4" fill="#B9DAFF"/>
<rect x="14.4" y="19.2002" width="2.4" height="2.4" fill="#B9DAFF"/>
<rect x="16.8" y="28.8003" width="2.4" height="2.4" fill="#B9DAFF"/>
<rect x="16.8" y="24" width="2.4" height="2.4" fill="#B9DAFF"/>
<rect x="16.8" y="21.6001" width="2.4" height="2.4" fill="#B9DAFF"/>
<path d="M19.2 26.4004H21.6V28.8004H19.2V26.4004Z" fill="white"/>
<rect x="19.2" y="24" width="2.4" height="2.4" fill="#B9DAFF"/>
<rect x="21.6" y="28.8003" width="2.4" height="2.4" fill="#B9DAFF"/>
<rect x="21.6" y="24" width="2.4" height="2.4" fill="#B9DAFF"/>
<rect x="21.6" y="21.6001" width="2.4" height="2.4" fill="#B9DAFF"/>
<rect x="24" y="28.8003" width="2.4" height="2.4" fill="#B9DAFF"/>
<rect x="26.4" y="28.8003" width="2.4" height="2.4" fill="#B9DAFF"/>
<rect x="24" y="26.4004" width="2.4" height="2.4" fill="#B9DAFF"/>
<rect x="24" y="24" width="2.4" height="2.4" fill="#B9DAFF"/>
<rect x="24" y="21.6001" width="2.4" height="2.4" fill="#B9DAFF"/>
<rect x="24" y="19.2002" width="2.4" height="2.4" fill="#B9DAFF"/>
<rect x="19.2" y="38.3999" width="2.4" height="2.4" fill="#55B3FB"/>
<rect x="16.8" y="38.3999" width="2.4" height="2.4" fill="#55B3FB"/>
<rect x="14.4" y="38.3999" width="2.4" height="2.4" fill="#55B3FB"/>
<rect x="12" y="38.3999" width="2.4" height="2.4" fill="#55B3FB"/>
<rect x="9.59998" y="38.3999" width="2.4" height="2.4" fill="#55B3FB"/>
<rect x="7.20001" y="36" width="2.4" height="2.4" fill="#55B3FB"/>
<rect x="7.20001" y="33.6001" width="2.4" height="2.4" fill="#55B3FB"/>
<rect x="7.20001" y="31.2002" width="2.4" height="2.4" fill="#55B3FB"/>
<rect x="9.59998" y="28.7998" width="2.4" height="2.4" fill="#55B3FB"/>
<rect x="9.59998" y="26.3999" width="2.4" height="2.4" fill="#55B3FB"/>
<rect x="12" y="24" width="2.4" height="2.4" fill="#55B3FB"/>
<rect x="14.4" y="21.6001" width="2.4" height="2.4" fill="#55B3FB"/>
<rect x="16.8" y="21.6001" width="2.4" height="2.4" fill="#55B3FB"/>
<rect x="19.2" y="21.6001" width="2.4" height="2.4" fill="#55B3FB"/>
<rect x="21.6" y="24" width="2.4" height="2.4" fill="#55B3FB"/>
<rect x="24" y="26.3999" width="2.4" height="2.4" fill="#55B3FB"/>
<rect x="24" y="28.7998" width="2.4" height="2.4" fill="#B9DAFF"/>
<rect x="21.6" y="21.6001" width="2.4" height="2.4" fill="#B9DAFF"/>
<rect x="24" y="19.2002" width="2.4" height="2.4" fill="#B9DAFF"/>
<path d="M26.4 19.2002H28.8V21.6002H26.4V19.2002Z" fill="white"/>
<path d="M28.8 19.2002H31.2V21.6002H28.8V19.2002Z" fill="white"/>
<path d="M31.2 19.2002H33.6V21.6002H31.2V19.2002Z" fill="white"/>
<rect x="33.6" y="19.2002" width="2.4" height="2.4" fill="#B9DAFF"/>
<rect x="36" y="21.6001" width="2.4" height="2.4" fill="#B9DAFF"/>
<rect x="9.59998" y="36" width="2.4" height="2.4" fill="#B9DAFF"/>
<path d="M9.59998 33.6001H12V36.0001H9.59998V33.6001Z" fill="#B9DAFF"/>
<path d="M9.59998 31.2002H12V33.6002H9.59998V31.2002Z" fill="#B9DAFF"/>
<path d="M12 36H14.4V38.4H12V36Z" fill="#B9DAFF"/>
<path d="M12 33.6001H14.4V36.0001H12V33.6001Z" fill="#B9DAFF"/>
<rect x="12" y="31.2002" width="2.4" height="2.4" fill="white"/>
<rect x="12" y="28.7998" width="2.4" height="2.4" fill="white"/>
<path d="M12 26.3999H14.4V28.7999H12V26.3999Z" fill="#B9DAFF"/>
<path d="M14.4 36H16.8V38.4H14.4V36Z" fill="#B9DAFF"/>
<rect x="14.4" y="33.6001" width="2.4" height="2.4" fill="white"/>
<rect x="14.4" y="31.2002" width="2.4" height="2.4" fill="white"/>
<rect x="14.4" y="28.7998" width="2.4" height="2.4" fill="white"/>
<rect x="14.4" y="26.3999" width="2.4" height="2.4" fill="white"/>
<path d="M14.4 24H16.8V26.4H14.4V24Z" fill="white"/>
<rect x="16.8" y="36" width="2.4" height="2.4" fill="white"/>
<rect x="16.8" y="33.6001" width="2.4" height="2.4" fill="white"/>
<rect x="16.8" y="31.2002" width="2.4" height="2.4" fill="white"/>
<rect x="16.8" y="28.7998" width="2.4" height="2.4" fill="white"/>
<rect x="16.8" y="26.3999" width="2.4" height="2.4" fill="white"/>
<path d="M16.8 24H19.2V26.4H16.8V24Z" fill="white"/>
<path d="M19.2 36H21.6V38.4H19.2V36Z" fill="white"/>
<rect x="19.2" y="33.6001" width="2.4" height="2.4" fill="white"/>
<rect x="19.2" y="31.2002" width="2.4" height="2.4" fill="white"/>
<rect x="19.2" y="28.7998" width="2.4" height="2.4" fill="white"/>
<rect x="19.2" y="26.3999" width="2.4" height="2.4" fill="white"/>
<path d="M19.2 24H21.6V26.4H19.2V24Z" fill="white"/>
<path d="M21.6 36H24V38.4H21.6V36Z" fill="white"/>
<rect x="21.6" y="33.6001" width="2.4" height="2.4" fill="white"/>
<rect x="21.6" y="31.2002" width="2.4" height="2.4" fill="white"/>
<rect x="21.6" y="28.7998" width="2.4" height="2.4" fill="white"/>
<path d="M21.6 26.3999H24V28.7999H21.6V26.3999Z" fill="#B9DAFF"/>
<path d="M24 36H26.4V38.4H24V36Z" fill="white"/>
<rect x="24" y="33.6001" width="2.4" height="2.4" fill="white"/>
<rect x="24" y="31.2002" width="2.4" height="2.4" fill="white"/>
<path d="M26.4 36H28.8V38.4H26.4V36Z" fill="white"/>
<rect x="26.4" y="33.6001" width="2.4" height="2.4" fill="white"/>
<rect x="26.4" y="31.2002" width="2.4" height="2.4" fill="white"/>
<rect x="24" y="21.6001" width="2.4" height="2.4" fill="white"/>
<rect x="24" y="24" width="2.4" height="2.4" fill="white"/>
<path d="M28.8 36H31.2V38.4H28.8V36Z" fill="white"/>
<rect x="28.8" y="33.6001" width="2.4" height="2.4" fill="white"/>
<rect x="28.8" y="31.2002" width="2.4" height="2.4" fill="white"/>
<rect x="26.4" y="21.6001" width="2.4" height="2.4" fill="white"/>
<rect x="26.4" y="24" width="2.4" height="2.4" fill="white"/>
<path d="M31.2 36H33.6V38.4H31.2V36Z" fill="white"/>
<rect x="31.2" y="33.6001" width="2.4" height="2.4" fill="white"/>
<rect x="31.2" y="31.2002" width="2.4" height="2.4" fill="white"/>
<rect x="28.8" y="21.6001" width="2.4" height="2.4" fill="white"/>
<rect x="28.8" y="24" width="2.4" height="2.4" fill="white"/>
<rect x="31.2" y="21.6001" width="2.4" height="2.4" fill="white"/>
<rect x="33.6" y="21.6001" width="2.4" height="2.4" fill="white"/>
<rect x="31.2" y="24" width="2.4" height="2.4" fill="white"/>
<rect x="33.6" y="24" width="2.4" height="2.4" fill="white"/>
<rect x="33.6" y="26.3999" width="2.4" height="2.4" fill="white"/>
<rect x="33.6" y="28.7998" width="2.4" height="2.4" fill="white"/>
<rect x="33.6" y="31.2002" width="2.4" height="2.4" fill="white"/>
<rect x="33.6" y="33.6001" width="2.4" height="2.4" fill="white"/>
<rect x="33.6" y="36" width="2.4" height="2.4" fill="white"/>
<rect x="36" y="24" width="2.4" height="2.4" fill="white"/>
<rect x="36" y="26.3999" width="2.4" height="2.4" fill="white"/>
<rect x="31.2" y="26.3999" width="2.4" height="2.4" fill="white"/>
<rect x="31.2" y="28.7998" width="2.4" height="2.4" fill="white"/>
<rect x="28.8" y="26.3999" width="2.4" height="2.4" fill="white"/>
<rect x="28.8" y="28.7998" width="2.4" height="2.4" fill="white"/>
<rect x="26.4" y="26.3999" width="2.4" height="2.4" fill="white"/>
<rect x="26.4" y="28.7998" width="2.4" height="2.4" fill="white"/>
<path d="M36 36H38.4V38.4H36V36Z" fill="white"/>
<rect x="36" y="33.6001" width="2.4" height="2.4" fill="white"/>
<rect x="36" y="31.2002" width="2.4" height="2.4" fill="white"/>
<path d="M38.4 36H40.8V38.4H38.4V36Z" fill="white"/>
<rect x="38.4" y="33.6001" width="2.4" height="2.4" fill="white"/>
<rect x="38.4" y="31.2002" width="2.4" height="2.4" fill="white"/>
<rect x="38.4" y="28.7998" width="2.4" height="2.4" fill="white"/>
<rect x="40.8" y="36" width="2.4" height="2.4" fill="#B9DAFF"/>
<path d="M40.8 33.6001H43.2V36.0001H40.8V33.6001Z" fill="white"/>
<rect x="40.8" y="31.2002" width="2.4" height="2.4" fill="white"/>
<rect x="40.8" y="28.7998" width="2.4" height="2.4" fill="white"/>
<rect x="43.2" y="36" width="2.4" height="2.4" fill="#B9DAFF"/>
<path d="M43.2 33.6001H45.6V36.0001H43.2V33.6001Z" fill="#B9DAFF"/>
<path d="M43.2 31.2002H45.6V33.6002H43.2V31.2002Z" fill="#B9DAFF"/>
<rect x="36" y="28.7998" width="2.4" height="2.4" fill="#55B3FB"/>
<rect x="21.6" y="19.2002" width="2.4" height="2.4" fill="#55B3FB"/>
<rect x="24" y="16.7998" width="2.4" height="2.4" fill="#55B3FB"/>
<rect x="26.4" y="16.7998" width="2.4" height="2.4" fill="#55B3FB"/>
<rect x="28.8" y="16.7998" width="2.4" height="2.4" fill="#55B3FB"/>
<rect x="31.2" y="16.7998" width="2.4" height="2.4" fill="#55B3FB"/>
<rect x="33.6" y="16.7998" width="2.4" height="2.4" fill="#55B3FB"/>
<rect x="36" y="19.2002" width="2.4" height="2.4" fill="#55B3FB"/>
<rect x="38.4" y="21.6001" width="2.4" height="2.4" fill="#55B3FB"/>
<rect x="38.4" y="24" width="2.4" height="2.4" fill="#55B3FB"/>
<rect x="38.4" y="26.3999" width="2.4" height="2.4" fill="#55B3FB"/>
<rect x="40.8" y="26.3999" width="2.4" height="2.4" fill="#55B3FB"/>
<rect x="43.2" y="28.7998" width="2.4" height="2.4" fill="#55B3FB"/>
<rect x="45.6" y="31.2002" width="2.4" height="2.4" fill="#55B3FB"/>
<rect x="45.6" y="33.6001" width="2.4" height="2.4" fill="#55B3FB"/>
<rect x="45.6" y="36" width="2.4" height="2.4" fill="#55B3FB"/>
<rect x="21.6" y="38.3999" width="2.4" height="2.4" fill="#55B3FB"/>
<rect x="24" y="38.3999" width="2.4" height="2.4" fill="#55B3FB"/>
<rect x="26.4" y="38.3999" width="2.4" height="2.4" fill="#55B3FB"/>
<rect x="28.8" y="38.3999" width="2.4" height="2.4" fill="#55B3FB"/>
<rect x="31.2" y="38.3999" width="2.4" height="2.4" fill="#55B3FB"/>
<rect x="36" y="38.3999" width="2.4" height="2.4" fill="#55B3FB"/>
<rect x="33.6" y="38.3999" width="2.4" height="2.4" fill="#55B3FB"/>
<rect x="38.4" y="38.3999" width="2.4" height="2.4" fill="#55B3FB"/>
<rect x="40.8" y="38.3999" width="2.4" height="2.4" fill="#55B3FB"/>
<rect x="43.2" y="38.3999" width="2.4" height="2.4" fill="#55B3FB"/>
<rect x="19.2" y="36" width="2.4" height="2.4" fill="#B9DAFF"/>
<rect x="21.6" y="36" width="2.4" height="2.4" fill="#B9DAFF"/>
<rect x="21.6" y="33.6001" width="2.4" height="2.4" fill="#B9DAFF"/>
<rect x="21.6" y="31.1997" width="2.4" height="2.4" fill="#B9DAFF"/>
<rect x="21.6" y="28.7998" width="2.4" height="2.4" fill="#B9DAFF"/>
<rect x="21.6" y="26.3999" width="2.4" height="2.4" fill="#B9DAFF"/>
<rect x="24" y="36" width="2.4" height="2.4" fill="#B9DAFF"/>
<rect x="24" y="31.1997" width="2.4" height="2.4" fill="#B9DAFF"/>
<rect x="24" y="28.7998" width="2.4" height="2.4" fill="#B9DAFF"/>
<rect x="26.4" y="33.6001" width="2.4" height="2.4" fill="#B9DAFF"/>
<rect x="26.4" y="31.1997" width="2.4" height="2.4" fill="#B9DAFF"/>
<rect x="28.8" y="36" width="2.4" height="2.4" fill="#B9DAFF"/>
<rect x="28.8" y="31.1997" width="2.4" height="2.4" fill="#B9DAFF"/>
<rect x="28.8" y="28.7998" width="2.4" height="2.4" fill="#B9DAFF"/>
<rect x="31.2" y="36" width="2.4" height="2.4" fill="#B9DAFF"/>
<rect x="33.6" y="36" width="2.4" height="2.4" fill="#B9DAFF"/>
<rect x="31.2" y="33.6001" width="2.4" height="2.4" fill="#B9DAFF"/>
<rect x="31.2" y="31.1997" width="2.4" height="2.4" fill="#B9DAFF"/>
<rect x="31.2" y="28.7998" width="2.4" height="2.4" fill="#B9DAFF"/>
<rect x="31.2" y="26.3999" width="2.4" height="2.4" fill="#B9DAFF"/>
</svg>
