<svg width="40" height="40" viewBox="0 0 40 40" fill="none" xmlns="http://www.w3.org/2000/svg">
<rect x="16" y="35" width="2" height="2" fill="#B8B8CC"/>
<rect x="16" y="33" width="2" height="2" fill="#B8B8CC"/>
<rect x="16" y="31" width="2" height="2" fill="#B8B8CC"/>
<rect x="16" y="29" width="2" height="2" fill="#4D4D61"/>
<rect x="16" y="27" width="2" height="2" fill="#4D4D61"/>
<rect x="16" y="25" width="2" height="2" fill="#4D4D61"/>
<path d="M4 19H6V21H4V19Z" fill="#E61300"/>
<path d="M4 23H6V25H4V23Z" fill="#E61300"/>
<path d="M4 17H6V19H4V17Z" fill="#E61300"/>
<path d="M4 21H6V23H4V21Z" fill="#E61300"/>
<rect x="4" y="15" width="2" height="2" fill="#E61300"/>
<rect x="4" y="13" width="2" height="2" fill="#E61300"/>
<rect x="4" y="11" width="2" height="2" fill="#E61300"/>
<rect x="6" y="11" width="2" height="2" fill="#C4001D"/>
<rect x="6" y="13" width="2" height="2" fill="#C4001D"/>
<rect x="6" y="15" width="2" height="2" fill="#C4001D"/>
<rect x="6" y="17" width="2" height="2" fill="#C4001D"/>
<rect x="6" y="19" width="2" height="2" fill="#C4001D"/>
<rect x="6" y="21" width="2" height="2" fill="#C4001D"/>
<rect x="6" y="23" width="2" height="2" fill="#C4001D"/>
<rect x="8" y="11" width="2" height="2" fill="#C4001D"/>
<rect x="8" y="13" width="2" height="2" fill="#C4001D"/>
<rect x="8" y="15" width="2" height="2" fill="#C4001D"/>
<rect x="8" y="17" width="2" height="2" fill="#C4001D"/>
<rect x="8" y="19" width="2" height="2" fill="#C4001D"/>
<rect x="8" y="21" width="2" height="2" fill="#C4001D"/>
<rect x="8" y="23" width="2" height="2" fill="#C4001D"/>
<rect x="10" y="11" width="2" height="2" fill="#C4001D"/>
<rect x="10" y="13" width="2" height="2" fill="#C4001D"/>
<rect x="10" y="15" width="2" height="2" fill="#C4001D"/>
<rect x="10" y="17" width="2" height="2" fill="#C4001D"/>
<rect x="10" y="19" width="2" height="2" fill="#C4001D"/>
<rect x="10" y="21" width="2" height="2" fill="#C4001D"/>
<rect x="10" y="23" width="2" height="2" fill="#C4001D"/>
<rect x="12" y="11" width="2" height="2" fill="#C4001D"/>
<rect x="12" y="13" width="2" height="2" fill="#C4001D"/>
<rect x="12" y="15" width="2" height="2" fill="#C4001D"/>
<rect x="12" y="17" width="2" height="2" fill="#C4001D"/>
<rect x="12" y="19" width="2" height="2" fill="#C4001D"/>
<rect x="12" y="21" width="2" height="2" fill="#C4001D"/>
<rect x="12" y="23" width="2" height="2" fill="#C4001D"/>
<path d="M14 11H16V13H14V11Z" fill="#B8B8CC"/>
<path d="M14 13H16V15H14V13Z" fill="#6F6F84"/>
<path d="M14 15H16V17H14V15Z" fill="#B8B8CC"/>
<path d="M14 17H16V19H14V17Z" fill="#6F6F84"/>
<path d="M14 19H16V21H14V19Z" fill="#B8B8CC"/>
<path d="M14 21H16V23H14V21Z" fill="#6F6F84"/>
<rect x="14" y="23" width="2" height="2" fill="#C4001D"/>
<rect x="16" y="23" width="2" height="2" fill="#C4001D"/>
<rect x="18" y="11" width="2" height="2" fill="#C4001D"/>
<rect x="16" y="11" width="2" height="2" fill="#C4001D"/>
<rect x="18" y="13" width="2" height="2" fill="#C4001D"/>
<rect x="16" y="13" width="2" height="2" fill="#C4001D"/>
<rect x="18" y="15" width="2" height="2" fill="#C4001D"/>
<rect x="16" y="15" width="2" height="2" fill="#C4001D"/>
<rect x="18" y="17" width="2" height="2" fill="#C4001D"/>
<rect x="16" y="17" width="2" height="2" fill="#C4001D"/>
<rect x="18" y="19" width="2" height="2" fill="#C4001D"/>
<rect x="16" y="19" width="2" height="2" fill="#C4001D"/>
<rect x="18" y="21" width="2" height="2" fill="#C4001D"/>
<rect x="16" y="21" width="2" height="2" fill="#C4001D"/>
<rect x="18" y="23" width="2" height="2" fill="#C4001D"/>
<rect x="20" y="11" width="2" height="2" fill="#C4001D"/>
<rect x="20" y="13" width="2" height="2" fill="#C4001D"/>
<rect x="20" y="15" width="2" height="2" fill="#C4001D"/>
<rect x="20" y="17" width="2" height="2" fill="#C4001D"/>
<rect x="20" y="19" width="2" height="2" fill="#C4001D"/>
<rect x="20" y="21" width="2" height="2" fill="#C4001D"/>
<rect x="20" y="23" width="2" height="2" fill="#C4001D"/>
<rect x="22" y="11" width="2" height="2" fill="#C4001D"/>
<rect x="22" y="13" width="2" height="2" fill="#C4001D"/>
<rect x="22" y="15" width="2" height="2" fill="#C4001D"/>
<rect x="22" y="17" width="2" height="2" fill="#C4001D"/>
<rect x="22" y="19" width="2" height="2" fill="#C4001D"/>
<rect x="22" y="21" width="2" height="2" fill="#C4001D"/>
<rect x="22" y="23" width="2" height="2" fill="#C4001D"/>
<rect x="24" y="11" width="2" height="2" fill="#FA500F"/>
<rect x="24" y="13" width="2" height="2" fill="#FA500F"/>
<rect x="24" y="15" width="2" height="2" fill="#FA500F"/>
<rect x="24" y="17" width="2" height="2" fill="#FA500F"/>
<rect x="24" y="19" width="2" height="2" fill="#FA500F"/>
<rect x="24" y="21" width="2" height="2" fill="#FA500F"/>
<rect x="24" y="23" width="2" height="2" fill="#FA500F"/>
<rect x="26" y="11" width="2" height="2" fill="#E61300"/>
<rect x="26" y="13" width="2" height="2" fill="#E61300"/>
<rect x="26" y="15" width="2" height="2" fill="#E61300"/>
<rect x="26" y="17" width="2" height="2" fill="#E61300"/>
<rect x="26" y="19" width="2" height="2" fill="#E61300"/>
<rect x="26" y="21" width="2" height="2" fill="#E61300"/>
<rect x="26" y="23" width="2" height="2" fill="#E61300"/>
<rect x="28" y="11" width="2" height="2" fill="#E61300"/>
<rect x="28" y="13" width="2" height="2" fill="#E61300"/>
<rect x="28" y="15" width="2" height="2" fill="#E61300"/>
<rect x="28" y="17" width="2" height="2" fill="#E61300"/>
<rect x="28" y="19" width="2" height="2" fill="#E61300"/>
<rect x="28" y="21" width="2" height="2" fill="#E61300"/>
<rect x="28" y="23" width="2" height="2" fill="#E61300"/>
<rect x="30" y="11" width="2" height="2" fill="#E61300"/>
<rect x="30" y="13" width="2" height="2" fill="#E61300"/>
<rect x="30" y="15" width="2" height="2" fill="#E61300"/>
<rect x="30" y="17" width="2" height="2" fill="#E61300"/>
<rect x="30" y="19" width="2" height="2" fill="#E61300"/>
<rect x="30" y="21" width="2" height="2" fill="#E61300"/>
<rect x="30" y="23" width="2" height="2" fill="#E61300"/>
<rect x="6" y="9" width="2" height="2" fill="#FA500F"/>
<rect x="8" y="9" width="2" height="2" fill="#FA500F"/>
<path d="M10 9H12V11H10V9Z" fill="#FA500F"/>
<path d="M12 9H14V11H12V9Z" fill="#FA500F"/>
<path d="M14 9H16V11H14V9Z" fill="#6F6F84"/>
<path d="M16 5H18V7H16V5Z" fill="#E61300"/>
<rect x="18" y="5" width="2" height="2" fill="#FA500F"/>
<rect x="18" y="3" width="2" height="2" fill="#FA500F"/>
<rect x="16" y="3" width="2" height="2" fill="#E61300"/>
<rect x="14" y="3" width="2" height="2" fill="#E61300"/>
<rect x="14" y="5" width="2" height="2" fill="#E61300"/>
<path d="M14 7H16V9H14V7Z" fill="#B8B8CC"/>
<path d="M18 9H20V11H18V9Z" fill="#E61300"/>
<path d="M16 9H18V11H16V9Z" fill="#E61300"/>
<rect x="20" y="9" width="2" height="2" fill="#E61300"/>
<rect x="22" y="9" width="2" height="2" fill="#E61300"/>
<rect x="24" y="9" width="2" height="2" fill="#E61300"/>
<rect x="26" y="9" width="2" height="2" fill="#FF6529"/>
<rect x="28" y="9" width="2" height="2" fill="#FF8204"/>
<rect x="30" y="9" width="2" height="2" fill="#E61300"/>
<rect x="32" y="11" width="2" height="2" fill="#E61300"/>
<rect x="32" y="13" width="2" height="2" fill="#E61300"/>
<rect x="32" y="15" width="2" height="2" fill="#E61300"/>
<rect x="32" y="17" width="2" height="2" fill="#E61300"/>
<rect x="32" y="21" width="2" height="2" fill="#E61300"/>
<rect x="32" y="19" width="2" height="2" fill="#E61300"/>
<rect x="32" y="23" width="2" height="2" fill="#E61300"/>
<rect x="18" y="35" width="2" height="2" fill="#DCDCE8"/>
<rect x="18" y="33" width="2" height="2" fill="#DCDCE8"/>
<rect x="18" y="31" width="2" height="2" fill="#DCDCE8"/>
<rect x="18" y="29" width="2" height="2" fill="#6F6F84"/>
<rect x="18" y="27" width="2" height="2" fill="#6F6F84"/>
<rect x="18" y="25" width="2" height="2" fill="#6F6F84"/>
<rect x="20" y="35" width="2" height="2" fill="#DCDCE8"/>
<rect x="20" y="33" width="2" height="2" fill="#DCDCE8"/>
<rect x="20" y="31" width="2" height="2" fill="#DCDCE8"/>
<rect x="20" y="29" width="2" height="2" fill="#6F6F84"/>
<rect x="20" y="27" width="2" height="2" fill="#6F6F84"/>
<rect x="20" y="25" width="2" height="2" fill="#6F6F84"/>
</svg>
